<svg width="678" height="494" viewBox="0 0 678 494" fill="none" xmlns="http://www.w3.org/2000/svg">
<g clip-path="url(#clip0_1_2132)">
<path d="M406.422 275.939C408.338 271.164 408.688 265.907 407.422 260.92C406.927 259.118 406.214 257.383 405.297 255.754C403.808 252.833 401.605 250.333 398.891 248.489C396.16 246.692 392.912 245.848 389.65 246.085C386.726 246.366 383.964 247.563 381.762 249.506C378.883 251.974 377.076 255.358 375.368 258.784C374.838 259.85 373.729 259.423 372.996 257.991C372.542 256.985 372.345 255.881 372.424 254.779C372.504 253.677 372.858 252.613 373.453 251.683C375.972 247.44 379.883 244.2 384.523 242.51C386.865 241.698 389.348 241.373 391.82 241.551C394.293 241.729 396.702 242.407 398.904 243.545C404.025 246.201 408.077 250.534 410.379 255.818C412.758 261.496 413.283 267.777 411.881 273.77C411.003 277.42 409.377 280.849 407.106 283.841C405.355 286.113 403.16 288.005 400.653 289.402C398.126 290.794 395.313 291.584 392.43 291.711C390.207 291.805 387.983 291.538 385.847 290.918C383.713 290.273 381.702 289.278 379.896 287.973C379.094 287.413 378.335 286.793 377.628 286.118C376.661 285.246 375.893 284.181 375.37 282.991C375.23 282.663 375.167 282.307 375.188 281.95C375.209 281.594 375.313 281.247 375.491 280.939C375.618 280.644 375.777 280.365 375.966 280.106C376.658 279.359 377.923 280.154 379.488 281.702C381.74 283.998 384.529 285.7 387.602 286.654C390.591 287.539 393.791 287.395 396.686 286.242C398.913 285.268 400.917 283.849 402.573 282.071C404.228 280.292 405.502 278.195 406.313 275.906L406.422 275.939Z" fill="#0B2330"/>
<path d="M355.559 274.779L373.708 265.504C373.708 265.504 381.486 287.72 378.893 298.936L366.794 304.327L355.559 274.779Z" fill="#F9C600"/>
<path d="M355.639 275.029C355.635 275.961 355.689 276.892 355.801 277.817C356.11 280.786 356.781 283.706 357.803 286.513C358.469 288.576 359.336 291.054 360.455 294.107C361.024 295.631 361.647 297.3 362.333 299.136C363.298 301.666 364.349 304.424 365.5 307.439L365.707 307.346C368.346 306.177 371.246 304.891 374.137 303.61L377.345 302.196C377.953 301.924 378.551 301.656 379.141 301.392C379.631 301.172 380.117 300.953 380.599 300.737L380.957 300.575C381.035 300.489 381.014 300.328 381.048 300.209L381.172 299.443L381.349 298.437C381.391 298.198 381.443 297.904 381.503 297.562C381.564 297.266 381.607 296.968 381.63 296.666C381.678 296.01 381.737 295.227 381.801 294.354C381.799 293.496 381.796 292.55 381.793 291.549C381.588 287.577 381.059 283.629 380.21 279.742C379.528 276.561 378.664 273.422 377.624 270.339C377.37 269.611 377.118 268.896 376.872 268.191C376.695 267.694 376.519 267.201 376.345 266.711C376.119 266.101 375.896 265.497 375.674 264.898C375.453 264.322 375.235 263.751 375.019 263.184L374.857 262.769C374.715 262.818 374.579 262.884 374.45 262.965L373.628 263.411C372.547 263.99 371.504 264.591 370.527 265.148L370.013 265.457L369.601 265.714L368.791 266.223C368.26 266.563 367.742 266.894 367.236 267.218C366.236 267.882 365.289 268.511 364.394 269.104C362.623 270.31 361.104 271.408 359.873 272.361C354.949 276.174 354.627 277.673 361.138 274.519C364.254 272.978 368.153 271.051 372.249 269.025L372.251 269.044L372.25 269.051V269.055L372.29 269.186L372.44 269.672C372.834 270.971 373.21 272.28 373.57 273.586C374.286 276.197 374.91 278.796 375.44 281.274C376.366 285.41 376.877 289.629 376.969 293.866C376.981 294.655 376.898 295.334 376.878 295.949C376.875 296.227 376.848 296.505 376.798 296.78C376.76 297.013 376.708 297.331 376.727 297.238C376.742 297.25 376.725 297.282 376.723 297.273L376.702 297.294L376.1 297.575L374.63 298.255C373.65 298.709 372.673 299.161 371.697 299.613C370.722 300.066 369.752 300.517 368.783 300.966C368.107 301.276 368.287 301.206 368.197 301.255L368.033 301.356L367.955 301.219L367.912 301.14L367.889 301.098L367.765 300.79C367.398 299.876 367.034 298.965 366.671 298.058C365.941 296.246 365.215 294.442 364.494 292.649C359.343 279.889 355.887 273.008 355.639 275.029Z" fill="#F9C600"/>
<path d="M348.215 201.881L365.283 195.195C365.283 195.195 367.875 213.097 369.821 220.861L357.722 226.253L348.215 201.881Z" fill="#F9C600"/>
<path d="M348.281 202.09C348.234 202.889 348.246 203.689 348.314 204.487C348.475 206.972 348.992 209.422 349.85 211.76C350.398 213.469 351.118 215.513 352.055 218.024C352.532 219.277 353.054 220.65 353.629 222.158C354.487 224.352 355.422 226.743 356.443 229.357C356.734 229.226 357.112 229.057 357.493 228.886C359.69 227.913 362.106 226.845 364.515 225.778C366.616 224.841 368.711 223.906 370.604 223.062C370.604 223.062 370.882 222.941 371.39 222.72C371.643 222.61 371.954 222.474 372.317 222.317C372.381 222.264 372.561 222.266 372.538 222.163L372.467 221.849C372.419 221.633 372.367 221.404 372.313 221.163C372.203 220.68 372.083 220.149 371.954 219.578C371.829 219.046 371.655 218.239 371.624 218.053C371.497 217.397 371.355 216.673 371.207 215.908C370.629 212.834 370.012 209.055 369.566 206.407C369.215 204.341 368.853 202.337 368.476 200.414C368.265 199.344 368.059 198.296 367.857 197.27C367.548 195.583 367.246 193.936 366.95 192.329C365.315 193.055 363.725 193.761 362.185 194.445L361.671 194.68L361.368 194.833L360.768 195.14C360.374 195.345 359.988 195.545 359.608 195.743C358.092 196.541 356.71 197.309 355.476 198.029C353.564 199.104 351.735 200.32 350.003 201.665C347.731 203.543 348.386 204.154 353.048 202.462C355.776 201.442 359.236 200.148 363.291 198.632L363.285 198.653L363.283 198.654L363.366 199.21L363.553 200.437C363.812 202.071 364.072 203.703 364.326 205.304C364.85 208.502 365.392 211.564 365.904 214.228C366.173 215.562 366.422 216.796 366.645 217.896C366.766 218.438 366.878 218.949 366.984 219.421C366.985 219.411 366.993 219.438 366.999 219.444C367.015 219.488 366.955 219.497 366.965 219.5C365.282 220.286 363.606 221.068 361.933 221.848C361.076 222.25 360.22 222.65 359.367 223.048L359.207 223.124C359.199 223.127 359.189 223.132 359.181 223.139L359.151 223.159L359.086 223.204L358.935 223.301L358.793 223.063C358.515 222.4 358.24 221.738 357.965 221.08C357.363 219.634 356.764 218.197 356.169 216.768C351.693 206.062 348.614 200.33 348.281 202.09Z" fill="#F9C600"/>
<path d="M406.796 297.582L410.744 301.257C410.818 301.326 410.877 301.41 410.914 301.503C410.953 301.597 410.971 301.698 410.966 301.799C410.962 301.9 410.936 301.999 410.89 302.089C410.843 302.18 410.778 302.258 410.699 302.321L391.841 317.074C391.768 317.13 391.685 317.173 391.597 317.197C391.507 317.222 391.414 317.23 391.324 317.218C391.232 317.207 391.143 317.178 391.062 317.133C390.983 317.087 390.912 317.027 390.855 316.955L386.705 311.657C386.646 311.582 386.603 311.495 386.579 311.403C386.555 311.311 386.55 311.214 386.564 311.12C386.579 311.025 386.612 310.934 386.663 310.853C386.714 310.772 386.781 310.703 386.859 310.648L405.918 297.517C406.05 297.426 406.208 297.383 406.368 297.395C406.528 297.407 406.679 297.473 406.796 297.582Z" fill="#51CEBC"/>
<path d="M390.428 311.717C390.391 311.767 390.414 311.809 390.42 311.877C390.466 311.989 390.316 311.85 390.851 312.586L391.419 313.39L391.49 313.561C391.555 313.668 391.588 313.848 391.713 313.937C391.855 313.987 391.95 313.866 392.09 313.817C392.152 313.783 392.211 313.744 392.265 313.701L392.842 313.239C393.302 312.869 393.764 312.501 394.247 312.162L404.525 305.023C405.757 304.159 406.936 303.22 408.056 302.213C408.212 302.026 408.51 301.889 408.375 301.595C408.182 301.406 407.975 301.233 407.752 301.08C407.662 301.004 407.577 300.93 407.497 300.85L407.147 300.479C406.748 300.059 406.38 299.612 406.045 299.141C405.613 298.529 406.497 297.727 407.74 297.305C408.387 297.082 409.073 296.989 409.756 297.03C409.925 297.042 410.094 297.066 410.26 297.1C410.467 297.129 410.664 297.207 410.834 297.325C411.395 297.666 411.921 298.06 412.403 298.502L412.891 298.951C413.279 299.306 413.589 299.738 413.799 300.219C413.977 300.612 414.086 301.032 414.12 301.463C414.156 301.936 414.106 302.412 413.97 302.866C413.837 303.294 413.631 303.696 413.36 304.052C413.005 304.487 412.588 304.868 412.123 305.182L410.723 306.243L409.822 306.907L409.101 307.419C407.172 308.775 405.183 310.063 403.13 311.283C400.612 312.771 398.357 314.788 395.962 316.541L393.3 318.506C392.823 318.828 392.287 319.052 391.722 319.167C391.442 319.212 391.156 319.199 390.881 319.129C390.607 319.058 390.35 318.932 390.125 318.759C389.207 317.955 388.41 317.021 387.76 315.989L385.988 313.57L385.704 313.19C385.332 312.674 385.065 312.089 384.92 311.469C384.866 311.15 384.903 310.823 385.025 310.523C385.155 310.257 385.327 310.012 385.537 309.8C386.015 309.305 386.561 308.879 387.16 308.536L388.678 307.54C391.225 305.878 393.821 304.26 396.269 302.495C398.174 301.122 399.886 299.553 401.679 298.069C402.075 297.743 402.436 297.387 402.849 297.078C403.365 296.619 403.983 296.293 404.654 296.126C404.713 296.117 404.774 296.112 404.834 296.111C404.93 296.118 405.026 296.1 405.113 296.057C405.376 295.977 405.655 295.967 405.922 296.031C406.12 296.074 406.301 296.17 406.448 296.309C406.594 296.45 406.697 296.626 406.749 296.822C406.798 296.969 406.813 297.124 406.796 297.278C406.778 297.432 406.728 297.58 406.648 297.712C406.582 297.808 406.507 297.897 406.424 297.979L406.312 298.101L406.315 298.096C406.32 298.09 406.316 298.097 406.316 298.097V298.093L406.318 298.097L406.322 298.102V298.103C406.182 297.901 407.534 299.856 406.962 299.029L406.961 299.03V299.031L406.958 299.037L406.951 299.049L406.939 299.073L406.886 299.169C406.721 299.449 406.523 299.709 406.293 299.94C403.201 302.964 399.822 305.68 396.205 308.052C393.807 309.718 389.625 312.434 390.582 311.737L390.428 311.717Z" fill="#0B2330"/>
<path d="M328.446 189.019C330.58 188.852 332.729 188.995 334.822 189.446C336.954 189.915 338.989 190.75 340.835 191.914C342.181 192.693 343.433 193.622 344.569 194.682C348.105 198.489 350.761 203.025 352.351 207.968C353.098 210.065 353.843 212.16 354.498 214.256C355.52 216.909 356.089 219.714 356.183 222.555C356.15 223.484 354.947 223.461 353.709 222.912C353.026 222.652 352.414 222.24 351.917 221.707C351.419 221.174 351.05 220.535 350.837 219.838C349.734 214.618 348.188 209.502 346.214 204.545C344.915 201.635 342.935 199.078 340.441 197.091C337.84 194.873 334.563 193.604 331.144 193.493C328.917 193.444 326.692 193.624 324.503 194.028C321.195 194.581 318.068 195.919 315.389 197.932C313.472 199.545 311.967 201.588 310.997 203.894C310.77 204.383 310.644 204.902 310.427 205.39C309.746 207.253 309.386 207.737 308.075 207.922C307.777 207.968 307.478 208.051 307.19 208.077C306.216 208.2 305.561 206.966 305.897 205.141C306.45 202.356 307.671 199.745 309.456 197.535C311.307 195.248 313.612 193.369 316.227 192.017C320.028 190.127 324.188 189.067 328.431 188.906L328.446 189.019Z" fill="#0B2330"/>
<path d="M352.381 171.313C350.665 169.396 348.6 167.82 346.295 166.67C343.925 165.553 341.381 164.852 338.773 164.596C336.807 164.442 334.833 164.461 332.87 164.654C325.66 165.391 318.632 167.371 312.099 170.506C309.139 171.88 306.276 173.455 303.531 175.221C300.007 177.451 296.723 180.051 293.124 182.14C292.027 182.788 291.399 181.772 291.59 180.168C291.758 179.127 292.136 178.13 292.703 177.239C293.268 176.347 294.009 175.581 294.881 174.984C302.148 169.831 310.191 165.866 318.709 163.241C321.303 162.514 323.932 161.739 326.639 161.117C329.373 160.489 332.158 160.11 334.961 159.985C338.096 159.898 341.226 160.284 344.246 161.131C347.293 162.004 350.148 163.442 352.661 165.371C355.589 167.786 358.103 170.662 360.104 173.884C360.92 175.044 361.527 176.324 362.228 177.546C362.81 178.826 363.477 180.07 363.961 181.385C365.006 183.965 365.893 186.605 366.618 189.292C367.787 193.394 368.652 197.575 369.204 201.804C369.325 202.738 369.456 203.655 369.496 204.606C369.66 208.133 369.222 209.274 367.968 209.942C367.696 210.114 367.408 210.26 367.107 210.374C366.12 210.626 365.477 209.217 365.206 206.809C364.533 199.464 362.984 192.225 360.59 185.246C358.812 180.11 355.991 175.397 352.304 171.399L352.381 171.313Z" fill="#0B2330"/>
<path d="M310.446 212.525C313.317 210.245 316.147 207.903 318.702 205.424C319.937 204.265 321.064 202.996 322.068 201.633C322.144 201.536 322.213 201.434 322.278 201.329C322.331 201.242 322.368 201.146 322.391 201.047C322.404 200.943 322.379 200.837 322.319 200.752C322.258 200.666 322.169 200.606 322.066 200.583C322.01 200.555 321.952 200.53 321.892 200.509C321.751 200.463 321.606 200.428 321.459 200.405C321.229 200.37 320.998 200.352 320.766 200.349C320.305 200.353 319.848 200.425 319.408 200.563C318.353 200.964 317.367 201.523 316.481 202.221C314.674 203.551 312.837 205.278 310.852 206.892C308.844 208.572 306.679 210.056 304.386 211.323C302.055 212.588 299.57 213.546 296.993 214.173C295.738 214.501 294.724 214.802 293.577 215.143C292.5 215.611 291.375 215.963 290.325 216.524C286.524 218.466 283.025 220.947 279.938 223.892C275.905 227.615 272.456 231.956 268.769 236.027C267.658 237.288 266.789 236.464 266.74 234.567C266.851 231.839 267.926 229.238 269.773 227.223C273.691 222.678 278.193 218.671 283.161 215.302C285.75 213.604 288.522 212.204 291.426 211.127C292.164 210.845 292.92 210.612 293.688 210.429C294.423 210.236 295.299 209.984 295.882 209.866C297.175 209.592 298.445 209.221 299.682 208.757C302.753 207.544 305.579 205.787 308.027 203.573C309.336 202.456 310.609 201.253 312.002 200.04C313.456 198.685 315.107 197.557 316.9 196.696C318.082 196.168 319.363 195.891 320.658 195.882C321.307 195.879 321.953 195.95 322.585 196.093C322.982 196.167 323.37 196.28 323.744 196.43C324.129 196.567 324.519 196.69 324.89 196.86C325.398 197.063 325.857 197.371 326.235 197.765C326.614 198.159 326.903 198.63 327.085 199.143C327.375 200.218 327.26 201.36 326.766 202.356C326.53 202.882 326.257 203.391 325.947 203.877C325.695 204.275 325.475 204.565 325.229 204.894C324.747 205.525 324.246 206.11 323.736 206.674C321.71 208.838 319.554 210.874 317.278 212.774C313.585 215.923 309.759 218.854 305.918 221.745C300.094 226.117 294.09 230.276 288.224 234.47C285.942 236.098 283.713 237.753 281.492 239.408L278.159 241.885L276.487 243.116L275.536 243.803L274.183 244.75C273.357 245.33 272.539 245.904 271.719 246.479C271.599 246.631 271.553 246.397 271.473 246.339L271.255 246.048L270.815 245.461L269.926 244.252C269.411 243.526 268.939 242.863 268.507 242.255C268.243 241.858 268.002 241.498 267.782 241.169C267.421 240.619 267.105 240.043 266.835 239.444C266.448 238.685 266.362 237.807 266.599 236.987C266.668 236.641 266.774 236.302 266.914 235.978C267.441 235.075 269.151 236.141 271.297 238.705L271.893 239.419C272.032 239.607 272.186 239.783 272.352 239.948C272.478 240.047 272.588 240.126 272.682 240.189C272.731 240.215 272.771 240.259 272.815 240.259L272.968 240.09C273.074 239.975 273.108 239.911 273.225 239.795L273.262 239.756L273.424 239.634L273.805 239.351L274.568 238.787L276.104 237.657C277.134 236.907 278.168 236.155 279.205 235.4C283.373 232.411 287.597 229.381 291.831 226.344C298.099 221.823 304.398 217.279 310.365 212.442L310.446 212.525Z" fill="#0B2330"/>
<path d="M338.211 394.87C312.251 411.588 283.711 424.649 253.539 431.819C238.463 435.499 223.036 437.553 207.522 437.949C199.751 438.131 191.977 437.792 184.25 436.935C176.484 436.112 168.808 434.599 161.311 432.414C155.764 430.84 150.404 428.674 145.322 425.954C140.266 423.153 135.232 419.722 131.865 414.262C130.218 411.535 129.281 408.44 129.138 405.26C129.008 402.236 129.316 399.208 130.052 396.27C131.526 390.682 133.675 385.292 136.453 380.221C145.876 362.537 158.365 347.133 168.173 330.354C170.636 326.256 172.706 321.937 174.36 317.453C175.135 315.316 175.628 313.089 175.829 310.825C176.041 308.766 175.658 306.689 174.724 304.84L174.35 304.204L174.011 303.774L173.56 303.376L173.007 303.006C172.096 302.517 171.126 302.148 170.121 301.91C167.86 301.396 165.553 301.11 163.235 301.056C158.397 300.944 153.557 301.125 148.741 301.6C129.262 303.367 109.851 307.026 90.0814 308.692C85.1023 309.139 80.1012 309.294 75.1038 309.157C72.5389 309.078 69.985 308.784 67.4692 308.279C66.1494 308.01 64.8601 307.61 63.6204 307.083C62.2557 306.529 61.0169 305.706 59.9777 304.664C58.8581 303.496 58.1558 301.992 57.9801 300.385C57.8498 298.94 57.987 297.483 58.3851 296.089C59.1401 293.567 60.2592 291.168 61.7072 288.969C64.4583 284.772 67.5523 280.808 70.9578 277.12C76.8654 270.574 83.1529 264.45 89.4697 258.38C95.7948 252.344 102.119 246.308 108.442 240.273C114.691 234.198 120.878 228.064 126.511 221.544C129.331 218.35 131.896 214.939 134.182 211.344C135.273 209.616 136.171 207.773 136.86 205.849C137.544 204.173 137.665 202.319 137.204 200.569C136.643 198.736 134.447 197.498 131.971 196.816C129.404 196.131 126.768 195.734 124.112 195.633C118.624 195.405 113.128 195.57 107.663 196.126C96.6487 197.138 85.6627 198.953 74.7317 200.997C52.8683 205.147 31.1722 210.3 9.62044 215.748C2.90406 217.459 -0.0661427 217.963 0.00111602 217.463C0.0639307 216.967 3.18243 215.477 8.71598 213.406C27.3273 206.734 46.4073 201.445 65.8 197.583C77.0094 195.339 88.282 193.333 99.7083 191.95C105.426 191.279 111.178 190.742 117.024 190.612C119.982 190.531 122.941 190.606 125.891 190.838C129.038 191.032 132.143 191.667 135.112 192.728C136.887 193.37 138.501 194.392 139.84 195.721C140.209 196.124 140.548 196.552 140.856 197.004C141.155 197.476 141.413 197.973 141.626 198.49C142.005 199.444 142.238 200.451 142.315 201.474C142.426 203.292 142.195 205.116 141.636 206.849C141.135 208.381 140.509 209.869 139.763 211.298C136.821 216.46 133.303 221.273 129.275 225.645C121.575 234.311 113.273 242.18 105.007 250.04C96.7372 257.884 88.3905 265.614 80.4857 273.68C76.5362 277.647 72.7959 281.817 69.28 286.173C67.5847 288.283 66.05 290.518 64.689 292.856C63.4137 294.836 62.651 297.101 62.4694 299.448C62.4533 300.219 62.7336 300.967 63.2525 301.537C63.9755 302.25 64.8516 302.789 65.8143 303.114C68.2673 303.948 70.8252 304.436 73.4136 304.562C78.9893 304.861 84.5794 304.749 90.1385 304.224C101.425 303.3 112.754 301.673 124.131 300.176C130.937 299.276 137.794 298.375 144.734 297.674C151.776 296.829 158.877 296.584 165.96 296.943C167.831 297.079 169.687 297.379 171.506 297.839C173.608 298.324 175.545 299.352 177.123 300.821C180.146 304.417 180.466 308.735 179.991 312.518C179.42 316.189 178.337 319.762 176.776 323.135C175.308 326.414 173.664 329.61 171.849 332.71C164.67 345.025 156.285 356.39 148.767 368.208C144.96 374.021 141.529 380.07 138.493 386.319C137.025 389.382 135.811 392.56 134.86 395.822C133.914 398.944 133.522 402.207 133.704 405.464C133.994 412.498 139.944 417.603 146.24 421.341C152.83 424.98 159.891 427.695 167.223 429.41C174.614 431.212 182.141 432.407 189.728 432.983C191.631 433.099 193.527 433.304 195.435 433.349L201.155 433.529C204.973 433.499 208.793 433.527 212.608 433.283C216.428 433.171 220.23 432.74 224.041 432.435C227.831 431.928 231.642 431.57 235.407 430.882C242.978 429.749 250.441 428 257.866 426.137C272.67 422.137 287.097 416.857 300.982 410.356C303.144 409.409 305.244 408.33 307.35 407.267C309.452 406.196 311.579 405.172 313.661 404.061L319.863 400.644C320.894 400.069 321.937 399.515 322.957 398.924L325.992 397.099L332.062 393.45L338 389.587C341.997 387.068 345.809 384.275 349.671 381.555C364.94 370.386 379.438 358.203 393.068 345.089C413.863 325.343 433.392 304.176 452.441 282.675C471.473 261.149 490.003 239.237 508.599 217.6C523.06 200.778 537.461 184.176 552.326 168.053C567.08 151.798 582.711 136.357 599.148 121.798C606.479 115.437 613.872 109.444 621.873 103.741C628.108 99.262 634.609 95.1653 641.342 91.4742C645.933 88.9377 650.686 86.7048 655.57 84.7903C660.903 82.56 666.525 81.0918 672.269 80.4289C673.994 80.2378 675.725 80.1373 677.46 80.1279C678.35 80.1785 678.124 80.4595 676.901 80.9393C675.679 81.4244 673.447 82.0466 670.388 83.1045C661.015 86.2483 651.978 90.311 643.407 95.2331C634.93 100.074 626.798 105.496 619.07 111.459C611.239 117.413 603.661 123.815 596.278 130.52C581.506 143.928 567.423 158.428 553.633 173.4C526.076 203.387 499.645 235.25 472.475 266.654C452.298 289.974 431.751 313.15 409.851 335.145C398.899 346.137 387.584 356.806 375.747 366.916C369.83 371.97 363.756 376.847 357.526 381.546C354.442 383.933 351.209 386.119 348.042 388.393C344.897 390.7 341.592 392.777 338.337 394.925L338.211 394.87Z" fill="#0B2330"/>
<path d="M412.761 147.365C407.722 155.64 404.322 164.804 402.746 174.36C401.143 183.967 401.224 193.779 402.984 203.359C404.302 210.326 406.588 217.074 409.777 223.41C411.151 226.204 412.723 228.896 414.483 231.465C416.216 234.044 418.152 236.484 420.27 238.759C422.378 241.036 424.664 243.14 427.108 245.052C429.563 246.936 432.182 248.597 434.934 250.014C440.443 252.878 446.501 254.539 452.703 254.884C458.905 255.23 465.11 254.253 470.904 252.018C481.257 248.055 489.965 240.216 496.02 231.009C499.914 225.039 502.916 218.535 504.931 211.7C505.95 208.286 506.776 204.819 507.404 201.313C508.007 197.801 508.427 194.258 508.698 190.698C508.942 186.271 510.121 186.789 511.198 190.699C512.607 197.267 512.377 204.078 510.526 210.535C508.548 218.038 505.443 225.2 501.317 231.776C497.188 238.437 491.872 244.287 485.63 249.035C479.311 253.846 471.962 257.132 464.159 258.634C456.329 260.082 448.259 259.54 440.694 257.058C431.644 254 423.511 248.716 417.047 241.694C410.557 234.718 405.537 226.511 402.284 217.562C395.18 197.948 395.4 176.434 402.906 156.969C407.562 145.198 415.112 134.339 425.46 126.787C429.369 123.909 433.663 121.592 438.217 119.903C447.391 116.518 457.393 116.062 466.839 118.6C471.493 119.865 475.943 121.786 480.055 124.303C486.362 128.188 491.914 133.178 496.442 139.034C500.973 144.822 504.603 151.26 507.207 158.13C508.386 161.132 509.369 164.206 510.151 167.335C511.222 171.482 511.827 175.734 511.954 180.014C512.069 181.962 511.751 183.911 511.022 185.72C510.806 186.306 510.536 186.871 510.217 187.407C509.752 187.971 509.299 187.051 508.907 184.956C508.496 182.864 508.065 179.593 507.314 175.452C505.202 162.918 500.009 151.102 492.2 141.064C488.242 136.057 483.457 131.763 478.05 128.365C472.673 124.981 466.636 122.777 460.339 121.9C450.908 120.675 441.335 122.585 433.098 127.333C424.765 132.21 417.807 139.115 412.871 147.404L412.761 147.365Z" fill="#0B2330"/>
<path d="M358.145 365.939C363.088 357.523 366.294 348.204 367.571 338.531C368.864 328.804 368.369 318.925 366.11 309.376C364.422 302.434 361.732 295.775 358.124 289.606C351.88 278.765 342.539 269.482 331.023 264.517C325.279 261.992 319.084 260.649 312.808 260.571C306.533 260.492 300.305 261.677 294.499 264.056C284.138 268.519 275.406 276.062 269.493 285.657C265.652 291.73 262.758 298.349 260.912 305.288C259.045 312.231 258.002 319.368 257.805 326.553C257.74 331.018 256.541 330.549 255.307 326.649C253.642 320.076 253.653 313.192 255.34 306.624C257.13 298.996 260.108 291.696 264.167 284.991C268.233 278.216 273.506 272.241 279.727 267.36C286.012 262.431 293.328 258.975 301.132 257.247C308.951 255.558 317.06 255.751 324.789 257.809C334.067 260.348 342.578 265.122 349.574 271.714C356.583 278.296 362.171 286.237 365.997 295.051C374.325 314.415 374.988 336.213 367.851 356.046C363.545 368.223 355.831 378.912 345.625 386.845C337.822 392.833 328.47 396.474 318.666 397.339C313.797 397.739 308.896 397.437 304.114 396.44C299.367 395.412 294.779 393.756 290.471 391.515C283.876 388.014 277.957 383.37 272.993 377.798C268.04 372.277 263.974 366.022 260.94 359.257C259.58 356.299 258.416 353.256 257.458 350.145C256.157 346.022 255.336 341.764 255.012 337.453C254.804 335.497 255.035 333.518 255.687 331.66C255.878 331.062 256.123 330.482 256.421 329.928C256.861 329.34 257.352 330.25 257.832 332.341C258.335 334.432 258.904 337.704 259.866 341.835C262.619 354.346 268.55 365.94 277.088 375.502C281.428 380.261 286.537 384.258 292.204 387.326C297.867 390.367 304.086 392.233 310.491 392.815C315.245 393.201 320.031 392.857 324.68 391.792C329.345 390.697 333.815 388.896 337.936 386.454C346.272 381.415 353.188 374.343 358.034 365.902L358.145 365.939Z" fill="#0B2330"/>
<path d="M346.27 213.742C315.158 178.802 281.52 193.135 281.52 193.135L279.071 177.318L238.885 184.651C238.885 184.651 242.342 184.436 242.774 207.945C242.969 218.58 250.44 224.36 258.592 227.502C268.674 231.27 279.836 230.925 289.664 226.54C306.065 219.399 309.972 228.84 326.825 243.074L346.27 213.742Z" fill="#0B2330"/>
<path d="M255.552 229.348C251.782 227.707 248.391 225.31 245.588 222.307C242.734 219.125 240.918 215.152 240.381 210.914C240.25 209.891 240.175 208.86 240.159 207.829L240.111 205.086C240.083 203.257 240.003 201.436 239.911 199.622C239.778 196.075 239.343 192.548 238.606 189.075C238.511 188.756 238.521 188.694 238.292 187.995C238.189 187.856 238.365 187.752 238.416 187.634L238.651 187.286L239.117 186.591L239.234 186.417C239.258 186.365 239.226 186.329 239.225 186.284L239.176 186.026L239.079 185.517C239.026 185.261 238.96 185.006 238.881 184.756C238.862 184.668 238.81 184.591 238.736 184.54L238.817 183.759L238.977 182.195L245.323 181.027L250.018 180.194L280.746 174.966L282.193 184.993L282.758 188.985L282.88 189.933C282.933 190.188 282.914 190.577 283.029 190.736C283.418 190.594 283.828 190.479 284.252 190.368L287.006 189.721L290.057 189.184L293.128 188.838C301.836 188.072 310.606 189.216 318.825 192.19C329.282 196.026 338.579 202.477 345.825 210.925C348.112 213.488 346.863 213.905 344.046 212.678C342.233 211.847 340.509 210.836 338.899 209.662C336.568 208.27 334.334 206.724 332.211 205.032C325.196 199.731 317.084 196.06 308.466 194.287C306.324 193.852 304.159 193.538 301.981 193.347C299.795 193.215 297.603 193.194 295.415 193.288C294.318 193.315 293.223 193.399 292.136 193.541C291.039 193.628 289.958 193.805 288.879 193.997C287.788 194.148 286.739 194.432 285.668 194.658C284.657 194.964 283.577 195.337 282.545 195.669C281.507 196.014 280.419 196.455 279.405 196.829C279.145 195.247 278.931 193.564 278.697 191.959L278.205 188.347C277.979 186.571 277.752 184.791 277.525 183.009L277.358 181.69L277.273 181.027C277.262 180.964 277.254 180.9 277.251 180.835L277.245 180.746C277.223 180.491 277.202 180.233 277.18 179.97L276.583 180.043L276.259 180.087L275.183 180.271C273.747 180.52 272.306 180.771 270.861 181.022C267.974 181.54 265.076 182.061 262.166 182.584C256.351 183.636 250.511 184.691 244.716 185.739L242.881 186.049L242.384 186.129L242.132 186.169C242.199 186.195 242.26 186.237 242.307 186.292C242.471 186.513 242.592 186.763 242.664 187.028C242.686 187.093 242.71 187.164 242.724 187.227L242.87 187.758C242.997 188.187 243.076 188.603 243.168 189.021C243.536 190.697 243.743 192.338 243.943 193.981C244.301 197.258 244.452 200.508 244.57 203.755C244.611 205.346 244.61 207.063 244.685 208.55C244.734 210.008 244.957 211.456 245.346 212.863C246.185 215.662 247.736 218.197 249.846 220.221C253.064 223.164 256.893 225.359 261.059 226.65C265.264 228.031 269.677 228.674 274.102 228.553C277.465 228.444 280.802 227.926 284.04 227.011C285.661 226.55 287.254 225.994 288.809 225.345C290.473 224.641 292.181 224.042 293.921 223.552C297.543 222.424 301.433 222.494 305.011 223.751C308.35 225.193 311.413 227.202 314.064 229.689C316.134 231.473 318.089 233.299 320.068 235.075C321.057 235.96 322.038 236.853 323.038 237.711L324.531 239.007L324.883 239.31L325.095 239.48L325.509 239.811L326.31 240.449C326.372 240.482 326.447 240.591 326.498 240.563L326.624 240.351L326.873 239.936L327.347 239.142L328.383 237.496C329.798 235.259 331.216 233.02 332.633 230.779C333.882 228.803 335.104 226.869 336.363 224.876C341.124 217.552 342.918 215.406 344.981 214.519C345.422 214.283 345.886 214.092 346.365 213.951C347.621 213.776 346.308 217.176 343.008 222.661C340.559 226.728 338.043 230.823 335.461 234.945C334.165 237 332.863 239.065 331.555 241.141C330.372 242.964 329.186 244.792 327.999 246.623L327.509 247.377C327.438 247.601 327.314 247.368 327.211 247.31L326.887 247.035L325.591 245.931L322.977 243.703L321.025 242.017L319.612 240.77L316.821 238.251C314.977 236.567 313.159 234.87 311.34 233.289C307.687 230.11 304.04 227.411 300.146 227.298C296.885 227.323 293.671 228.074 290.739 229.497C287.04 231.076 283.149 232.161 279.168 232.727C271.135 233.892 262.937 232.759 255.523 229.46L255.552 229.348Z" fill="#0B2330"/>
<path d="M311.757 321.923L306.286 297.794C305.614 294.86 304.81 291.961 304.151 289.028L297.226 257.981C296.182 253.394 295.004 248.813 293.814 244.3C293.265 242.277 292.717 240.252 292.167 238.226L291.364 235.182L290.333 230.972L292.03 229.6L292.847 228.948L293.387 228.534C294.109 227.986 294.84 227.452 295.582 226.93C296.925 225.988 297.53 226.69 297.341 228.151C297.191 229.076 296.893 229.971 296.459 230.802C296.193 231.326 295.901 231.835 295.581 232.329C295.568 232.442 295.597 232.555 295.663 232.649C295.729 232.742 295.826 232.809 295.937 232.835L295.982 232.841C295.986 232.852 295.979 232.816 295.994 232.866L296.038 233.021L296.12 233.334C299.13 245.207 301.87 257.136 304.208 269.275C305.607 276.533 307.641 283.948 309.357 291.304C311.224 299.397 313.091 307.492 314.959 315.589L316.148 320.749L316.732 323.439L318.584 321.963C321.544 319.543 324.506 317.122 327.472 314.698C330.469 312.24 333.45 309.773 336.379 307.282C340.934 303.408 345.223 299.402 349.626 295.455C350.595 294.586 351.516 293.702 352.509 292.843C356.191 289.663 357.578 288.908 359.168 289.179C359.531 289.207 359.89 289.274 360.237 289.378C361.206 289.807 360.189 291.68 357.635 294.178C350.062 301.59 341.592 308.83 333.015 316.012C326.696 321.241 320.363 326.481 314.014 331.735C313.226 328.479 312.437 325.22 311.648 321.96L311.757 321.923Z" fill="#0B2330"/>
<path d="M406.775 154.937C410.904 157.738 415.025 160.552 419.165 163.334C420.675 164.35 422.259 165.25 423.76 166.276C429.059 169.894 434.315 173.574 439.628 177.166C441.986 178.76 444.427 180.251 446.853 181.697C450.064 183.406 453.13 185.373 456.021 187.579C457.766 189.047 452.959 191.266 449.405 189.067C443.104 185.17 436.957 181.045 430.99 176.514C427.422 173.804 423.387 171.485 419.579 168.96C415.393 166.184 411.226 163.372 407.049 160.579C404.478 158.86 401.912 157.131 399.328 155.435C395.414 152.866 391.516 150.23 387.556 147.799C384.477 145.908 381.313 144.283 378.188 142.545C377.499 142.162 376.802 141.824 376.121 141.418C373.595 139.912 372.971 139.149 373.097 137.775C373.103 137.462 373.135 137.151 373.195 136.844C373.466 135.892 374.898 135.871 376.867 136.787C382.837 139.695 388.616 142.978 394.171 146.616C398.414 149.298 402.613 152.092 406.831 154.836L406.775 154.937Z" fill="#0B2330"/>
<path d="M388.723 121.288L343.639 161.991C341.933 163.458 339.727 164.212 337.478 164.093C335.23 163.974 333.114 162.994 331.572 161.356L321.994 149.709L340.863 132.599L355.452 118.355L386.235 97.3345L391.564 97.65L398.336 101.558L404.688 106.226L403.375 112.756L406.307 114.906L407.056 120.14L398.551 129.867" fill="white"/>
<path d="M357.541 120.414L357.308 120.569C357.3 120.574 357.29 120.578 357.281 120.582L345.346 131.903C344.331 132.856 343.339 133.831 342.308 134.766L339.177 137.528L332.922 143.057L328.329 147.212L326.04 149.295L325.613 149.674L325.316 149.92L325.278 149.951L325.659 150.48L327.197 152.42L330.553 156.644L332.231 158.758L333.07 159.816C333.283 160.07 333.521 160.304 333.777 160.516C334.836 161.415 336.151 161.961 337.537 162.075C338.943 162.187 340.348 161.857 341.555 161.131C341.856 160.951 342.143 160.751 342.416 160.532L343.436 159.641L345.477 157.858L353.629 150.715C358.465 146.463 363.241 142.088 367.933 137.749C373.962 132.174 379.858 126.403 386.279 121.27C390.284 118.069 388.452 125.713 381.451 132.095C375.247 137.748 368.991 143.348 362.682 148.893C359.507 151.648 356.33 154.406 353.147 157.168L348.333 161.273L345.914 163.318L345.307 163.828L344.48 164.444C343.918 164.821 343.323 165.15 342.703 165.423C340.193 166.522 337.367 166.673 334.753 165.848C333.455 165.437 332.245 164.788 331.182 163.938C330.904 163.725 330.642 163.493 330.397 163.243C330.157 163.023 329.934 162.785 329.731 162.53L328.696 161.257C325.485 157.348 322.255 153.413 319.038 149.495C320.77 147.937 322.492 146.387 324.205 144.845L336.949 133.533C339.104 131.679 341.153 129.714 343.2 127.747L349.362 121.865L354.39 117.064C358.364 114.405 362.337 111.748 366.308 109.092C372.827 104.707 379.369 100.306 385.849 95.9476C387.909 96.0701 389.951 96.1917 391.967 96.3114C393.047 96.9293 394.109 97.5368 395.169 98.1435C396.5 98.891 397.826 99.6359 399.12 100.363C401.592 102.104 404.043 103.829 406.471 105.539C406.215 106.977 405.959 108.41 405.704 109.838L405.565 110.659L405.464 111.283L405.373 111.985L406.037 112.407L408.083 113.845C408.213 114.656 408.343 115.464 408.473 116.269C408.729 117.782 408.982 119.272 409.239 120.787C408.681 121.444 408.111 122.114 407.535 122.791C403.213 127.853 401.584 129.243 399.718 129.512C399.306 129.61 398.886 129.663 398.463 129.671C397.327 129.527 398.521 126.97 401.518 123.118C402.119 122.352 402.722 121.583 403.327 120.811L404.242 119.655C404.331 119.519 404.359 119.452 404.411 119.36L404.316 119.095L404.092 117.908L403.855 116.603L403.78 116.417L403.655 116.363C403.63 116.353 403.605 116.342 403.583 116.327L403.076 115.973C402.138 115.308 401.197 114.639 400.249 113.966C400.553 112.308 400.861 110.634 401.171 108.944L401.318 108.122L401.391 107.71C401.399 107.679 401.404 107.647 401.405 107.615L401.404 107.6L401.39 107.501L401.278 107.461C400.763 107.096 400.247 106.728 399.727 106.36C398.704 105.627 397.674 104.89 396.639 104.149C394.667 103.032 392.654 101.891 390.633 100.746C389.48 100.683 388.304 100.618 387.127 100.553V100.555L386.991 100.648L385.953 101.358C376.53 107.724 367.085 114.105 357.618 120.501L357.541 120.414Z" fill="#0B2330"/>
<path d="M395.897 110.857C393.997 109.395 391.639 108.649 389.242 108.753C388.728 108.805 388.226 108.929 387.748 109.123C387.251 109.325 386.789 109.602 386.378 109.946L382.751 112.745C380.988 114.109 379.314 115.578 377.546 116.93L358.801 131.204C356.043 133.33 353.352 135.57 350.716 137.804C347.439 140.812 343.966 143.6 340.318 146.149C337.975 147.651 337.896 141.993 341.836 138.742C348.825 132.979 355.979 127.434 363.478 122.176C367.962 119.031 372.252 115.298 376.654 111.854L383.991 106.155C384.76 105.575 385.614 105.115 386.522 104.792C387.414 104.492 388.342 104.311 389.282 104.254C391.065 104.17 392.847 104.442 394.524 105.052C395.518 105.416 396.478 105.871 397.389 106.41C397.839 106.683 398.281 106.971 398.704 107.287L399.857 108.159L404.373 111.594L406.087 112.89L406.945 113.539C407.319 113.809 407.664 114.117 407.975 114.457C408.632 115.212 409.054 116.142 409.19 117.132C409.327 118.122 409.173 119.131 408.745 120.035C408.639 120.257 408.516 120.471 408.378 120.676C408.247 120.88 408.097 121.072 407.929 121.249L407.215 122.05L405.793 123.655C404.857 124.733 403.922 125.809 402.99 126.882C402.272 127.722 401.569 128.568 400.879 129.42C400.404 130.001 399.865 130.657 399.325 131.21L399.122 131.429C399.043 131.475 398.931 131.433 398.837 131.438L398.249 131.4C397.856 131.372 397.459 131.326 397.056 131.258C396.667 131.186 396.233 131.1 395.872 130.998C395.557 130.917 395.246 130.819 394.941 130.703C394.284 130.467 393.661 130.144 393.09 129.741C392.438 129.284 391.89 128.695 391.482 128.012C391.265 127.652 391.093 127.267 390.966 126.866C390.858 126.469 390.778 126.064 390.729 125.655C390.653 124.4 390.842 123.143 391.284 121.966C391.817 120.401 392.914 119.09 394.362 118.289C394.714 118.084 395.113 117.975 395.519 117.974C395.926 117.973 396.327 118.079 396.679 118.283C396.98 118.423 397.254 118.616 397.487 118.852C398.096 119.675 397.078 120.671 396.089 122.248C395.739 122.825 395.502 123.462 395.388 124.127C395.326 124.452 395.297 124.783 395.301 125.114C395.326 125.222 395.318 125.342 395.338 125.432C395.371 125.498 395.399 125.568 395.419 125.64C395.612 125.891 395.867 126.089 396.159 126.213C396.549 126.445 397.578 126.715 397.362 126.601C397.387 126.585 397.412 126.586 397.415 126.548L397.422 126.509L397.424 126.493C397.426 126.487 397.4 126.513 397.516 126.375L399.504 124.025C400.849 122.468 402.198 120.908 403.55 119.343C403.994 118.826 404.788 117.946 404.589 118.143C404.646 118.045 404.671 117.931 404.661 117.818C404.65 117.701 404.605 117.59 404.531 117.499C404.512 117.475 404.491 117.453 404.466 117.433C404.415 117.387 404.36 117.344 404.303 117.305L404.072 117.132L403.149 116.438L395.838 110.955L395.897 110.857Z" fill="#0B2330"/>
<path d="M401.95 113.51C402.721 113.068 403.439 112.542 404.093 111.94C405.063 111.153 405.856 110.17 406.421 109.056C406.708 108.512 406.865 107.908 406.879 107.292C406.892 106.676 406.762 106.066 406.499 105.509C406.392 105.373 406.295 105.228 406.209 105.077L405.834 104.684C405.701 104.554 405.54 104.44 405.389 104.314L405.039 104.026C404.689 103.733 404.32 103.425 403.933 103.1C402.368 101.813 400.435 100.305 398.008 98.4756C396.36 96.9982 394.37 95.9548 392.217 95.4401C390.064 94.9253 387.816 94.9555 385.677 95.5278C384.434 95.9106 383.263 96.4978 382.214 97.2653C381.32 97.9078 380.407 98.5644 379.494 99.2202C377.717 100.505 375.946 101.786 374.346 102.943C374.346 102.943 365.298 109.269 360.474 112.768C340.369 127.353 329.126 140.964 340.226 133.321C352.967 124.549 377.952 106.178 377.952 106.178C379.496 105.025 381.039 103.874 382.58 102.724L384.832 101.033C385.4 100.566 386.044 100.199 386.735 99.9473C388.143 99.4438 389.668 99.3647 391.12 99.7199C391.874 99.898 392.604 100.165 393.295 100.515C394.038 100.934 394.753 101.399 395.435 101.909C398.063 103.753 400.423 105.362 402.471 106.709L402.852 106.959L403.029 107.074L403.097 107.108C403.193 107.15 403.285 107.203 403.369 107.265C403.438 107.34 403.49 107.428 403.521 107.524C403.553 107.62 403.562 107.722 403.55 107.823C403.55 107.94 403.536 108.058 403.507 108.172L403.34 108.74C403.209 109.118 403.067 109.482 402.924 109.825C401.686 112.573 401.022 113.864 401.95 113.51Z" fill="#0B2330"/>
<path d="M349.806 174.921C352.844 172.259 355.892 169.606 358.915 166.928C360.018 165.951 361.026 164.875 362.137 163.909C366.057 160.499 370.027 157.144 373.926 153.714C375.655 152.192 377.303 150.565 378.908 148.938C380.848 146.721 383.006 144.704 385.35 142.918C386.89 141.883 388.27 146.701 385.847 149.06C381.55 153.277 377.008 157.237 372.244 160.918C369.359 163.129 366.766 165.862 364.017 168.336C360.994 171.056 357.941 173.749 354.904 176.456C353.035 178.122 351.158 179.781 349.308 181.465C346.507 184.016 343.646 186.534 340.961 189.168C338.874 191.216 337.014 193.42 335.057 195.556C334.625 196.027 334.235 196.518 333.783 196.975C332.111 198.669 331.348 198.965 330.13 198.427C329.846 198.322 329.571 198.196 329.306 198.05C328.487 197.519 328.65 196.284 329.721 194.883C333.082 190.683 336.765 186.751 340.738 183.123C343.683 180.325 346.725 177.599 349.723 174.841L349.806 174.921Z" fill="#0B2330"/>
<path d="M280.742 76.1938C278.534 77.8471 276.297 78.5322 275.182 76.3801C274.961 75.9603 274.847 75.4939 274.845 75.0203C274.844 74.5467 274.956 74.0796 275.173 73.6585C275.39 73.2373 275.705 72.8743 276.092 72.6001C276.478 72.3258 276.926 72.1483 277.396 72.0826C279.41 72.1423 283.4 72.1991 284.559 72.035C284.586 72.0311 284.592 72.0665 284.572 72.0868C283.39 73.5403 282.11 74.9124 280.742 76.1938Z" fill="#0B2330"/>
<path d="M280.795 76.1545C281.023 76.0863 281.244 75.9923 281.451 75.8742C282.013 75.5556 282.518 75.1452 282.944 74.66C283.255 74.3294 283.613 73.947 284.051 73.4825C284.249 73.2615 284.48 73.0247 284.675 72.7872C284.86 72.5562 285.178 72.2497 285.099 72.1441L285.113 71.9105C285.112 71.8644 285.132 71.844 285.094 71.7793L285.039 71.7118C284.961 71.6272 284.866 71.561 284.759 71.5179C284.653 71.4749 284.538 71.456 284.423 71.4628C283.969 71.5113 283.437 71.5288 283.04 71.5425L282.254 71.5588C281.179 71.5745 279.884 71.5411 278.819 71.5324C278.819 71.5324 278.633 71.5259 278.329 71.5157C278.177 71.5099 277.995 71.5032 277.793 71.4958C277.537 71.4783 277.281 71.4798 277.027 71.5005C276.444 71.6233 275.902 71.8938 275.453 72.2859C275.005 72.6779 274.665 73.1785 274.466 73.7396C274.291 74.1921 274.215 74.6768 274.243 75.1609C274.272 75.6451 274.404 76.1177 274.63 76.5467C274.813 76.9404 275.086 77.2855 275.427 77.5544C275.768 77.8232 276.168 78.0081 276.594 78.0943C277.267 78.184 277.953 78.0569 278.549 77.7314C278.978 77.5166 279.376 77.246 279.733 76.9265C280.321 76.402 280.569 76.0083 280.525 75.9066C280.472 75.7915 280.126 75.9794 279.385 76.4074C278.568 76.8702 277.302 77.4113 276.47 76.9243C276.022 76.6251 275.699 76.1716 275.565 75.6505C275.414 75.1307 275.452 74.5749 275.671 74.0799C275.862 73.6252 276.179 73.2344 276.585 72.9534C276.746 72.8476 276.924 72.7705 277.112 72.7258C277.291 72.6911 277.475 72.6817 277.657 72.6978L279.038 72.7199C279.837 72.7158 280.634 72.7116 281.427 72.7075L282.617 72.6796L283.133 72.6586L283.224 72.6447L283.367 72.6203C283.394 72.6342 283.341 72.6721 283.326 72.7033C283.419 72.6197 282.653 73.5241 282.307 73.9853C281.916 74.4931 281.587 74.9216 281.319 75.2708C280.799 75.9138 280.535 76.1878 280.795 76.1545Z" fill="#0B2330"/>
<path d="M286.993 64.8779C285.949 64.7947 283.871 63.5595 284.553 62.0697C284.684 61.7779 284.885 61.5222 285.137 61.3238C285.388 61.1255 285.684 60.9904 285.999 60.9299C286.314 60.8694 286.639 60.8853 286.946 60.9763C287.254 61.0673 287.535 61.2306 287.766 61.4526C288.872 62.7222 290.072 63.9075 291.355 64.9989C291.359 65.0022 291.362 65.0066 291.363 65.0114C291.364 65.0163 291.364 65.0214 291.363 65.0261C291.361 65.0309 291.358 65.035 291.354 65.0381C291.35 65.0411 291.345 65.0429 291.34 65.0432C289.889 65.1277 288.433 65.0723 286.993 64.8779Z" fill="#0B2330"/>
<path d="M287.037 64.8863C287.164 65.0538 287.309 65.2077 287.469 65.3454C287.551 65.431 287.64 65.5096 287.735 65.5802C287.856 65.6747 287.995 65.7448 288.142 65.7868C288.687 65.96 289.249 66.0747 289.818 66.1292C290.531 66.2667 291.268 66.2103 291.952 65.9657C292.181 65.8442 292.359 65.6453 292.456 65.4045C292.519 65.1324 292.499 64.8473 292.397 64.587C292.281 64.1782 291.468 63.5766 290.92 63.0311C290.446 62.5754 289.976 62.1225 289.548 61.7116C289.548 61.7116 289.2 61.3352 288.855 60.8828L288.715 60.6941C288.609 60.5546 288.489 60.4271 288.355 60.3139C288.105 60.1017 287.819 59.9363 287.509 59.8257C287.012 59.6518 286.48 59.6003 285.958 59.6756C285.51 59.7371 285.082 59.8988 284.705 60.1486C284.328 60.3984 284.013 60.7299 283.782 61.1184C283.559 61.4755 283.435 61.8847 283.422 62.305C283.408 62.7253 283.505 63.1417 283.705 63.5123C284.002 64.0008 284.459 64.3721 284.998 64.5639C285.354 64.6981 285.735 64.7553 286.115 64.7319C286.757 64.6887 287.036 64.382 287.049 64.1618C287.062 63.9201 286.999 63.7905 286.592 63.5785C286.346 63.4483 286.12 63.2841 285.92 63.0906C285.73 62.8992 285.637 62.6972 285.659 62.6702C285.65 62.6531 285.674 62.6406 285.683 62.5876C285.723 62.5052 285.776 62.4301 285.841 62.3657C285.979 62.233 286.158 62.1515 286.348 62.135C286.494 62.1149 286.643 62.1352 286.778 62.1936C286.779 62.2044 286.785 62.1897 286.782 62.1965C286.786 62.2031 286.776 62.1825 286.797 62.2071L286.892 62.3268C287.015 62.4845 287.144 62.6235 287.253 62.7477C287.697 63.2305 287.973 63.4886 287.973 63.4886L288.182 63.6831C288.202 63.6969 288.198 63.6877 288.207 63.6922L288.255 63.7063C288.303 63.7261 288.352 63.7491 288.398 63.7751L288.616 63.9029C288.72 63.9695 288.626 63.972 288.617 64.0027C288.544 64.0573 288.467 64.1054 288.385 64.1465C288.204 64.2476 288.003 64.308 287.796 64.3234C287.177 64.4409 286.894 64.6369 287.037 64.8863Z" fill="#0B2330"/>
<path d="M384.605 193.964C385.103 190.197 385.616 186.434 386.092 182.665C386.266 181.291 386.303 179.905 386.49 178.532C387.15 173.693 387.883 168.861 388.512 164.019C388.792 161.87 388.941 159.698 389.058 157.552C389.032 154.781 389.302 152.015 389.864 149.302C390.325 147.617 394.563 150.187 394.322 153.359C393.918 159.006 393.159 164.622 392.049 170.174C391.366 173.524 391.247 177.065 390.84 180.519C390.392 184.316 389.903 188.112 389.435 191.908C389.147 194.245 388.848 196.581 388.588 198.919C388.192 202.46 387.73 206.013 387.477 209.54C387.28 212.283 387.358 214.995 387.317 217.721C387.309 218.321 387.343 218.911 387.31 219.514C387.188 221.749 386.814 222.43 385.547 222.799C385.264 222.899 384.974 222.98 384.681 223.04C383.716 223.168 383.015 222.189 382.884 220.534C382.599 215.481 382.735 210.414 383.289 205.384C383.627 201.579 384.086 197.766 384.491 193.958L384.605 193.964Z" fill="#0B2330"/>
<path d="M342.875 141.635C343.039 141.404 343.164 141.138 343.307 140.888C343.93 139.786 343.814 139.25 342.725 138.328C342.475 138.117 342.249 137.788 341.982 137.601C341.712 137.223 341.413 136.866 341.087 136.533C339.585 135.173 335.515 137.444 336.098 138.42C336.866 139.426 337.766 140.323 338.774 141.087C339.308 141.436 339.849 141.771 340.409 142.074C340.796 142.334 341.27 142.434 341.731 142.353C342.191 142.271 342.602 142.014 342.875 141.635Z" fill="#0B2330"/>
<path d="M339.548 117.773C352.926 114.415 360.859 100.132 357.268 85.8694C353.676 71.6072 339.919 62.767 326.541 66.1243C313.164 69.4817 305.23 83.7651 308.821 98.0273C312.413 112.29 326.17 121.13 339.548 117.773Z" fill="white"/>
<path d="M312.8 81.5157C311.293 84.9194 310.555 88.612 310.637 92.3321C310.704 95.5936 311.415 98.8098 312.727 101.797C314.041 104.784 315.931 107.484 318.29 109.742C321.749 113.188 326.202 115.465 331.024 116.255C333.436 116.657 335.899 116.62 338.297 116.146C340.721 115.708 343.049 114.848 345.174 113.606C348.977 111.344 351.996 107.975 353.826 103.952C356.051 98.7663 356.772 93.0611 355.907 87.4862C355.716 85.7505 356.895 85.5955 358.35 86.9523C358.767 87.3511 359.142 87.7895 359.474 88.261C359.839 88.8622 360.152 89.4925 360.412 90.1456C360.727 90.9074 360.94 91.7081 361.043 92.5263C361.111 92.9587 361.163 93.407 361.201 93.8673C361.212 94.3268 361.185 94.7982 361.15 95.278C360.692 102.196 357.71 108.705 352.767 113.576C350.298 115.984 347.368 117.87 344.152 119.121C340.936 120.372 337.499 120.962 334.049 120.856C329.938 120.7 325.903 119.692 322.201 117.897C318.492 116.101 315.233 113.495 312.669 110.272C309.883 106.77 307.913 102.692 306.905 98.3353C305.923 94.0016 305.901 89.506 306.84 85.1631C308.01 79.8176 310.725 74.9324 314.648 71.113C317.636 68.2763 321.267 66.2022 325.231 65.0671C329.195 63.9321 333.374 63.7697 337.414 64.5937C343.649 65.8169 349.29 69.0982 353.429 73.9096C354.353 74.9516 355.197 76.0624 355.952 77.2325C356.515 78.1785 357.018 79.158 357.459 80.1654C357.726 80.866 357.942 81.5849 358.105 82.3165C358.318 83.2247 358.16 84.1798 357.669 84.9727C357.502 85.2906 357.298 85.5865 357.059 85.8536C356.665 86.1907 356.132 85.9315 355.554 85.2294C355.214 84.7977 354.914 84.3365 354.657 83.8512C354.25 83.2356 353.88 82.5968 353.549 81.938C352.332 79.8216 350.874 77.853 349.202 76.0718C347.487 74.3364 345.547 72.8363 343.435 71.611C339.208 69.1487 334.283 68.1532 329.429 68.7795C325.844 69.3269 322.452 70.7586 319.56 72.9449C316.683 75.2401 314.402 78.1922 312.908 81.5523L312.8 81.5157Z" fill="#0B2330"/>
<path d="M352.206 79.1831C352.206 79.1831 364.973 76.4458 367.762 81.7713C373.103 91.9698 355.932 91.6219 355.932 91.6219" fill="white"/>
<path d="M365.805 85.909C366.028 85.5728 366.128 85.1687 366.085 84.767C366.026 84.1095 365.86 83.4659 365.594 82.8615C365.512 82.7357 365.419 82.6178 365.345 82.4845C365.195 82.3901 365.064 82.2689 364.958 82.1272C363.409 80.9381 361.531 80.2546 359.579 80.1698C358.588 80.0825 357.59 80.1267 356.612 80.301C355.38 80.678 354.091 80.8296 352.806 80.7484C352.42 80.6673 352.183 79.5034 352.322 78.2991C352.459 77.0938 352.969 75.8706 353.796 75.7274C356.805 75.1579 359.912 75.3812 362.809 76.3755C363.274 76.5383 363.734 76.6995 364.197 76.8615C364.687 77.0115 365.169 77.1879 365.641 77.3899C366.711 77.7871 367.679 78.418 368.474 79.2365C368.914 79.743 369.292 80.3014 369.596 80.899C369.819 81.4018 370.009 81.918 370.166 82.4445C370.541 83.588 370.655 84.8002 370.503 85.9935C370.25 87.537 369.426 88.9296 368.194 89.8958C366.59 91.0265 364.774 91.821 362.853 92.2314C361.485 92.6106 360.17 93.1269 358.792 93.4518C358.493 93.5409 358.19 93.6142 357.884 93.6714C356.735 93.8144 356.337 93.4928 356.097 92.2685C356.033 91.9915 355.983 91.7113 355.948 91.429C355.881 91.0236 355.946 90.6071 356.134 90.2415C356.322 89.876 356.625 89.5811 356.994 89.4007C359.127 88.4829 361.361 88.07 363.192 87.4009C364.167 87.1637 365.044 86.6271 365.698 85.867L365.805 85.909Z" fill="#0B2330"/>
<path d="M304.35 101.181L349.63 69.0111C349.63 69.0111 331.683 52.0807 311.248 66.2564C295.381 77.2634 304.35 101.181 304.35 101.181Z" fill="#F9C600"/>
<path d="M324.07 58.0744C327.839 57.5967 331.664 57.8441 335.339 58.8031C338.93 59.7385 342.363 61.1977 345.527 63.1337C346.113 63.4611 346.663 63.8448 347.228 64.2033C347.666 64.4728 348.09 64.7648 348.497 65.0783L349.796 66.0583C350.701 66.7011 351.392 67.4079 352.191 68.0867L352.764 68.6049L353.052 68.8665L353.197 68.9996L353.269 69.0661C353.269 69.0873 353.227 69.1066 353.208 69.1269L352.013 70.0871C350.697 71.2072 348.97 72.3252 347.442 73.3869L344.678 75.2381L339.148 78.9355L328.108 86.3572C324.853 88.5658 321.655 90.895 318.518 93.2173C314.587 96.3471 310.474 99.2431 306.202 101.89C303.476 103.45 304.126 97.534 308.812 94.151C317.116 88.1542 325.573 82.3863 334.359 76.9235C336.985 75.2902 339.58 73.5021 342.168 71.675L345.256 69.4828L345.888 69.0415C345.917 69.0031 346.053 68.9709 345.995 68.927L345.857 68.8008L345.574 68.5536C345.355 68.3712 345.156 68.2032 344.88 68.011C344.25 67.5782 343.531 67.1059 342.825 66.7105C342.128 66.2734 341.396 65.9039 340.66 65.5383C339.933 65.1614 339.185 64.8238 338.42 64.5271C335.396 63.2842 332.185 62.5525 328.921 62.362C324.874 62.1771 320.843 62.9727 317.172 64.6808C315.747 65.2883 314.378 66.0164 313.077 66.8569C311.749 67.6067 310.522 68.5212 309.425 69.5786C307.245 71.6867 305.61 74.2904 304.657 77.1671C303.338 81.7034 303.134 86.4903 304.061 91.1223C304.224 92.1505 304.468 93.1431 304.681 94.1696C305.515 97.9711 305.682 99.1791 304.753 100.382C304.573 100.669 304.37 100.941 304.146 101.195C303.405 101.907 301.998 100.534 300.996 97.5768C299.433 93.019 298.739 88.2095 298.949 83.3967C299.138 78.1264 300.915 73.0354 304.048 68.7895C305.268 67.1999 306.691 65.7759 308.281 64.5537L309.478 63.6673L310.695 62.9352L313.138 61.4857C313.98 61.0368 314.848 60.6358 315.735 60.2846L317.055 59.7196L317.715 59.4395L318.411 59.2395L321.193 58.4549C322.133 58.2371 323.085 58.0727 324.044 57.9624L324.07 58.0744Z" fill="#0B2330"/>
<path d="M348.314 88.9855C349.883 88.9855 351.154 87.7161 351.154 86.15C351.154 84.584 349.883 83.3146 348.314 83.3146C346.745 83.3146 345.473 84.584 345.473 86.15C345.473 87.7161 346.745 88.9855 348.314 88.9855Z" fill="#0B2330"/>
<path d="M351.155 86.0994C351.237 85.9384 351.29 85.7648 351.314 85.5859C351.358 85.2786 351.332 84.9653 351.24 84.669C351.148 84.3726 350.99 84.1005 350.779 83.8724C350.409 83.4242 349.92 83.0892 349.369 82.9057C348.548 82.6319 347.653 82.6851 346.871 83.0541C346.421 83.2622 346.023 83.5653 345.702 83.9426C345.382 84.3199 345.147 84.7623 345.016 85.2391C344.872 85.7061 344.837 86.1994 344.914 86.6816C345.039 87.5198 345.47 88.2826 346.122 88.824C346.629 89.2377 347.251 89.4844 347.904 89.5307C348.556 89.5769 349.207 89.4201 349.766 89.0819C350.13 88.8668 350.436 88.5688 350.661 88.2124C350.887 87.856 351.024 87.4513 351.063 87.0316C351.087 86.4508 350.897 86.1601 350.796 86.1469C350.667 86.1309 350.629 86.3751 350.46 86.8587C350.338 87.1855 350.144 87.4807 349.891 87.7222C349.639 87.9638 349.335 88.1455 349.004 88.2541C348.672 88.3591 348.321 88.3858 347.978 88.3321C347.635 88.2785 347.309 88.1458 347.026 87.9447C346.743 87.7435 346.511 87.4795 346.348 87.1733C346.185 86.8673 346.095 86.5274 346.085 86.1808C346.077 85.924 346.115 85.6677 346.198 85.4242C346.385 84.8562 346.784 84.3825 347.314 84.1029C347.843 83.8233 348.461 83.7594 349.036 83.9248C349.418 84.0432 349.77 84.2436 350.066 84.5121C350.362 84.7805 350.596 85.1104 350.751 85.4787C350.964 85.9827 351.028 86.2635 351.155 86.0994Z" fill="#0B2330"/>
<path d="M344.787 101.46C344.651 101.755 344.621 102.088 344.703 102.403C344.927 103.857 346.394 104.487 348.89 104.033C349.454 103.945 350.227 103.868 350.611 103.763C350.611 103.763 350.93 103.755 351.332 103.744C351.729 103.739 352.207 103.732 352.543 103.727C353.927 103.496 355.195 102.816 356.153 101.793C356.6 101.403 356.993 100.956 357.322 100.464C357.362 100.357 357.379 100.243 357.374 100.129C357.368 100.015 357.338 99.9039 357.288 99.8019C357.236 99.6999 357.165 99.6095 357.077 99.5363C356.99 99.4631 356.888 99.4087 356.778 99.3764C355.347 98.8533 353.819 98.6416 352.298 98.7554C351.422 98.7977 350.553 98.9187 349.699 99.1169C349.401 99.1965 349.159 99.2687 348.955 99.3363L348.299 99.5398C347.862 99.6763 347.445 99.7835 347.036 99.8902C346.523 99.9727 346.041 100.192 345.643 100.526C345.577 100.595 345.515 100.669 345.458 100.747C345.422 100.784 345.402 100.827 345.37 100.868C345.318 100.93 345.256 101.018 345.201 101.075C345.152 101.123 345.086 101.196 345.028 101.245L344.989 101.276L344.971 101.289L344.964 101.295L345.119 101.171L345.118 101.172L345.117 101.175L345.114 101.18C345.099 101.204 345.08 101.227 345.058 101.245C344.971 101.318 344.85 101.351 344.787 101.46Z" fill="#0B2330"/>
<path d="M371.932 56.6747C372.375 56.3866 372.881 56.2069 373.406 56.1501C373.932 56.0933 374.464 56.161 374.959 56.3478C375.454 56.5345 375.898 56.835 376.255 57.225C376.612 57.6149 376.872 58.0833 377.013 58.5922C377.685 61.1402 375.682 62.1426 373.942 62.1426C370.997 62.1726 368.051 62.0124 365.126 61.663C365.075 61.6577 365.074 61.5751 365.115 61.5451C366.382 60.6313 370.549 57.6307 371.932 56.6747Z" fill="#0B2330"/>
<path d="M371.867 56.7191C371.609 56.7997 371.356 56.8946 371.109 57.0033C370.298 57.3451 369.526 57.7711 368.805 58.2742C368.267 58.6244 367.625 59.0623 366.836 59.6149C366.739 59.8192 362.89 61.7782 365.306 62.2428C365.813 62.3255 366.678 62.404 366.877 62.4239C367.218 62.4558 367.567 62.4884 367.915 62.5209C368.614 62.5817 369.312 62.6285 369.944 62.6516C369.944 62.6516 370.825 62.6879 371.943 62.7341L373.714 62.7623C374.33 62.7884 374.946 62.7027 375.531 62.5094C376.089 62.3262 376.59 62.0045 376.99 61.5745C377.379 61.1422 377.621 60.598 377.682 60.0197C377.769 59.0524 377.495 58.0873 376.913 57.309C376.437 56.6756 375.745 56.2381 374.967 56.0791C374.409 55.9567 373.83 55.9766 373.28 56.1371C372.381 56.4173 372.094 56.8867 372.137 56.9709C372.196 57.1016 372.501 56.862 373.398 56.7526C373.854 56.6877 374.321 56.7396 374.753 56.9034C375.183 57.0672 375.567 57.3376 375.866 57.6893C376.164 58.041 376.369 58.4626 376.459 58.9145C376.55 59.3664 376.525 59.834 376.386 60.2735C376.251 60.547 376.057 60.7873 375.818 60.9772C375.579 61.1671 375.301 61.3019 375.003 61.372C374.364 61.5215 373.705 61.5735 373.05 61.5261C372.395 61.5191 371.805 61.5128 371.312 61.5075C370.327 61.4757 369.722 61.4561 369.722 61.4561L367.918 61.3554L367.016 61.2863L366.661 61.2581L366.61 61.2593L366.481 61.2589C366.451 61.2349 366.512 61.2149 366.53 61.187L366.58 61.1435C366.628 61.0988 366.681 61.058 366.738 61.0214L367.458 60.4883C370.711 58.078 372.435 56.6055 371.867 56.7191Z" fill="#0B2330"/>
<path d="M383.9 68.8697C385.164 68.8338 387.649 70.6766 386.667 72.9291C385.717 75.1113 383.426 74.0367 382.754 72.9142C381.864 71.4296 377.727 70.4597 377.751 69.157C378.834 69.1009 382.662 68.9047 383.9 68.8697Z" fill="#0B2330"/>
<path d="M383.839 68.8696C383.635 68.7953 383.425 68.7351 383.211 68.6891C382.53 68.5288 381.831 68.4589 381.131 68.481C380.623 68.4773 380.006 68.4885 379.244 68.5149L378.392 68.5493L377.771 68.5765L377.403 68.7374L377.215 68.8219L377.12 68.865L377.142 68.9979C377.172 69.1626 377.203 69.3309 377.235 69.5032C377.294 69.6788 377.378 69.8456 377.482 69.9988C377.643 70.1734 377.811 70.3396 377.988 70.4968C378.072 70.5728 378.188 70.639 378.288 70.7116L378.47 70.8306L378.834 71.0477C379.075 71.1798 379.324 71.3146 379.571 71.4494C380.049 71.703 380.524 71.9554 380.955 72.184L381.32 72.4109C381.591 72.5813 381.84 72.7829 382.064 73.0114C382.115 73.0699 382.161 73.131 382.205 73.1946L382.442 73.5308C382.96 74.1701 383.685 74.6096 384.493 74.774C385.003 74.8719 385.529 74.7975 385.99 74.5626C386.408 74.3301 386.75 73.9843 386.979 73.5655C387.371 72.8676 387.473 72.0441 387.262 71.2723C387.089 70.7615 386.795 70.3 386.405 69.9268C386.015 69.5537 385.54 69.2799 385.022 69.1286C384.29 68.9269 383.908 69.1248 383.911 69.2281C383.905 69.3627 384.126 69.3613 384.761 69.6974C385.177 69.9052 385.535 70.2159 385.798 70.6C386.062 70.9841 386.221 71.4288 386.265 71.8922C386.253 72.3815 386.071 72.8516 385.751 73.2217C385.61 73.373 385.43 73.4818 385.23 73.5356C385.032 73.5895 384.82 73.5864 384.622 73.5264C384.19 73.4182 383.797 73.1885 383.49 72.8643C383.425 72.7975 383.367 72.725 383.316 72.6475L383.062 72.3044C382.894 72.1085 382.705 71.9316 382.499 71.7766C382.138 71.4977 381.752 71.2528 381.345 71.0454L380.044 70.3846L379.421 70.063L378.922 69.7726C378.888 69.7572 378.785 69.6958 378.801 69.6377L378.899 69.6188L378.961 69.6086L379.291 69.5856C382.487 69.3663 384.265 69.0871 383.839 68.8696Z" fill="#0B2330"/>
<path d="M489.345 164.82C489.403 164.327 489.416 163.831 489.385 163.336C489.385 162.693 489.314 162.052 489.172 161.426C488.925 160.534 488.614 159.661 488.241 158.815C486.795 155.65 484.923 152.697 482.674 150.04C481.982 149.151 481.121 148.254 480.318 147.314C479.472 146.412 478.569 145.565 477.765 144.793C477.765 144.793 476.611 143.741 475.084 142.47C474.285 141.878 473.419 141.195 472.54 140.593C471.633 140.029 470.759 139.484 470.038 139.036C467.228 137.49 464.172 136.439 461.004 135.93C458.8 135.604 456.557 135.633 454.363 136.017C451.201 136.743 450.858 137.619 454.292 137.888C459.261 138.423 464.068 139.964 468.418 142.419C470.263 143.487 472.025 144.694 473.688 146.027C474.317 146.55 474.826 146.972 475.177 147.263C475.362 147.411 475.537 147.57 475.7 147.741C478.682 150.426 481.323 153.468 483.561 156.796C484.456 158.23 485.331 159.464 485.969 160.596C486.657 161.702 487.241 162.626 487.678 163.361C488.596 164.808 489.196 165.37 489.345 164.82Z" fill="#0B2330"/>
<path d="M423.325 213.997C423.322 214.493 423.365 214.988 423.451 215.476C423.523 216.115 423.666 216.743 423.878 217.351C424.223 218.209 424.631 219.041 425.097 219.84C426.89 222.823 429.082 225.548 431.616 227.935C432.403 228.741 433.36 229.536 434.264 230.38C435.206 231.182 436.199 231.923 437.084 232.599C437.084 232.599 438.349 233.515 440.01 234.607C440.871 235.105 441.808 235.687 442.749 236.186C443.713 236.646 444.643 237.089 445.41 237.453C448.376 238.675 451.532 239.376 454.736 239.527C456.963 239.604 459.188 239.322 461.326 238.695C464.386 237.619 464.628 236.711 461.186 236.828C456.188 236.854 451.238 235.862 446.639 233.911C444.685 233.055 442.799 232.055 440.997 230.915L439.379 229.854C439.178 229.728 438.987 229.589 438.804 229.439C435.539 227.104 432.574 224.378 429.974 221.322C428.924 219.998 427.915 218.869 427.153 217.816C426.347 216.794 425.661 215.942 425.144 215.261C424.07 213.925 423.41 213.434 423.325 213.997Z" fill="#0B2330"/>
<path d="M362.327 306.901C362.327 306.901 387.07 310.027 400.05 303.388C413.307 296.61 413.638 293.865 408.751 291.009C399.245 285.453 380.811 291.964 380.811 291.964C380.811 291.964 374.939 301.942 366.722 294.982C358.507 288.022 362.327 306.901 362.327 306.901Z" fill="#0B2330"/>
<path d="M392.546 286.309C395.853 285.921 399.194 285.941 402.494 286.371C403.336 286.457 404.194 286.706 405.038 286.873C405.884 287.063 406.731 287.413 407.57 287.685C408.402 288.032 409.219 288.485 410.027 288.899C410.923 289.429 411.747 290.074 412.477 290.818C413.154 291.516 413.648 292.37 413.914 293.305C414.118 294.25 414.025 295.236 413.646 296.126C413.475 296.584 413.242 297.017 412.952 297.412C412.815 297.613 412.664 297.824 412.521 298.004L412.147 298.402C411.682 298.899 411.176 299.356 410.634 299.768C408.927 301.02 407.123 302.134 405.24 303.103C404.333 303.568 403.429 304.051 402.517 304.481L401.153 305.144C400.685 305.36 400.167 305.556 399.678 305.76C395.79 307.249 391.716 308.194 387.57 308.57C383.975 308.967 380.372 309.233 376.817 309.336C372.245 309.656 367.65 309.425 363.133 308.651C361.708 308.337 362.078 307.184 363.368 306.165C365.1 304.872 367.229 304.219 369.39 304.319C373.866 304.506 378.346 304.559 382.776 304.337C387.16 304.19 391.517 303.596 395.779 302.566C396.091 302.485 396.412 302.414 396.719 302.318L397.608 301.978C398.209 301.732 398.788 301.55 399.414 301.233C400.661 300.63 401.889 299.989 403.095 299.31C404.294 298.629 405.459 297.912 406.555 297.163C407.073 296.777 407.629 296.402 408.071 296.003C408.297 295.828 408.51 295.635 408.704 295.426L408.986 295.149C409.034 295.101 409.078 295.048 409.119 294.994C409.212 294.9 409.283 294.787 409.326 294.662C409.37 294.537 409.385 294.404 409.369 294.273C409.314 293.999 409.162 293.754 408.941 293.584C408.459 293.18 407.934 292.831 407.373 292.545C406.79 292.212 406.177 291.934 405.542 291.713C402.794 290.816 399.903 290.423 397.013 290.556C393.287 290.665 389.584 291.166 385.964 292.051C385.169 292.247 384.37 292.439 383.583 292.66L382.404 292.992C382.173 293.05 381.945 293.122 381.723 293.208C381.167 293.994 380.542 294.728 379.855 295.404C379.043 296.228 378.121 296.937 377.115 297.51C376.071 298.12 374.922 298.529 373.727 298.717C372.511 298.875 371.275 298.775 370.102 298.422L369.16 298.133L368.302 297.714L367.448 297.287L366.685 296.764L365.467 295.934C365.238 295.783 364.992 295.663 364.732 295.576C364.489 295.486 364.221 295.491 363.981 295.592C363.869 295.658 363.771 295.744 363.693 295.849C363.615 295.952 363.558 296.071 363.527 296.196C363.461 296.432 363.424 296.676 363.416 296.921L363.41 297.983C363.421 298.858 363.535 299.745 363.619 300.667C363.981 304.105 363.955 305.257 362.856 306.228C362.632 306.468 362.388 306.689 362.125 306.888C361.271 307.423 360.158 306.081 359.541 303.358C359.315 302.347 359.126 301.314 358.991 300.243C358.922 299.707 358.868 299.162 358.837 298.601C358.797 297.995 358.792 297.388 358.821 296.782C358.828 296.576 358.847 296.371 358.878 296.167L358.964 295.464C359.046 295.007 359.154 294.554 359.288 294.108C359.556 293.266 360.002 292.491 360.596 291.835C361.201 291.206 361.986 290.778 362.843 290.606C363.711 290.433 364.609 290.489 365.447 290.77C365.901 290.913 366.336 291.107 366.743 291.35C367.184 291.572 367.601 291.839 367.987 292.145L368.597 292.583L368.906 292.794L369.397 293.13L369.879 293.477L370.366 293.703L370.841 293.948C370.999 294.012 371.152 294.031 371.304 294.082C371.887 294.27 372.505 294.324 373.112 294.241C373.718 294.159 374.298 293.941 374.81 293.604C375.466 293.225 376.067 292.757 376.591 292.212C376.884 291.925 377.159 291.622 377.418 291.303C377.899 290.681 378.345 290.03 378.753 289.357L380.218 288.867L380.942 288.636L381.336 288.518L382.909 288.074C383.96 287.795 385.013 287.538 386.073 287.303C388.198 286.848 390.339 286.449 392.523 286.197L392.546 286.309Z" fill="#0B2330"/>
<path d="M388.878 212.391L393.154 215.681C393.235 215.744 393.3 215.822 393.347 215.911C393.394 216.002 393.421 216.1 393.427 216.201C393.431 216.302 393.415 216.403 393.377 216.497C393.339 216.591 393.282 216.676 393.208 216.745L375.816 233.195C375.749 233.259 375.67 233.308 375.585 233.341C375.499 233.374 375.407 233.389 375.314 233.387C375.222 233.385 375.132 233.363 375.047 233.327C374.963 233.289 374.887 233.235 374.824 233.168L370.196 228.282C370.13 228.213 370.079 228.13 370.046 228.04C370.013 227.951 369.999 227.856 370.004 227.76C370.01 227.665 370.035 227.571 370.078 227.486C370.121 227.4 370.18 227.325 370.254 227.263L387.998 212.41C388.122 212.307 388.276 212.249 388.436 212.246C388.596 212.242 388.752 212.294 388.878 212.391Z" fill="#51CEBC"/>
<path d="M373.906 227.992C373.875 228.046 373.901 228.086 373.914 228.153C373.982 228.271 373.791 228.117 374.384 228.79L375.017 229.527C375.059 229.587 375.097 229.65 375.129 229.715C375.193 229.846 375.275 229.965 375.372 230.072C375.518 230.14 375.601 230.002 375.73 229.946L375.759 229.928C375.817 229.889 375.871 229.845 375.922 229.796L376.452 229.283C376.876 228.871 377.301 228.462 377.752 228.079L387.315 220.012C388.461 219.035 389.547 217.992 390.566 216.885C390.705 216.684 390.989 216.519 390.826 216.238C390.617 216.069 390.393 215.917 390.159 215.784C390.062 215.718 389.97 215.651 389.883 215.58L389.499 215.242C389.063 214.862 388.655 214.451 388.277 214.013C387.789 213.443 388.593 212.563 389.793 212.028C390.416 211.745 391.089 211.587 391.774 211.565C391.943 211.561 392.114 211.569 392.282 211.587C392.491 211.598 392.694 211.656 392.875 211.758C393.465 212.044 394.025 212.388 394.546 212.784L395.075 213.184C395.494 213.502 395.843 213.903 396.098 214.362C396.313 214.737 396.459 215.146 396.534 215.57C396.615 216.039 396.608 216.517 396.516 216.982C396.424 217.42 396.256 217.84 396.019 218.219C395.707 218.686 395.328 219.104 394.893 219.459L393.6 220.648L392.764 221.393L392.095 221.969C390.302 223.499 388.448 224.971 386.513 226.374C384.144 228.091 382.089 230.31 379.868 232.279L377.537 234.371C377.191 234.678 376.8 234.927 376.376 235.109C375.996 235.304 375.569 235.385 375.145 235.344C374.726 235.281 374.329 235.117 373.99 234.866C373.595 234.603 373.239 234.287 372.933 233.925L369.66 230.254L369.342 229.901C368.923 229.42 368.602 228.864 368.4 228.26C368.317 227.948 368.322 227.618 368.416 227.31C368.52 227.03 368.669 226.771 368.857 226.541C369.287 226.003 369.791 225.528 370.355 225.131L371.773 223.998C374.152 222.105 376.586 220.251 378.858 218.265C380.626 216.721 382.183 214.999 383.83 213.355C384.193 212.992 384.52 212.605 384.901 212.257C385.372 211.754 385.957 211.37 386.608 211.141C386.667 211.127 386.727 211.117 386.787 211.109C386.883 211.108 386.977 211.08 387.059 211.029C387.313 210.926 387.59 210.89 387.862 210.928C388.063 210.953 388.253 211.032 388.412 211.157C388.571 211.282 388.69 211.449 388.76 211.638C388.822 211.78 388.852 211.934 388.849 212.089C388.847 212.243 388.81 212.396 388.742 212.535C388.686 212.636 388.62 212.732 388.546 212.821L388.445 212.952L388.448 212.948C388.452 212.942 388.449 212.949 388.449 212.949L388.448 212.945L388.451 212.949L388.454 212.953C388.298 212.766 389.826 214.586 389.178 213.817L389.177 213.819L389.175 213.825L389.17 213.837L389.16 213.862L389.117 213.962C388.979 214.258 388.804 214.534 388.598 214.787C385.804 218.086 382.694 221.105 379.314 223.804C377.082 225.687 373.175 228.782 374.062 227.998L373.906 227.992Z" fill="#0B2330"/>
<path d="M360.747 232.076C360.747 232.076 380.805 225.618 388.005 213.709C395.358 201.548 394.245 199.152 388.836 199.285C378.315 199.544 369 209.1 369 209.1C369 209.1 366.925 221.013 356.745 219.484C351.828 218.745 355.216 220.902 356.915 224.324C358.734 227.987 360.747 232.076 360.747 232.076Z" fill="#0B2330"/>
<path d="M373.611 201.744C376.179 200.136 378.939 198.858 381.827 197.939C383.315 197.485 384.84 197.16 386.383 196.968C387.166 196.89 387.963 196.867 388.749 196.822C389.166 196.831 389.549 196.837 389.995 196.862L390.769 196.95C391.047 196.977 391.323 197.036 391.589 197.122C392.444 197.27 393.244 197.644 393.906 198.205C394.568 198.765 395.067 199.494 395.352 200.312C395.45 200.734 395.526 201.16 395.577 201.589L395.544 202.911C395.45 203.587 395.29 204.252 395.069 204.897C394.405 206.717 393.57 208.472 392.578 210.138C391.656 211.755 390.687 213.29 389.684 214.826C387.518 217.966 384.823 220.709 381.722 222.934C379.088 224.875 376.347 226.669 373.512 228.304C369.992 230.535 366.158 232.233 362.138 233.341C360.829 233.629 360.668 232.43 361.279 230.997C362.075 229.195 363.502 227.747 365.292 226.921C368.915 225.317 372.424 223.467 375.794 221.387C379.116 219.412 382.144 216.98 384.786 214.161C386.307 212.281 387.627 210.247 388.725 208.094C389.301 207.031 389.819 205.939 390.276 204.821C390.517 204.273 390.667 203.757 390.842 203.239L390.986 202.639C391.024 202.464 391.017 202.412 391.037 202.29C391.045 202.172 391.029 202.053 390.989 201.941C390.95 201.83 390.888 201.728 390.808 201.64C390.606 201.473 390.357 201.373 390.096 201.353C389.551 201.282 389 201.266 388.452 201.304C387.821 201.315 387.192 201.367 386.567 201.459C383.98 201.854 381.473 202.659 379.141 203.845C376.169 205.331 373.403 207.194 370.91 209.389L370.595 209.67C370.51 209.738 370.433 209.815 370.364 209.9C370.324 210.073 370.299 210.155 370.229 210.404C370.144 210.722 370.036 211.027 369.94 211.338C369.727 211.952 369.491 212.557 369.222 213.152C368.682 214.355 368.004 215.493 367.203 216.54C365.541 218.755 363.123 220.282 360.407 220.832L359.12 220.974C358.785 220.991 358.564 220.971 358.296 220.975C357.808 221.009 357.294 220.836 356.979 221.177C356.943 221.448 357.197 221.684 357.351 221.887L357.866 222.468C358.271 222.887 358.611 223.365 358.875 223.884C359.304 224.652 359.764 225.385 360.176 226.17C361.703 229.083 361.888 230.157 361.097 231.332C360.939 231.611 360.755 231.874 360.549 232.119C359.836 232.82 358.538 231.965 357.223 229.935C356.745 229.177 356.264 228.414 355.782 227.646C355.289 226.834 354.795 226.016 354.298 225.195C353.286 223.879 352.382 222.485 351.594 221.025C351.381 220.501 351.284 219.935 351.31 219.37C351.327 219.13 351.37 218.893 351.44 218.663C351.542 218.364 351.681 218.079 351.854 217.816C352.155 217.423 352.527 217.091 352.951 216.835C353.549 216.498 354.237 216.354 354.92 216.421L357.555 216.426L359.451 216.397C359.562 216.409 359.675 216.394 359.779 216.354L359.999 216.287L360.438 216.168C360.721 216.066 360.997 215.947 361.266 215.812C361.817 215.511 362.325 215.138 362.776 214.702C363.56 213.889 364.212 212.961 364.711 211.95C364.992 211.406 365.235 210.845 365.437 210.268C365.551 209.979 365.633 209.684 365.729 209.39L365.79 209.173L365.918 208.661L366.146 207.575C366.612 207.116 367.067 206.652 367.558 206.207L368.395 205.471C368.941 205.007 369.488 204.552 370.054 204.12C371.174 203.24 372.343 202.427 373.542 201.651L373.611 201.744Z" fill="#0B2330"/>
<path d="M284.424 286.797C284.006 286.894 283.599 287.033 283.21 287.212C281.984 287.724 280.907 288.534 280.074 289.567C278.202 291.77 276.62 294.2 275.363 296.801C274.935 297.63 274.479 298.547 274.071 299.483C273.629 300.406 273.265 301.355 272.952 302.22C272.952 302.22 272.829 302.516 272.628 303.002C272.452 303.496 272.208 304.182 271.934 304.95C271.395 306.526 270.944 308.131 270.584 309.757C269.544 314.105 269.657 318.649 270.913 322.939C271.824 325.498 272.721 325.797 272.787 322.871C272.832 321.186 272.968 319.085 273.186 316.887C273.436 314.694 273.801 312.515 274.28 310.36C274.823 307.897 275.538 305.474 276.419 303.111C277.536 299.978 278.953 296.96 280.651 294.098C282.077 291.695 283.301 289.881 284.026 288.657C284.76 287.444 284.936 286.759 284.424 286.797Z" fill="#0B2330"/>
<path d="M242.819 326.542C242.512 326.727 242.227 326.947 241.969 327.196C241.178 327.902 240.615 328.829 240.353 329.856C239.73 332.032 239.414 334.283 239.414 336.546C239.348 338.093 239.386 339.643 239.526 341.185C239.526 341.185 239.538 341.435 239.556 341.846C239.595 342.255 239.649 342.823 239.711 343.457C239.851 344.753 240.067 346.041 240.357 347.312C241.078 350.759 242.819 353.912 245.357 356.358C247.022 357.763 247.921 357.567 247.027 355.505C246.517 354.314 245.926 352.808 245.357 351.211C244.811 349.606 244.348 347.974 243.968 346.322C243.53 344.437 243.224 342.524 243.048 340.595C242.771 338.057 242.736 335.499 242.942 332.953C243.306 328.689 243.729 326.231 242.819 326.542Z" fill="#0B2330"/>
<path d="M232.83 337.464C232.578 337.519 232.332 337.604 232.1 337.719C231.057 338.132 230.345 339.185 230.232 342.641C230.19 343.477 230.208 344.313 230.287 345.146C230.287 345.146 230.293 345.689 230.357 346.375C230.416 347.077 230.524 347.774 230.68 348.46C230.881 349.419 231.29 350.324 231.88 351.107C232.47 351.89 233.226 352.534 234.092 352.993C235.334 353.544 236.165 353.213 235.772 352.161C235.182 350.659 234.693 349.119 234.308 347.551C234.086 346.614 233.923 345.663 233.819 344.706C233.64 343.442 233.572 342.167 233.614 340.891C233.689 338.758 233.625 337.415 232.83 337.464Z" fill="#0B2330"/>
<path d="M346.664 357.949C347.081 357.85 347.487 357.71 347.877 357.529C349.099 357.01 350.171 356.194 350.998 355.156C352.857 352.943 354.427 350.504 355.668 347.895C356.091 347.063 356.543 346.144 356.945 345.206C357.382 344.282 357.741 343.329 358.049 342.463L358.368 341.68C358.541 341.185 358.782 340.497 359.052 339.728C359.582 338.148 360.025 336.541 360.375 334.913C361.391 330.559 361.252 326.017 359.973 321.733C359.046 319.18 358.148 318.886 358.098 321.812C358.062 323.497 357.938 325.599 357.732 327.797C357.495 329.992 357.142 332.173 356.674 334.331C356.145 336.797 355.445 339.223 354.577 341.591C353.478 344.73 352.077 347.757 350.396 350.628C348.983 353.038 347.77 354.86 347.051 356.087C346.324 357.305 346.152 357.99 346.664 357.949Z" fill="#0B2330"/>
<path d="M377.81 266.459C378.992 271.019 379.956 275.623 380.702 280.273C381.074 282.597 381.393 284.928 381.642 287.284L381.824 289.21C381.897 289.714 381.912 290.224 381.867 290.731L381.128 292.061C380.779 292.662 380.498 293.19 380.141 293.748L378.927 295.353C377.571 297.058 375.754 298.34 373.691 299.046C371.486 299.658 369.131 299.419 367.094 298.378C366.288 297.983 365.522 297.513 364.805 296.975C364.461 296.708 364.111 296.445 363.796 296.152C363.635 296.005 363.468 295.87 363.315 295.714C363.16 295.557 363.02 295.434 362.782 295.18C362.559 294.952 362.351 294.711 362.158 294.458L361.784 293.537L361.386 292.495L360.601 290.434L359.031 286.308C358.498 284.937 357.889 283.601 357.321 282.244L355.583 278.188L353.676 274.216C352.454 271.537 350.998 268.99 349.615 266.397C347.066 261.87 344.144 257.562 340.883 253.518C338.81 250.965 336.582 248.541 334.209 246.263C331.907 244.009 329.445 241.923 326.844 240.023C326.038 239.449 325.877 239.032 326.085 238.613C326.268 238.195 326.994 237.871 328.081 237.853C331.377 238.042 334.487 239.439 336.817 241.775C347.331 251.735 354.294 264.213 359.819 277.055C360.598 279.002 361.416 280.951 362.26 282.903C363.119 284.848 363.841 286.86 364.661 288.84L365.867 291.822C365.925 292.032 366.054 292.213 366.233 292.334C366.557 292.646 366.902 292.936 367.263 293.204C368.492 294.25 370.052 294.83 371.668 294.839C372.526 294.685 373.344 294.355 374.068 293.867C374.791 293.381 375.405 292.748 375.87 292.011C376.199 291.619 376.491 291.194 376.739 290.746L377.133 290.056L377.331 289.731C377.322 288.831 377.25 287.933 377.114 287.044C376.58 282.483 375.816 277.951 374.824 273.467C373.622 267.93 372.084 262.471 370.219 257.121C367.447 249.009 363.739 241.246 359.172 233.989C355.593 228.544 351.37 223.548 346.595 219.109C345.58 218.109 344.459 217.273 343.409 216.3C339.371 212.863 338.129 211.74 337.931 210.027C337.849 209.651 337.805 209.268 337.799 208.883C337.862 208.339 338.452 208.237 339.466 208.556C340.956 209.082 342.352 209.839 343.605 210.8C353.592 217.89 361.83 228.324 367.715 239.734C372.078 248.232 375.499 257.179 377.917 266.418L377.81 266.459Z" fill="#0B2330"/>
<path d="M283.176 107.439C252.903 126.022 213.733 167.361 242.074 222.612L294.195 187.672L310.297 139.978C310.439 139.558 310.698 139.187 311.044 138.909C311.39 138.63 311.808 138.456 312.249 138.406C312.691 138.356 313.138 138.433 313.536 138.628C313.936 138.822 314.271 139.126 314.505 139.504C317.006 143.412 320.112 146.901 323.706 149.841L340.863 132.602C340.863 132.602 317.961 86.0867 283.176 107.439Z" fill="#C9316F"/>
<path d="M304.556 165.986L296.438 189.381L269.117 207.384C263.485 211.15 257.856 214.913 252.231 218.674L243.549 224.39L241.947 225.45C241.681 225.623 241.411 225.813 241.15 225.969L240.738 225.094L239.089 221.602L237.862 218.989C237.523 218.308 237.27 217.585 236.978 216.881C234.593 211.252 232.828 205.38 231.716 199.37C229.43 187.3 230.203 174.852 233.966 163.157C237.37 152.91 242.548 143.339 249.265 134.878C253.476 129.455 258.169 124.424 263.287 119.844C268.376 115.249 273.899 111.159 279.779 107.629C283.473 105.477 283.571 106.82 281.205 109.682C277.274 114.117 273.011 118.248 268.452 122.038C263.357 126.406 258.631 131.188 254.323 136.333C250.061 141.469 246.341 147.03 243.221 152.928C240.156 158.831 237.861 165.102 236.394 171.587C235.006 178.125 234.545 184.825 235.023 191.489C235.692 199.683 237.719 207.708 241.019 215.238C241.395 216.21 241.828 217.158 242.293 218.094L242.828 219.211L242.939 219.443L243.152 219.302L243.579 219.015L245.53 217.707C249.085 215.335 252.633 212.969 256.174 210.607C268.334 202.574 280.497 194.539 292.663 186.502L296.297 175.988C300.043 165.117 303.788 154.247 307.533 143.378C307.929 142.222 308.324 141.068 308.719 139.914C308.935 139.241 309.284 138.619 309.743 138.083C310.217 137.577 310.823 137.213 311.494 137.034C312.162 136.852 312.867 136.858 313.531 137.05C314.196 137.242 314.795 137.614 315.26 138.125L317.404 141.146C317.985 141.94 318.603 142.712 319.244 143.464C319.889 144.215 320.554 144.95 321.249 145.657C321.592 146.014 321.949 146.36 322.304 146.705L322.946 147.306L323.591 147.862C323.649 147.951 323.694 147.827 323.745 147.798L323.895 147.649L324.196 147.352L325.879 145.679L334.536 137.026L338.582 132.96C338.778 132.753 339.008 132.552 339.173 132.341L338.764 131.578L338.2 130.593L337.434 129.313C334.034 123.719 329.866 118.629 325.051 114.191C320.431 109.803 314.824 106.584 308.701 104.802C306.064 104.142 303.346 103.862 300.629 103.971C297.01 104.199 293.437 104.896 289.998 106.045C289.056 106.386 288.09 106.655 287.106 106.848C286.412 107.036 285.697 107.142 284.978 107.165C284.39 107.224 283.797 107.235 283.206 107.196C282.498 107.05 283.01 106.265 284.634 104.956C287.2 103.021 290.106 101.583 293.203 100.715C299.495 98.834 306.22 98.974 312.427 101.115C318.602 103.36 324.222 106.901 328.909 111.498C333.583 116.004 337.666 121.082 341.062 126.61C341.489 127.303 341.912 127.997 342.319 128.708L342.778 129.523L343.333 130.547C343.704 131.23 344.033 131.916 344.384 132.602L344.644 133.118C344.589 133.269 344.405 133.4 344.29 133.542L343.506 134.38C342.997 134.94 342.418 135.491 341.875 136.047L340.003 137.935C337.791 140.162 335.578 142.391 333.361 144.622L327.911 150.092C327.013 150.968 326.119 151.948 325.219 152.722L323.87 153.944C323.387 153.643 322.907 153.206 322.428 152.845C321.466 152.096 320.508 151.286 319.574 150.42L318.671 149.556L317.952 148.836C316.043 146.901 314.311 144.801 312.774 142.561C312.802 142.55 312.705 142.489 312.691 142.561C310.021 150.364 307.348 158.178 304.671 166.001L304.556 165.986Z" fill="#0B2330"/>
<path d="M333.292 69.2472C333.056 68.9904 332.79 68.7627 332.5 68.569C331.655 67.9484 330.65 67.5811 329.604 67.5103C328.868 67.4735 327.968 67.4791 326.853 67.5286C326.237 67.5774 325.626 67.6741 325.025 67.8177C324.291 67.935 323.567 68.1101 322.861 68.3414C322.155 68.5833 321.381 68.8492 320.609 69.1146C319.872 69.4717 319.14 69.8356 318.494 70.1872C318.285 70.2765 318.087 70.3846 317.898 70.5097C317.543 70.737 317.05 71.0523 316.5 71.4052C315.92 71.7845 315.37 72.2077 314.857 72.6709C314.59 72.8972 314.328 73.1194 314.079 73.3299C313.856 73.5648 313.645 73.7868 313.454 73.9874C312.014 75.482 310.914 77.2688 310.227 79.2261C309.72 80.5807 309.483 82.021 309.529 83.4662C309.593 84.5387 309.887 85.1772 310.218 85.2667C310.552 85.3834 310.874 85.0647 311.301 84.0791C311.889 82.7493 312.566 81.4601 313.325 80.22C314.171 78.8691 315.155 77.6085 316.259 76.4578C317.139 75.5327 318.116 74.7051 319.173 73.9895C319.586 73.6655 320.03 73.3837 320.5 73.1482C322.575 71.9337 324.857 71.1111 327.231 70.7218C328.251 70.6107 329.16 70.4558 329.953 70.3285C330.625 70.2971 331.296 70.2242 331.959 70.1104C333.026 69.912 333.536 69.6176 333.292 69.2472Z" fill="#0B2330"/>
<path d="M352.531 75.9497C345.451 79.2254 337.929 81.4536 330.205 82.564L347.777 71.0609L352.531 75.9497Z" fill="#0B2330"/>
<path d="M352.447 75.8417C352.381 75.3089 352.262 74.7838 352.094 74.2741C351.913 73.5532 351.626 72.8632 351.242 72.2269C351.132 72.0389 351.011 71.8441 350.878 71.6425C350.707 71.3735 350.517 71.1176 350.309 70.8769C349.694 70.1339 348.955 69.2821 348.081 68.3083C347.232 68.8265 346.297 69.3964 345.266 70.0255L343.222 71.2902C341.894 72.126 340.351 73.1345 338.537 74.3427C336.693 75.5714 334.426 76.9559 332.624 78.1921C332.624 78.1921 331.482 78.9114 328.882 80.5492L320.806 85.6366L330.517 84.9486C332.234 84.7754 333.94 84.5113 335.629 84.1578C341.031 83.1082 346.074 80.7005 350.283 77.1623C351.513 76.0158 352.072 75.0899 351.894 74.6648C351.751 74.2196 350.933 74.2601 349.243 74.8912C346.357 75.9749 342.324 77.3582 338.589 78.3356C335.723 79.0942 332.818 79.6979 329.887 80.144L331.544 84.6013C334.706 82.4981 335.635 81.8809 335.635 81.8809C339.138 79.4534 342.609 77.0262 346.014 74.6013C346.267 74.4201 346.514 74.2425 346.756 74.0686L347.114 73.8081L347.187 73.7324L347.519 73.3875L347.945 73.6077C348 73.6326 348.05 73.6647 348.096 73.703L348.393 73.9458L348.959 74.3959C349.557 74.8716 350.182 75.3109 350.832 75.7112C351.86 76.3219 352.433 76.3888 352.447 75.8417Z" fill="#0B2330"/>
<path d="M308.886 100.104L326.459 111.176C338.127 108.372 330.781 93.346 330.781 93.346L327.468 84.575L308.886 100.104Z" fill="#0B2330"/>
<path d="M309.048 99.9885C309.764 99.8231 310.466 99.6022 311.147 99.3281C313.307 98.5155 315.325 97.366 317.125 95.9226C318.469 94.9436 320.056 93.7075 321.993 92.1376C322.955 91.3459 324.011 90.4778 325.171 89.523C325.535 89.2193 325.915 88.9015 326.312 88.5694L326.452 88.4401C327.133 90.2688 327.935 92.4228 328.621 94.2631C328.78 94.6157 328.916 94.9143 329.049 95.2064C329.049 95.2064 329.24 95.6846 329.508 96.4904C329.853 97.5364 330.128 98.6047 330.327 99.688C330.575 100.955 330.648 102.249 330.544 103.536C330.472 104.548 330.16 105.528 329.636 106.398C329.182 107.098 328.563 107.678 327.834 108.085C327.644 108.203 327.445 108.307 327.24 108.398L326.924 108.539C326.862 108.571 326.858 108.587 326.858 108.587C326.847 108.608 326.831 108.626 326.81 108.638C326.79 108.65 326.766 108.656 326.742 108.653C325.796 108.15 324.88 107.661 323.991 107.188C323.028 106.684 322.093 106.211 321.186 105.767C318.269 104.301 315.259 103.027 312.177 101.951C307.61 100.44 306.35 101.05 310.932 104.119C313.56 105.879 316.881 108.031 320.384 110.269C321.261 110.827 322.148 111.392 323.038 111.958L324.581 112.935L325.919 113.769L326.088 113.871L326.277 113.817L326.656 113.709L327.412 113.492C327.87 113.376 328.319 113.233 328.759 113.061C329.068 112.95 329.369 112.824 329.665 112.681C330.273 112.393 330.855 112.051 331.403 111.659C332.509 110.852 333.43 109.82 334.106 108.63C335.192 106.568 335.681 104.245 335.515 101.922C335.418 100.231 335.134 98.5557 334.67 96.9268C334.37 95.8649 334.013 94.8198 333.602 93.7962C333.308 93.0728 333.117 92.669 333.117 92.669L333.035 92.4936L332.993 92.4089C332.996 92.4173 332.993 92.4112 332.993 92.4112C332.42 90.9771 331.848 89.5473 331.279 88.1219C330.325 85.69 329.378 83.2754 328.439 80.8783C326.481 82.56 324.539 84.2268 322.615 85.879C321.483 86.8741 320.358 87.8637 319.239 88.8479C311.363 95.7943 307.382 100.143 309.048 99.9885Z" fill="#0B2330"/>
<path d="M327.72 99.8164C330.49 99.8164 332.737 97.5746 332.737 94.8091C332.737 92.0436 330.49 89.8018 327.72 89.8018C324.95 89.8018 322.704 92.0436 322.704 94.8091C322.704 97.5746 324.95 99.8164 327.72 99.8164Z" fill="white"/>
<path d="M332.256 92.6662C332.209 92.3734 332.125 92.0877 332.004 91.817C331.589 90.8713 330.826 90.1211 329.873 89.7219C329.008 89.3199 328.051 89.161 327.102 89.2627C325.695 89.4133 324.399 90.0957 323.479 91.1699C322.951 91.7835 322.563 92.5043 322.341 93.2823C322.119 94.0603 322.068 94.8772 322.194 95.6766C322.22 95.9058 322.267 96.1318 322.338 96.3515C322.486 96.8962 322.719 97.4144 323.029 97.8869C323.786 99.0424 324.939 99.8819 326.272 100.247C327.308 100.521 328.401 100.478 329.412 100.123C330.421 99.7685 331.302 99.1191 331.937 98.259C332.361 97.6897 332.654 97.034 332.795 96.3386C332.936 95.6433 332.921 94.9254 332.751 94.2365C332.481 93.2785 332.059 92.8749 331.964 92.89C331.822 92.9182 332.02 93.3431 332.133 94.3461C332.191 95.0318 332.09 95.7217 331.84 96.3628C331.588 97.004 331.194 97.5795 330.687 98.0453C330.177 98.5064 329.567 98.8422 328.904 99.0261C328.242 99.21 327.545 99.2368 326.87 99.1042C326.196 98.9718 325.561 98.6838 325.018 98.2632C324.474 97.8426 324.036 97.301 323.74 96.6817C323.516 96.2261 323.377 95.7337 323.33 95.2285C323.207 94.0676 323.545 92.9047 324.272 91.9902C325.003 91.077 326.059 90.4813 327.219 90.3277C327.974 90.2395 328.738 90.3274 329.453 90.5845C330.168 90.8416 330.812 91.2608 331.337 91.8092C332.029 92.5502 332.252 92.986 332.256 92.6662Z" fill="white"/>
<path d="M335.426 106.761C334.378 104.939 333.471 103.039 332.713 101.078C332.428 100.382 332.056 99.7315 331.816 99.0229C331.048 96.5356 330.415 94.0082 329.922 91.4521C329.687 90.3344 329.358 89.2409 329.017 88.1598C328.41 86.8105 328.127 85.3381 328.192 83.8602C328.266 83.3611 329.456 83.269 330.657 83.4399C331.858 83.6124 333.078 84.045 333.255 84.8012C333.92 87.5292 334.401 90.299 334.692 93.0916C335.009 94.7865 335.544 96.4332 336.285 97.9904C336.928 99.7534 337.692 101.471 338.568 103.131C339.103 104.141 339.711 105.109 340.389 106.029C341.363 107.418 342.597 108.607 344.021 109.53C345.126 110.102 346.34 110.431 347.583 110.493C347.849 110.499 348.113 110.457 348.368 110.486C349.313 110.575 349.582 110.831 349.779 112.101C349.823 112.384 349.89 112.668 349.919 112.951C349.955 113.172 349.946 113.398 349.892 113.615C349.838 113.832 349.741 114.037 349.605 114.215C349.47 114.394 349.3 114.543 349.105 114.654C348.91 114.765 348.695 114.835 348.472 114.86C346.884 115.027 345.28 114.853 343.767 114.351C342.252 113.849 340.862 113.031 339.69 111.949C337.991 110.469 336.522 108.743 335.334 106.828L335.426 106.761Z" fill="#0B2330"/>
<path d="M386.266 134.82C386.525 134.968 386.794 135.097 387.071 135.207C388.263 135.763 388.973 135.504 390.472 133.939C390.814 133.58 391.298 133.226 391.616 132.851C392.179 132.429 392.721 131.978 393.238 131.5C395.414 129.322 393.823 124.667 392.414 125.607C390.905 126.79 389.505 128.106 388.23 129.537C387.624 130.282 387.035 131.034 386.481 131.803C385.538 133.108 385.454 134.285 386.266 134.82Z" fill="#0B2330"/>
<path d="M258.165 150.024C257.697 150.203 257.247 150.424 256.821 150.686C255.394 151.453 254.186 152.568 253.31 153.927C252.428 155.068 251.662 156.294 251.025 157.587C250.634 158.365 250.172 159.207 249.746 160.164C249.368 161.14 248.954 162.203 248.503 163.366C247.681 165.635 247.001 167.952 246.467 170.305L246.212 171.302C246.037 171.919 245.857 172.785 245.678 173.758C245.259 175.698 244.93 178.072 244.732 179.741C244.083 185.101 244.527 190.535 246.036 195.719C246.557 197.268 247.096 198.116 247.442 198.118C247.797 198.131 247.947 197.363 247.904 195.539C247.746 190.315 247.94 185.086 248.483 179.887C248.658 178.595 248.767 177.356 248.959 176.25C249.147 175.143 249.316 174.149 249.458 173.314C249.793 171.659 250.04 170.65 250.04 170.65C250.868 166.644 252.162 162.75 253.896 159.045C254.546 157.452 255.371 156.185 255.97 155.018C256.536 153.824 257.198 152.962 257.616 152.204C258.482 150.714 258.717 149.903 258.165 150.024Z" fill="#0B2330"/>
<path d="M340.221 162.409L329.85 194.329L300.033 202.956L291.824 198.212L300.033 172.33L340.221 162.409Z" fill="#0B2330"/>
<path d="M298.521 186.625L296.407 192.81L295.35 195.903L295.107 196.607L295.048 196.735L294.921 197.016L295.236 197.25C295.18 197.228 295.63 197.496 295.912 197.669L296.844 198.232L300.191 200.265L300.349 200.369L301.088 200.16L302.808 199.653C303.955 199.315 305.102 198.98 306.258 198.675L328.454 192.896L328.617 192.472L328.852 191.827L329.535 189.866C330.895 185.957 332.137 181.983 333.333 178.054C334.703 172.948 336.357 167.923 338.29 163.001C339.598 159.969 342.543 165.306 340.707 171.103C339.429 175.138 338.106 179.16 336.74 183.17C336.042 185.171 335.343 187.175 334.644 189.18L333.564 192.181L332.994 193.747L332.012 196.562L328.923 197.376L327.226 197.779C326.092 198.043 324.955 198.306 323.816 198.569C317.462 200.013 311.011 202.087 304.59 203.845L299.761 205.176L289.559 199.09L292.678 189.747C294.106 185.481 295.535 181.215 296.963 176.949C297.604 175.002 298.246 173.056 298.886 171.113C301.613 170.468 304.337 169.825 307.056 169.183C309.508 168.597 311.946 167.995 314.373 167.376C319.471 166.066 324.404 164.518 329.407 163.073C330.508 162.755 331.574 162.401 332.692 162.104C336.831 161.001 338.229 160.975 339.417 161.946C339.703 162.141 339.968 162.365 340.208 162.615C340.835 163.437 339.329 164.616 336.352 165.639C327.519 168.673 318.024 171.141 308.464 173.508L304.631 174.446L302.71 174.909L302.51 174.956L302.508 174.955L302.504 174.953L302.49 174.949C301.206 178.843 299.921 182.743 298.633 186.649L298.521 186.625Z" fill="#0B2330"/>
<path d="M384.58 225.446C384.315 225.658 384.071 225.895 383.854 226.156C382.795 227.223 382.715 228.542 383.501 232.498C383.68 233.403 383.792 234.507 383.998 235.395C383.998 235.395 384.276 237.93 384.529 239.282C385.579 244.918 390.652 248.011 390.41 244.905C390.134 241.342 388.631 234.364 388.631 234.364C388.208 232.636 387.771 230.923 387.303 229.238C386.51 226.38 385.447 224.899 384.58 225.446Z" fill="#0B2330"/>
<path d="M391.494 265.154C391.223 265.432 390.984 265.739 390.778 266.069C389.738 267.449 389.69 269.277 390.585 274.867C390.79 276.146 390.932 277.695 391.163 278.953C391.163 278.953 391.508 282.512 391.798 284.42C393.004 292.378 398.205 297.201 397.881 292.85C397.51 287.858 395.814 277.986 395.814 277.986C395.343 275.537 394.856 273.106 394.341 270.712C393.467 266.65 392.357 264.48 391.494 265.154Z" fill="#0B2330"/>
<path d="M374.518 263.151C374.22 262.984 373.906 262.848 373.581 262.745C372.184 262.168 370.915 262.593 367.484 264.821C366.698 265.332 365.701 265.854 364.942 266.382C364.942 266.382 362.66 267.6 361.481 268.346C356.566 271.458 355.535 277.336 358.368 275.935C361.618 274.327 367.627 270.288 367.627 270.288C369.097 269.241 370.548 268.186 371.959 267.114C374.354 265.294 375.354 263.748 374.518 263.151Z" fill="#0B2330"/>
<path d="M345.464 202.761C345.727 202.978 346.013 203.167 346.314 203.325C347.588 204.138 348.913 203.943 352.683 202.35C353.547 201.986 354.62 201.647 355.46 201.259C355.46 201.259 357.921 200.461 359.213 199.933C364.598 197.732 366.648 192.126 363.612 193.007C360.13 194.021 353.504 196.943 353.504 196.943C351.873 197.716 350.259 198.501 348.681 199.308C346.002 200.68 344.746 202.027 345.464 202.761Z" fill="#0B2330"/>
</g>
<defs>
<clipPath id="clip0_1_2132">
<rect width="678" height="382" fill="white" transform="translate(0 56)"/>
</clipPath>
</defs>
</svg>
