<svg width="28" height="28" viewBox="0 0 28 28" fill="none" xmlns="http://www.w3.org/2000/svg">
<path fill-rule="evenodd" clip-rule="evenodd" d="M14 0C6.268 0 0 6.268 0 14C0 21.732 6.268 28 14 28C21.732 28 28 21.732 28 14C28 6.268 21.732 0 14 0ZM13.61 11.864L13.58 11.379C13.493 10.124 14.266 8.977 15.49 8.532C15.94 8.374 16.705 8.354 17.204 8.492C17.4 8.552 17.772 8.75 18.036 8.928L18.516 9.254L19.045 9.086C19.339 8.996 19.73 8.848 19.907 8.75C20.073 8.66 20.22 8.611 20.22 8.64C20.22 8.809 19.858 9.382 19.554 9.699C19.143 10.144 19.261 10.183 20.093 9.887C20.593 9.718 20.603 9.718 20.504 9.907C20.445 10.005 20.142 10.351 19.819 10.667C19.27 11.211 19.241 11.271 19.241 11.725C19.241 12.427 18.908 13.89 18.575 14.691C17.958 16.194 16.636 17.746 15.314 18.527C13.454 19.625 10.976 19.901 8.89 19.259C8.195 19.041 7 18.488 7 18.389C7 18.359 7.362 18.319 7.803 18.309C8.72495 18.289 9.62715 18.038 10.427 17.579L10.957 17.262L10.349 17.054C9.487 16.758 8.714 16.075 8.518 15.433C8.459 15.225 8.478 15.215 9.028 15.215L9.595 15.205L9.115 14.978C8.547 14.691 8.028 14.207 7.774 13.713C7.588 13.357 7.353 12.457 7.421 12.388C7.441 12.358 7.646 12.418 7.881 12.496C8.557 12.744 8.645 12.684 8.253 12.269C7.519 11.518 7.293 10.401 7.646 9.343L7.813 8.868L8.459 9.511C9.781 10.806 11.339 11.577 13.12 11.805L13.61 11.864V11.864Z" fill="#94A0A4"/>
</svg>
