<svg width="329" height="24" viewBox="0 0 329 24" fill="none" xmlns="http://www.w3.org/2000/svg">
<path d="M7.16406 13.835H8.47656C8.4082 14.4639 8.22819 15.0267 7.93652 15.5234C7.64486 16.0202 7.23242 16.4144 6.69922 16.7061C6.16602 16.9932 5.50065 17.1367 4.70312 17.1367C4.11979 17.1367 3.58887 17.0273 3.11035 16.8086C2.63639 16.5898 2.22852 16.2799 1.88672 15.8789C1.54492 15.4733 1.2806 14.988 1.09375 14.4229C0.911458 13.8532 0.820312 13.2197 0.820312 12.5225V11.5312C0.820312 10.834 0.911458 10.2028 1.09375 9.6377C1.2806 9.06803 1.5472 8.5804 1.89355 8.1748C2.24447 7.76921 2.66602 7.45703 3.1582 7.23828C3.65039 7.01953 4.2041 6.91016 4.81934 6.91016C5.57129 6.91016 6.20703 7.05143 6.72656 7.33398C7.24609 7.61654 7.64941 8.00846 7.93652 8.50977C8.22819 9.00651 8.4082 9.58301 8.47656 10.2393H7.16406C7.10026 9.77441 6.98177 9.37565 6.80859 9.04297C6.63542 8.70573 6.38932 8.44596 6.07031 8.26367C5.7513 8.08138 5.33431 7.99023 4.81934 7.99023C4.37728 7.99023 3.98763 8.07454 3.65039 8.24316C3.31771 8.41178 3.03743 8.65104 2.80957 8.96094C2.58626 9.27083 2.41764 9.64225 2.30371 10.0752C2.18978 10.5081 2.13281 10.9889 2.13281 11.5176V12.5225C2.13281 13.0101 2.18294 13.4681 2.2832 13.8965C2.38802 14.3249 2.54525 14.7008 2.75488 15.0244C2.96452 15.348 3.23112 15.6032 3.55469 15.79C3.87826 15.9723 4.26107 16.0635 4.70312 16.0635C5.26367 16.0635 5.71029 15.9746 6.04297 15.7969C6.37565 15.6191 6.6263 15.3639 6.79492 15.0312C6.9681 14.6986 7.09115 14.2998 7.16406 13.835ZM15.359 7.92871L12.0641 17H10.7174L14.5113 7.04688H15.3795L15.359 7.92871ZM18.1207 17L14.8189 7.92871L14.7984 7.04688H15.6666L19.4742 17H18.1207ZM17.9498 13.3154V14.3955H12.358V13.3154H17.9498ZM27.5119 14.4844C27.5119 14.252 27.4755 14.0469 27.4025 13.8691C27.3342 13.6868 27.2111 13.5228 27.0334 13.377C26.8602 13.2311 26.6187 13.0921 26.3088 12.96C26.0034 12.8278 25.6161 12.6934 25.1467 12.5566C24.6545 12.4108 24.2102 12.249 23.8137 12.0713C23.4172 11.889 23.0777 11.6816 22.7951 11.4492C22.5126 11.2168 22.2961 10.9502 22.1457 10.6494C21.9953 10.3486 21.9201 10.0046 21.9201 9.61719C21.9201 9.22982 21.9999 8.87207 22.1594 8.54395C22.3189 8.21582 22.5467 7.93099 22.843 7.68945C23.1437 7.44336 23.5015 7.25195 23.9162 7.11523C24.3309 6.97852 24.7935 6.91016 25.3039 6.91016C26.0513 6.91016 26.6848 7.05371 27.2043 7.34082C27.7284 7.62337 28.1271 7.99479 28.4006 8.45508C28.674 8.91081 28.8107 9.39844 28.8107 9.91797H27.4982C27.4982 9.54427 27.4185 9.21387 27.259 8.92676C27.0995 8.63509 26.8579 8.40723 26.5344 8.24316C26.2108 8.07454 25.8007 7.99023 25.3039 7.99023C24.8345 7.99023 24.4471 8.06087 24.1418 8.20215C23.8365 8.34342 23.6086 8.53483 23.4582 8.77637C23.3124 9.0179 23.2395 9.29362 23.2395 9.60352C23.2395 9.81315 23.2827 10.0046 23.3693 10.1777C23.4605 10.3464 23.5995 10.5036 23.7863 10.6494C23.9777 10.7952 24.2193 10.9297 24.5109 11.0527C24.8072 11.1758 25.1604 11.2943 25.5705 11.4082C26.1356 11.5677 26.6232 11.7454 27.0334 11.9414C27.4436 12.1374 27.7808 12.3584 28.0451 12.6045C28.314 12.846 28.5122 13.1217 28.6398 13.4316C28.772 13.737 28.8381 14.0833 28.8381 14.4707C28.8381 14.8763 28.7561 15.2432 28.592 15.5713C28.4279 15.8994 28.1932 16.1797 27.8879 16.4121C27.5826 16.6445 27.2157 16.8245 26.7873 16.9521C26.3635 17.0752 25.8895 17.1367 25.3654 17.1367C24.9051 17.1367 24.4517 17.0729 24.0051 16.9453C23.563 16.8177 23.1597 16.6263 22.7951 16.3711C22.4351 16.1159 22.1457 15.8014 21.927 15.4277C21.7128 15.0495 21.6057 14.612 21.6057 14.1152H22.9182C22.9182 14.457 22.9842 14.751 23.1164 14.9971C23.2486 15.2386 23.4286 15.4391 23.6564 15.5986C23.8889 15.7581 24.1509 15.8766 24.4426 15.9541C24.7388 16.027 25.0464 16.0635 25.3654 16.0635C25.8257 16.0635 26.2154 15.9997 26.5344 15.8721C26.8534 15.7445 27.0949 15.5622 27.259 15.3252C27.4276 15.0882 27.5119 14.8079 27.5119 14.4844ZM38.243 15.9268V17H32.9725V15.9268H38.243ZM33.2391 7.04688V17H31.9197V7.04688H33.2391ZM37.5457 11.3262V12.3994H32.9725V11.3262H37.5457ZM38.1746 7.04688V8.12695H32.9725V7.04688H38.1746ZM51.4541 14.4844C51.4541 14.252 51.4176 14.0469 51.3447 13.8691C51.2764 13.6868 51.1533 13.5228 50.9756 13.377C50.8024 13.2311 50.5609 13.0921 50.251 12.96C49.9456 12.8278 49.5583 12.6934 49.0889 12.5566C48.5967 12.4108 48.1523 12.249 47.7559 12.0713C47.3594 11.889 47.0199 11.6816 46.7373 11.4492C46.4548 11.2168 46.2383 10.9502 46.0879 10.6494C45.9375 10.3486 45.8623 10.0046 45.8623 9.61719C45.8623 9.22982 45.9421 8.87207 46.1016 8.54395C46.2611 8.21582 46.4889 7.93099 46.7852 7.68945C47.0859 7.44336 47.4437 7.25195 47.8584 7.11523C48.2731 6.97852 48.7357 6.91016 49.2461 6.91016C49.9935 6.91016 50.627 7.05371 51.1465 7.34082C51.6706 7.62337 52.0693 7.99479 52.3428 8.45508C52.6162 8.91081 52.7529 9.39844 52.7529 9.91797H51.4404C51.4404 9.54427 51.3607 9.21387 51.2012 8.92676C51.0417 8.63509 50.8001 8.40723 50.4766 8.24316C50.153 8.07454 49.7428 7.99023 49.2461 7.99023C48.7767 7.99023 48.3893 8.06087 48.084 8.20215C47.7786 8.34342 47.5508 8.53483 47.4004 8.77637C47.2546 9.0179 47.1816 9.29362 47.1816 9.60352C47.1816 9.81315 47.2249 10.0046 47.3115 10.1777C47.4027 10.3464 47.5417 10.5036 47.7285 10.6494C47.9199 10.7952 48.1615 10.9297 48.4531 11.0527C48.7493 11.1758 49.1025 11.2943 49.5127 11.4082C50.0778 11.5677 50.5654 11.7454 50.9756 11.9414C51.3857 12.1374 51.723 12.3584 51.9873 12.6045C52.2562 12.846 52.4544 13.1217 52.582 13.4316C52.7142 13.737 52.7803 14.0833 52.7803 14.4707C52.7803 14.8763 52.6982 15.2432 52.5342 15.5713C52.3701 15.8994 52.1354 16.1797 51.8301 16.4121C51.5247 16.6445 51.1579 16.8245 50.7295 16.9521C50.3057 17.0752 49.8317 17.1367 49.3076 17.1367C48.8473 17.1367 48.3939 17.0729 47.9473 16.9453C47.5052 16.8177 47.1019 16.6263 46.7373 16.3711C46.3773 16.1159 46.0879 15.8014 45.8691 15.4277C45.6549 15.0495 45.5479 14.612 45.5479 14.1152H46.8604C46.8604 14.457 46.9264 14.751 47.0586 14.9971C47.1908 15.2386 47.3708 15.4391 47.5986 15.5986C47.8311 15.7581 48.0931 15.8766 48.3848 15.9541C48.681 16.027 48.9886 16.0635 49.3076 16.0635C49.7679 16.0635 50.1576 15.9997 50.4766 15.8721C50.7956 15.7445 51.0371 15.5622 51.2012 15.3252C51.3698 15.0882 51.4541 14.8079 51.4541 14.4844ZM59.5396 7.04688V17H58.2408V7.04688H59.5396ZM62.7389 7.04688V8.12695H55.0484V7.04688H62.7389ZM71.3098 7.04688H72.6223V13.7803C72.6223 14.5277 72.4559 15.1497 72.1232 15.6465C71.7906 16.1432 71.3485 16.5169 70.7971 16.7676C70.2502 17.0137 69.6555 17.1367 69.0129 17.1367C68.3384 17.1367 67.7277 17.0137 67.1809 16.7676C66.6385 16.5169 66.2079 16.1432 65.8889 15.6465C65.5744 15.1497 65.4172 14.5277 65.4172 13.7803V7.04688H66.7229V13.7803C66.7229 14.2998 66.8186 14.7282 67.01 15.0654C67.2014 15.4027 67.468 15.6533 67.8098 15.8174C68.1561 15.9814 68.5572 16.0635 69.0129 16.0635C69.4732 16.0635 69.8742 15.9814 70.216 15.8174C70.5624 15.6533 70.8313 15.4027 71.0227 15.0654C71.2141 14.7282 71.3098 14.2998 71.3098 13.7803V7.04688ZM78.7869 17H76.7088L76.7225 15.9268H78.7869C79.4978 15.9268 80.0903 15.7786 80.5643 15.4824C81.0382 15.1816 81.3937 14.7624 81.6307 14.2246C81.8722 13.6823 81.993 13.0488 81.993 12.3242V11.7158C81.993 11.1462 81.9246 10.6403 81.7879 10.1982C81.6512 9.75163 81.4506 9.37565 81.1863 9.07031C80.922 8.76042 80.5984 8.52572 80.2156 8.36621C79.8374 8.20671 79.4021 8.12695 78.91 8.12695H76.6678V7.04688H78.91C79.5617 7.04688 80.1564 7.15625 80.6941 7.375C81.2319 7.58919 81.6945 7.90137 82.0818 8.31152C82.4738 8.71712 82.7745 9.20931 82.9842 9.78809C83.1938 10.3623 83.2986 11.0094 83.2986 11.7295V12.3242C83.2986 13.0443 83.1938 13.6937 82.9842 14.2725C82.7745 14.8467 82.4715 15.3366 82.075 15.7422C81.6831 16.1478 81.2091 16.46 80.6531 16.6787C80.1017 16.8929 79.4796 17 78.7869 17ZM77.4129 7.04688V17H76.0936V7.04688H77.4129ZM86.8383 7.04688L89.4223 12.0439L92.0131 7.04688H93.5102L90.0785 13.2812V17H88.7592V13.2812L85.3275 7.04688H86.8383Z" fill="#375361"/>
</svg>
