<svg width="40" height="40" viewBox="0 0 40 40" fill="none" xmlns="http://www.w3.org/2000/svg">
<path d="M20 40C31.0457 40 40 31.0457 40 20C40 8.9543 31.0457 0 20 0C8.9543 0 0 8.9543 0 20C0 31.0457 8.9543 40 20 40Z" fill="#BD78F0"/>
<path d="M17 17.25H23" stroke="#0B2330" stroke-linecap="round" stroke-linejoin="round"/>
<path d="M17 20.25H23" stroke="#0B2330" stroke-linecap="round" stroke-linejoin="round"/>
<path d="M22.0315 25.8641L20.6431 28.1781C20.5765 28.2891 20.4822 28.3811 20.3695 28.4449C20.2568 28.5087 20.1295 28.5422 20 28.5422C19.8705 28.5422 19.7432 28.5087 19.6305 28.4449C19.5178 28.3811 19.4235 28.2891 19.3569 28.1781L17.9685 25.8641C17.9018 25.753 17.8076 25.6611 17.6949 25.5973C17.5822 25.5335 17.4549 25.5 17.3254 25.5H11.75C11.5511 25.5 11.3603 25.4209 11.2197 25.2803C11.079 25.1396 11 24.9489 11 24.75V12.75C11 12.5511 11.079 12.3603 11.2197 12.2197C11.3603 12.079 11.5511 12 11.75 12H28.25C28.4489 12 28.6397 12.079 28.7803 12.2197C28.921 12.3603 29 12.5511 29 12.75V24.75C29 24.9489 28.921 25.1397 28.7803 25.2803C28.6397 25.421 28.4489 25.5 28.25 25.5H22.6747C22.5451 25.5 22.4178 25.5335 22.3051 25.5973C22.1924 25.6611 22.0982 25.753 22.0315 25.8641Z" stroke="#0B2330" stroke-linecap="round" stroke-linejoin="round"/>
</svg>
