<svg width="301" height="20" viewBox="0 0 301 20" fill="none" xmlns="http://www.w3.org/2000/svg">
<path d="M7.16406 11.835H8.47656C8.4082 12.4639 8.22819 13.0267 7.93652 13.5234C7.64486 14.0202 7.23242 14.4144 6.69922 14.7061C6.16602 14.9932 5.50065 15.1367 4.70312 15.1367C4.11979 15.1367 3.58887 15.0273 3.11035 14.8086C2.63639 14.5898 2.22852 14.2799 1.88672 13.8789C1.54492 13.4733 1.2806 12.988 1.09375 12.4229C0.911458 11.8532 0.820312 11.2197 0.820312 10.5225V9.53125C0.820312 8.83398 0.911458 8.2028 1.09375 7.6377C1.2806 7.06803 1.5472 6.5804 1.89355 6.1748C2.24447 5.76921 2.66602 5.45703 3.1582 5.23828C3.65039 5.01953 4.2041 4.91016 4.81934 4.91016C5.57129 4.91016 6.20703 5.05143 6.72656 5.33398C7.24609 5.61654 7.64941 6.00846 7.93652 6.50977C8.22819 7.00651 8.4082 7.58301 8.47656 8.23926H7.16406C7.10026 7.77441 6.98177 7.37565 6.80859 7.04297C6.63542 6.70573 6.38932 6.44596 6.07031 6.26367C5.7513 6.08138 5.33431 5.99023 4.81934 5.99023C4.37728 5.99023 3.98763 6.07454 3.65039 6.24316C3.31771 6.41178 3.03743 6.65104 2.80957 6.96094C2.58626 7.27083 2.41764 7.64225 2.30371 8.0752C2.18978 8.50814 2.13281 8.98893 2.13281 9.51758V10.5225C2.13281 11.0101 2.18294 11.4681 2.2832 11.8965C2.38802 12.3249 2.54525 12.7008 2.75488 13.0244C2.96452 13.348 3.23112 13.6032 3.55469 13.79C3.87826 13.9723 4.26107 14.0635 4.70312 14.0635C5.26367 14.0635 5.71029 13.9746 6.04297 13.7969C6.37565 13.6191 6.6263 13.3639 6.79492 13.0312C6.9681 12.6986 7.09115 12.2998 7.16406 11.835ZM9.74805 11.3838V11.2266C9.74805 10.6934 9.82552 10.1989 9.98047 9.74316C10.1354 9.28288 10.3587 8.88411 10.6504 8.54688C10.9421 8.20508 11.2952 7.94076 11.71 7.75391C12.1247 7.5625 12.5895 7.4668 13.1045 7.4668C13.624 7.4668 14.0911 7.5625 14.5059 7.75391C14.9251 7.94076 15.2806 8.20508 15.5723 8.54688C15.8685 8.88411 16.0941 9.28288 16.249 9.74316C16.404 10.1989 16.4814 10.6934 16.4814 11.2266V11.3838C16.4814 11.917 16.404 12.4115 16.249 12.8672C16.0941 13.3229 15.8685 13.7217 15.5723 14.0635C15.2806 14.4007 14.9274 14.665 14.5127 14.8564C14.1025 15.0433 13.6377 15.1367 13.1182 15.1367C12.5986 15.1367 12.1315 15.0433 11.7168 14.8564C11.3021 14.665 10.9466 14.4007 10.6504 14.0635C10.3587 13.7217 10.1354 13.3229 9.98047 12.8672C9.82552 12.4115 9.74805 11.917 9.74805 11.3838ZM11.0127 11.2266V11.3838C11.0127 11.7529 11.056 12.1016 11.1426 12.4297C11.2292 12.7533 11.359 13.0404 11.5322 13.291C11.71 13.5417 11.931 13.7399 12.1953 13.8857C12.4596 14.027 12.7673 14.0977 13.1182 14.0977C13.4645 14.0977 13.7676 14.027 14.0273 13.8857C14.2917 13.7399 14.5104 13.5417 14.6836 13.291C14.8568 13.0404 14.9867 12.7533 15.0732 12.4297C15.1644 12.1016 15.21 11.7529 15.21 11.3838V11.2266C15.21 10.862 15.1644 10.5179 15.0732 10.1943C14.9867 9.86621 14.8545 9.57682 14.6768 9.32617C14.5036 9.07096 14.2848 8.87044 14.0205 8.72461C13.7607 8.57878 13.4554 8.50586 13.1045 8.50586C12.7581 8.50586 12.4528 8.57878 12.1885 8.72461C11.9287 8.87044 11.71 9.07096 11.5322 9.32617C11.359 9.57682 11.2292 9.86621 11.1426 10.1943C11.056 10.5179 11.0127 10.862 11.0127 11.2266ZM19.332 9.02539V17.8438H18.0605V7.60352H19.2227L19.332 9.02539ZM24.3154 11.2402V11.3838C24.3154 11.9215 24.2516 12.4206 24.124 12.8809C23.9964 13.3366 23.8096 13.7331 23.5635 14.0703C23.3219 14.4076 23.0234 14.6696 22.668 14.8564C22.3125 15.0433 21.9046 15.1367 21.4443 15.1367C20.9749 15.1367 20.5602 15.0592 20.2002 14.9043C19.8402 14.7493 19.5348 14.5238 19.2842 14.2275C19.0335 13.9313 18.833 13.5758 18.6826 13.1611C18.5368 12.7464 18.4365 12.2793 18.3818 11.7598V10.9941C18.4365 10.4473 18.5391 9.95736 18.6895 9.52441C18.8398 9.09147 19.0381 8.72233 19.2842 8.41699C19.5348 8.1071 19.8379 7.8724 20.1934 7.71289C20.5488 7.54883 20.959 7.4668 21.4238 7.4668C21.8887 7.4668 22.3011 7.55794 22.6611 7.74023C23.0212 7.91797 23.3242 8.17318 23.5703 8.50586C23.8164 8.83854 24.001 9.2373 24.124 9.70215C24.2516 10.1624 24.3154 10.6751 24.3154 11.2402ZM23.0439 11.3838V11.2402C23.0439 10.8711 23.0052 10.5247 22.9277 10.2012C22.8503 9.87305 22.7295 9.58594 22.5654 9.33984C22.4059 9.08919 22.2008 8.89323 21.9502 8.75195C21.6995 8.60612 21.401 8.5332 21.0547 8.5332C20.7357 8.5332 20.4577 8.58789 20.2207 8.69727C19.9883 8.80664 19.79 8.95475 19.626 9.1416C19.4619 9.32389 19.3275 9.53353 19.2227 9.77051C19.1224 10.0029 19.0472 10.2445 18.9971 10.4951V12.2656C19.0882 12.5846 19.2158 12.8854 19.3799 13.168C19.5439 13.446 19.7627 13.6715 20.0361 13.8447C20.3096 14.0133 20.6536 14.0977 21.0684 14.0977C21.4102 14.0977 21.7041 14.027 21.9502 13.8857C22.2008 13.7399 22.4059 13.5417 22.5654 13.291C22.7295 13.0404 22.8503 12.7533 22.9277 12.4297C23.0052 12.1016 23.0439 11.7529 23.0439 11.3838ZM27.9248 14.2344L29.9824 7.60352H31.3359L28.3691 16.1416C28.3008 16.3239 28.2096 16.5199 28.0957 16.7295C27.9863 16.9437 27.8451 17.1465 27.6719 17.3379C27.4987 17.5293 27.2891 17.6842 27.043 17.8027C26.8014 17.9258 26.512 17.9873 26.1748 17.9873C26.0745 17.9873 25.9469 17.9736 25.792 17.9463C25.637 17.9189 25.5277 17.8962 25.4639 17.8779L25.457 16.8525C25.4935 16.8571 25.5505 16.8617 25.6279 16.8662C25.71 16.8753 25.7669 16.8799 25.7988 16.8799C26.0859 16.8799 26.3298 16.8411 26.5303 16.7637C26.7308 16.6908 26.8994 16.5654 27.0361 16.3877C27.1774 16.2145 27.2982 15.9753 27.3984 15.6699L27.9248 14.2344ZM26.4141 7.60352L28.335 13.3457L28.6631 14.6787L27.7539 15.1436L25.0332 7.60352H26.4141ZM33.7422 8.76562V15H32.4775V7.60352H33.708L33.7422 8.76562ZM36.0527 7.5625L36.0459 8.73828C35.9411 8.71549 35.8408 8.70182 35.7451 8.69727C35.654 8.68815 35.5492 8.68359 35.4307 8.68359C35.139 8.68359 34.8815 8.72917 34.6582 8.82031C34.4349 8.91146 34.2458 9.03906 34.0908 9.20312C33.9359 9.36719 33.8128 9.56315 33.7217 9.79102C33.6351 10.0143 33.5781 10.2604 33.5508 10.5293L33.1953 10.7344C33.1953 10.2878 33.2386 9.86849 33.3252 9.47656C33.4163 9.08464 33.5553 8.73828 33.7422 8.4375C33.929 8.13216 34.166 7.89518 34.4531 7.72656C34.7448 7.55339 35.0911 7.4668 35.4922 7.4668C35.5833 7.4668 35.6882 7.47819 35.8066 7.50098C35.9251 7.51921 36.0072 7.53971 36.0527 7.5625ZM38.5957 7.60352V15H37.3242V7.60352H38.5957ZM37.2285 5.6416C37.2285 5.43652 37.29 5.26335 37.4131 5.12207C37.5407 4.98079 37.7275 4.91016 37.9736 4.91016C38.2152 4.91016 38.3997 4.98079 38.5273 5.12207C38.6595 5.26335 38.7256 5.43652 38.7256 5.6416C38.7256 5.83757 38.6595 6.00618 38.5273 6.14746C38.3997 6.28418 38.2152 6.35254 37.9736 6.35254C37.7275 6.35254 37.5407 6.28418 37.4131 6.14746C37.29 6.00618 37.2285 5.83757 37.2285 5.6416ZM45.418 7.60352H46.5664V14.8428C46.5664 15.4945 46.4342 16.0505 46.1699 16.5107C45.9056 16.971 45.5365 17.3197 45.0625 17.5566C44.5931 17.7982 44.0508 17.9189 43.4355 17.9189C43.1803 17.9189 42.8796 17.8779 42.5332 17.7959C42.1914 17.7184 41.8542 17.584 41.5215 17.3926C41.1934 17.2057 40.9176 16.9528 40.6943 16.6338L41.3574 15.8818C41.6673 16.2555 41.9909 16.5153 42.3281 16.6611C42.6699 16.807 43.0072 16.8799 43.3398 16.8799C43.7409 16.8799 44.0872 16.8047 44.3789 16.6543C44.6706 16.5039 44.8962 16.2806 45.0557 15.9844C45.2197 15.6927 45.3018 15.3327 45.3018 14.9043V9.23047L45.418 7.60352ZM40.3252 11.3838V11.2402C40.3252 10.6751 40.3913 10.1624 40.5234 9.70215C40.6602 9.2373 40.8538 8.83854 41.1045 8.50586C41.3597 8.17318 41.6673 7.91797 42.0273 7.74023C42.3874 7.55794 42.793 7.4668 43.2441 7.4668C43.709 7.4668 44.1146 7.54883 44.4609 7.71289C44.8118 7.8724 45.1081 8.1071 45.3496 8.41699C45.5957 8.72233 45.7894 9.09147 45.9307 9.52441C46.0719 9.95736 46.1699 10.4473 46.2246 10.9941V11.623C46.1745 12.1654 46.0765 12.653 45.9307 13.0859C45.7894 13.5189 45.5957 13.888 45.3496 14.1934C45.1081 14.4987 44.8118 14.7334 44.4609 14.8975C44.11 15.057 43.6999 15.1367 43.2305 15.1367C42.7884 15.1367 42.3874 15.0433 42.0273 14.8564C41.6719 14.6696 41.3665 14.4076 41.1113 14.0703C40.8561 13.7331 40.6602 13.3366 40.5234 12.8809C40.3913 12.4206 40.3252 11.9215 40.3252 11.3838ZM41.5898 11.2402V11.3838C41.5898 11.7529 41.6263 12.0993 41.6992 12.4229C41.7767 12.7464 41.8929 13.0312 42.0479 13.2773C42.2074 13.5234 42.4102 13.7171 42.6562 13.8584C42.9023 13.9951 43.1963 14.0635 43.5381 14.0635C43.9574 14.0635 44.3037 13.9746 44.5771 13.7969C44.8506 13.6191 45.0671 13.3844 45.2266 13.0928C45.3906 12.8011 45.5182 12.4844 45.6094 12.1426V10.4951C45.5592 10.2445 45.4818 10.0029 45.377 9.77051C45.2767 9.53353 45.1445 9.32389 44.9805 9.1416C44.821 8.95475 44.6227 8.80664 44.3857 8.69727C44.1488 8.58789 43.8708 8.5332 43.5518 8.5332C43.2054 8.5332 42.9069 8.60612 42.6562 8.75195C42.4102 8.89323 42.2074 9.08919 42.0479 9.33984C41.8929 9.58594 41.7767 9.87305 41.6992 10.2012C41.6263 10.5247 41.5898 10.8711 41.5898 11.2402ZM49.752 4.5V15H48.4873V4.5H49.752ZM49.4512 11.0215L48.9248 11.001C48.9294 10.4951 49.0046 10.028 49.1504 9.59961C49.2962 9.16667 49.5013 8.79069 49.7656 8.47168C50.0299 8.15267 50.3444 7.90658 50.709 7.7334C51.0781 7.55566 51.486 7.4668 51.9326 7.4668C52.2972 7.4668 52.6253 7.51693 52.917 7.61719C53.2087 7.71289 53.457 7.86784 53.6621 8.08203C53.8717 8.29622 54.0312 8.57422 54.1406 8.91602C54.25 9.25326 54.3047 9.66569 54.3047 10.1533V15H53.0332V10.1396C53.0332 9.75228 52.9762 9.44238 52.8623 9.20996C52.7484 8.97298 52.582 8.80208 52.3633 8.69727C52.1445 8.58789 51.8757 8.5332 51.5566 8.5332C51.2422 8.5332 50.9551 8.59928 50.6953 8.73145C50.4401 8.86361 50.2191 9.0459 50.0322 9.27832C49.8499 9.51074 49.7064 9.77734 49.6016 10.0781C49.5013 10.3743 49.4512 10.6888 49.4512 11.0215ZM59.2949 7.60352V8.57422H55.2959V7.60352H59.2949ZM56.6494 5.80566H57.9141V13.168C57.9141 13.4186 57.9528 13.6077 58.0303 13.7354C58.1077 13.863 58.208 13.9473 58.3311 13.9883C58.4541 14.0293 58.5863 14.0498 58.7275 14.0498C58.8324 14.0498 58.9417 14.0407 59.0557 14.0225C59.1742 13.9997 59.263 13.9814 59.3223 13.9678L59.3291 15C59.2288 15.0319 59.0967 15.0615 58.9326 15.0889C58.7731 15.1208 58.5794 15.1367 58.3516 15.1367C58.0417 15.1367 57.7568 15.0752 57.4971 14.9521C57.2373 14.8291 57.0299 14.624 56.875 14.3369C56.7246 14.0452 56.6494 13.6533 56.6494 13.1611V5.80566ZM69.9453 10.9121H70.9434C70.9434 11.6276 70.7383 12.1654 70.3281 12.5254C69.9225 12.8809 69.3711 13.0586 68.6738 13.0586C68.1908 13.0586 67.7715 12.9469 67.416 12.7236C67.0651 12.5003 66.7917 12.1904 66.5957 11.7939C66.4043 11.3975 66.3086 10.9372 66.3086 10.4131V9.62695C66.3086 9.10286 66.4043 8.64258 66.5957 8.24609C66.7917 7.84961 67.0651 7.53971 67.416 7.31641C67.7715 7.0931 68.1908 6.98145 68.6738 6.98145C69.3711 6.98145 69.9248 7.15918 70.335 7.51465C70.7451 7.87012 70.9502 8.4056 70.9502 9.12109H69.9521C69.9521 8.66992 69.8428 8.34635 69.624 8.15039C69.4098 7.95443 69.0931 7.85645 68.6738 7.85645C68.373 7.85645 68.1201 7.93164 67.915 8.08203C67.71 8.23242 67.555 8.44206 67.4502 8.71094C67.3454 8.97526 67.293 9.27832 67.293 9.62012V10.4131C67.293 10.7594 67.3454 11.0671 67.4502 11.3359C67.555 11.6003 67.71 11.8076 67.915 11.958C68.1201 12.1084 68.373 12.1836 68.6738 12.1836C69.0931 12.1836 69.4098 12.0856 69.624 11.8896C69.8382 11.6937 69.9453 11.3678 69.9453 10.9121ZM64.7021 10.0166C64.7021 10.6227 64.807 11.1878 65.0166 11.7119C65.2262 12.236 65.5179 12.694 65.8916 13.0859C66.2653 13.4779 66.6982 13.7832 67.1904 14.002C67.6826 14.2207 68.209 14.3301 68.7695 14.3301C69.3301 14.3301 69.8542 14.2207 70.3418 14.002C70.834 13.7832 71.2646 13.4779 71.6338 13.0859C72.0075 12.694 72.2992 12.236 72.5088 11.7119C72.7184 11.1878 72.8232 10.6227 72.8232 10.0166C72.8232 9.40592 72.7184 8.84082 72.5088 8.32129C72.2992 7.80176 72.0075 7.34831 71.6338 6.96094C71.2646 6.56901 70.834 6.26595 70.3418 6.05176C69.8542 5.83301 69.3301 5.72363 68.7695 5.72363C68.209 5.72363 67.6826 5.83301 67.1904 6.05176C66.6982 6.26595 66.2653 6.56901 65.8916 6.96094C65.5179 7.34831 65.2262 7.80176 65.0166 8.32129C64.807 8.84082 64.7021 9.40592 64.7021 10.0166ZM63.916 10.0166C63.916 9.29199 64.0413 8.61979 64.292 8C64.5426 7.38021 64.8913 6.84017 65.3379 6.37988C65.7845 5.91504 66.2995 5.55501 66.8828 5.2998C67.4707 5.04004 68.0996 4.91016 68.7695 4.91016C69.4395 4.91016 70.0661 5.04004 70.6494 5.2998C71.2373 5.55501 71.7523 5.91504 72.1943 6.37988C72.641 6.84017 72.9896 7.38021 73.2402 8C73.4909 8.61979 73.6162 9.29199 73.6162 10.0166C73.6162 10.7412 73.4909 11.4134 73.2402 12.0332C72.9896 12.653 72.641 13.1976 72.1943 13.667C71.7523 14.1318 71.2373 14.4941 70.6494 14.7539C70.0661 15.0137 69.4395 15.1436 68.7695 15.1436C68.0996 15.1436 67.4707 15.0137 66.8828 14.7539C66.2995 14.4941 65.7845 14.1318 65.3379 13.667C64.8913 13.1976 64.5426 12.653 64.292 12.0332C64.0413 11.4134 63.916 10.7412 63.916 10.0166ZM85.1143 13.9609V15H78.5996V14.0908L81.8604 10.4609C82.2614 10.0143 82.5713 9.63607 82.79 9.32617C83.0133 9.01172 83.1683 8.73145 83.2549 8.48535C83.346 8.2347 83.3916 7.97949 83.3916 7.71973C83.3916 7.3916 83.3232 7.09538 83.1865 6.83105C83.0544 6.56217 82.8584 6.34798 82.5986 6.18848C82.3389 6.02897 82.0244 5.94922 81.6553 5.94922C81.2132 5.94922 80.8441 6.03581 80.5479 6.20898C80.2562 6.3776 80.0374 6.61458 79.8916 6.91992C79.7458 7.22526 79.6729 7.57617 79.6729 7.97266H78.4082C78.4082 7.41211 78.5312 6.89941 78.7773 6.43457C79.0234 5.96973 79.388 5.60059 79.8711 5.32715C80.3542 5.04915 80.9489 4.91016 81.6553 4.91016C82.2842 4.91016 82.8219 5.02181 83.2686 5.24512C83.7152 5.46387 84.057 5.77376 84.2939 6.1748C84.5355 6.57129 84.6562 7.03613 84.6562 7.56934C84.6562 7.861 84.6061 8.15723 84.5059 8.45801C84.4102 8.75423 84.2757 9.05046 84.1025 9.34668C83.9339 9.6429 83.7357 9.93457 83.5078 10.2217C83.2845 10.5088 83.0452 10.7913 82.79 11.0693L80.124 13.9609H85.1143ZM92.7158 9.23047V10.748C92.7158 11.5638 92.6429 12.252 92.4971 12.8125C92.3512 13.373 92.1416 13.8242 91.8682 14.166C91.5947 14.5078 91.2643 14.7562 90.877 14.9111C90.4941 15.0615 90.0612 15.1367 89.5781 15.1367C89.1953 15.1367 88.8421 15.0889 88.5186 14.9932C88.195 14.8975 87.9033 14.7448 87.6436 14.5352C87.3883 14.321 87.1696 14.043 86.9873 13.7012C86.805 13.3594 86.666 12.9447 86.5703 12.457C86.4746 11.9694 86.4268 11.3997 86.4268 10.748V9.23047C86.4268 8.41471 86.4997 7.73112 86.6455 7.17969C86.7959 6.62826 87.0078 6.1862 87.2812 5.85352C87.5547 5.51628 87.8828 5.27474 88.2656 5.12891C88.653 4.98307 89.0859 4.91016 89.5645 4.91016C89.9518 4.91016 90.3073 4.95801 90.6309 5.05371C90.959 5.14486 91.2507 5.29297 91.5059 5.49805C91.7611 5.69857 91.9775 5.96745 92.1553 6.30469C92.3376 6.63737 92.4766 7.04525 92.5723 7.52832C92.668 8.01139 92.7158 8.57878 92.7158 9.23047ZM91.4443 10.9531V9.01855C91.4443 8.57194 91.417 8.18001 91.3623 7.84277C91.3122 7.50098 91.237 7.20931 91.1367 6.96777C91.0365 6.72624 90.9089 6.53027 90.7539 6.37988C90.6035 6.22949 90.4281 6.12012 90.2275 6.05176C90.0316 5.97884 89.8105 5.94238 89.5645 5.94238C89.2637 5.94238 88.9971 5.99935 88.7646 6.11328C88.5322 6.22266 88.3363 6.39811 88.1768 6.63965C88.0218 6.88118 87.9033 7.19792 87.8213 7.58984C87.7393 7.98177 87.6982 8.45801 87.6982 9.01855V10.9531C87.6982 11.3997 87.7233 11.7939 87.7734 12.1357C87.8281 12.4775 87.9079 12.7738 88.0127 13.0244C88.1175 13.2705 88.2451 13.4733 88.3955 13.6328C88.5459 13.7923 88.7191 13.9108 88.915 13.9883C89.1156 14.0612 89.3366 14.0977 89.5781 14.0977C89.888 14.0977 90.1592 14.0384 90.3916 13.9199C90.624 13.8014 90.8177 13.6169 90.9727 13.3662C91.1322 13.111 91.2507 12.7852 91.3281 12.3887C91.4056 11.9876 91.4443 11.5091 91.4443 10.9531ZM100.864 13.9609V15H94.3496V14.0908L97.6104 10.4609C98.0114 10.0143 98.3213 9.63607 98.54 9.32617C98.7633 9.01172 98.9183 8.73145 99.0049 8.48535C99.096 8.2347 99.1416 7.97949 99.1416 7.71973C99.1416 7.3916 99.0732 7.09538 98.9365 6.83105C98.8044 6.56217 98.6084 6.34798 98.3486 6.18848C98.0889 6.02897 97.7744 5.94922 97.4053 5.94922C96.9632 5.94922 96.5941 6.03581 96.2979 6.20898C96.0062 6.3776 95.7874 6.61458 95.6416 6.91992C95.4958 7.22526 95.4229 7.57617 95.4229 7.97266H94.1582C94.1582 7.41211 94.2812 6.89941 94.5273 6.43457C94.7734 5.96973 95.138 5.60059 95.6211 5.32715C96.1042 5.04915 96.6989 4.91016 97.4053 4.91016C98.0342 4.91016 98.5719 5.02181 99.0186 5.24512C99.4652 5.46387 99.807 5.77376 100.044 6.1748C100.285 6.57129 100.406 7.03613 100.406 7.56934C100.406 7.861 100.356 8.15723 100.256 8.45801C100.16 8.75423 100.026 9.05046 99.8525 9.34668C99.6839 9.6429 99.4857 9.93457 99.2578 10.2217C99.0345 10.5088 98.7952 10.7913 98.54 11.0693L95.874 13.9609H100.864ZM108.739 13.9609V15H102.225V14.0908L105.485 10.4609C105.886 10.0143 106.196 9.63607 106.415 9.32617C106.638 9.01172 106.793 8.73145 106.88 8.48535C106.971 8.2347 107.017 7.97949 107.017 7.71973C107.017 7.3916 106.948 7.09538 106.812 6.83105C106.679 6.56217 106.483 6.34798 106.224 6.18848C105.964 6.02897 105.649 5.94922 105.28 5.94922C104.838 5.94922 104.469 6.03581 104.173 6.20898C103.881 6.3776 103.662 6.61458 103.517 6.91992C103.371 7.22526 103.298 7.57617 103.298 7.97266H102.033C102.033 7.41211 102.156 6.89941 102.402 6.43457C102.648 5.96973 103.013 5.60059 103.496 5.32715C103.979 5.04915 104.574 4.91016 105.28 4.91016C105.909 4.91016 106.447 5.02181 106.894 5.24512C107.34 5.46387 107.682 5.77376 107.919 6.1748C108.16 6.57129 108.281 7.03613 108.281 7.56934C108.281 7.861 108.231 8.15723 108.131 8.45801C108.035 8.75423 107.901 9.05046 107.728 9.34668C107.559 9.6429 107.361 9.93457 107.133 10.2217C106.91 10.5088 106.67 10.7913 106.415 11.0693L103.749 13.9609H108.739ZM119.198 12.4844C119.198 12.252 119.162 12.0469 119.089 11.8691C119.021 11.6868 118.897 11.5228 118.72 11.377C118.547 11.2311 118.305 11.0921 117.995 10.96C117.69 10.8278 117.302 10.6934 116.833 10.5566C116.341 10.4108 115.896 10.249 115.5 10.0713C115.104 9.889 114.764 9.68164 114.481 9.44922C114.199 9.2168 113.982 8.9502 113.832 8.64941C113.682 8.34863 113.606 8.00456 113.606 7.61719C113.606 7.22982 113.686 6.87207 113.846 6.54395C114.005 6.21582 114.233 5.93099 114.529 5.68945C114.83 5.44336 115.188 5.25195 115.603 5.11523C116.017 4.97852 116.48 4.91016 116.99 4.91016C117.738 4.91016 118.371 5.05371 118.891 5.34082C119.415 5.62337 119.813 5.99479 120.087 6.45508C120.36 6.91081 120.497 7.39844 120.497 7.91797H119.185C119.185 7.54427 119.105 7.21387 118.945 6.92676C118.786 6.63509 118.544 6.40723 118.221 6.24316C117.897 6.07454 117.487 5.99023 116.99 5.99023C116.521 5.99023 116.133 6.06087 115.828 6.20215C115.523 6.34342 115.295 6.53483 115.145 6.77637C114.999 7.0179 114.926 7.29362 114.926 7.60352C114.926 7.81315 114.969 8.00456 115.056 8.17773C115.147 8.34635 115.286 8.50358 115.473 8.64941C115.664 8.79525 115.906 8.92969 116.197 9.05273C116.493 9.17578 116.847 9.29427 117.257 9.4082C117.822 9.56771 118.31 9.74544 118.72 9.94141C119.13 10.1374 119.467 10.3584 119.731 10.6045C120 10.846 120.199 11.1217 120.326 11.4316C120.458 11.737 120.524 12.0833 120.524 12.4707C120.524 12.8763 120.442 13.2432 120.278 13.5713C120.114 13.8994 119.88 14.1797 119.574 14.4121C119.269 14.6445 118.902 14.8245 118.474 14.9521C118.05 15.0752 117.576 15.1367 117.052 15.1367C116.591 15.1367 116.138 15.0729 115.691 14.9453C115.249 14.8177 114.846 14.6263 114.481 14.3711C114.121 14.1159 113.832 13.8014 113.613 13.4277C113.399 13.0495 113.292 12.612 113.292 12.1152H114.604C114.604 12.457 114.671 12.751 114.803 12.9971C114.935 13.2386 115.115 13.4391 115.343 13.5986C115.575 13.7581 115.837 13.8766 116.129 13.9541C116.425 14.027 116.733 14.0635 117.052 14.0635C117.512 14.0635 117.902 13.9997 118.221 13.8721C118.54 13.7445 118.781 13.5622 118.945 13.3252C119.114 13.0882 119.198 12.8079 119.198 12.4844ZM123.279 9.02539V17.8438H122.008V7.60352H123.17L123.279 9.02539ZM128.263 11.2402V11.3838C128.263 11.9215 128.199 12.4206 128.071 12.8809C127.944 13.3366 127.757 13.7331 127.511 14.0703C127.269 14.4076 126.971 14.6696 126.615 14.8564C126.26 15.0433 125.852 15.1367 125.392 15.1367C124.922 15.1367 124.507 15.0592 124.147 14.9043C123.787 14.7493 123.482 14.5238 123.231 14.2275C122.981 13.9313 122.78 13.5758 122.63 13.1611C122.484 12.7464 122.384 12.2793 122.329 11.7598V10.9941C122.384 10.4473 122.486 9.95736 122.637 9.52441C122.787 9.09147 122.985 8.72233 123.231 8.41699C123.482 8.1071 123.785 7.8724 124.141 7.71289C124.496 7.54883 124.906 7.4668 125.371 7.4668C125.836 7.4668 126.248 7.55794 126.608 7.74023C126.968 7.91797 127.271 8.17318 127.518 8.50586C127.764 8.83854 127.948 9.2373 128.071 9.70215C128.199 10.1624 128.263 10.6751 128.263 11.2402ZM126.991 11.3838V11.2402C126.991 10.8711 126.952 10.5247 126.875 10.2012C126.798 9.87305 126.677 9.58594 126.513 9.33984C126.353 9.08919 126.148 8.89323 125.897 8.75195C125.647 8.60612 125.348 8.5332 125.002 8.5332C124.683 8.5332 124.405 8.58789 124.168 8.69727C123.936 8.80664 123.737 8.95475 123.573 9.1416C123.409 9.32389 123.275 9.53353 123.17 9.77051C123.07 10.0029 122.994 10.2445 122.944 10.4951V12.2656C123.035 12.5846 123.163 12.8854 123.327 13.168C123.491 13.446 123.71 13.6715 123.983 13.8447C124.257 14.0133 124.601 14.0977 125.016 14.0977C125.357 14.0977 125.651 14.027 125.897 13.8857C126.148 13.7399 126.353 13.5417 126.513 13.291C126.677 13.0404 126.798 12.7533 126.875 12.4297C126.952 12.1016 126.991 11.7529 126.991 11.3838ZM131.141 8.76562V15H129.876V7.60352H131.106L131.141 8.76562ZM133.451 7.5625L133.444 8.73828C133.34 8.71549 133.239 8.70182 133.144 8.69727C133.052 8.68815 132.948 8.68359 132.829 8.68359C132.537 8.68359 132.28 8.72917 132.057 8.82031C131.833 8.91146 131.644 9.03906 131.489 9.20312C131.334 9.36719 131.211 9.56315 131.12 9.79102C131.034 10.0143 130.977 10.2604 130.949 10.5293L130.594 10.7344C130.594 10.2878 130.637 9.86849 130.724 9.47656C130.815 9.08464 130.954 8.73828 131.141 8.4375C131.327 8.13216 131.564 7.89518 131.852 7.72656C132.143 7.55339 132.49 7.4668 132.891 7.4668C132.982 7.4668 133.087 7.47819 133.205 7.50098C133.324 7.51921 133.406 7.53971 133.451 7.5625ZM135.994 7.60352V15H134.723V7.60352H135.994ZM134.627 5.6416C134.627 5.43652 134.688 5.26335 134.812 5.12207C134.939 4.98079 135.126 4.91016 135.372 4.91016C135.614 4.91016 135.798 4.98079 135.926 5.12207C136.058 5.26335 136.124 5.43652 136.124 5.6416C136.124 5.83757 136.058 6.00618 135.926 6.14746C135.798 6.28418 135.614 6.35254 135.372 6.35254C135.126 6.35254 134.939 6.28418 134.812 6.14746C134.688 6.00618 134.627 5.83757 134.627 5.6416ZM142.816 7.60352H143.965V14.8428C143.965 15.4945 143.833 16.0505 143.568 16.5107C143.304 16.971 142.935 17.3197 142.461 17.5566C141.992 17.7982 141.449 17.9189 140.834 17.9189C140.579 17.9189 140.278 17.8779 139.932 17.7959C139.59 17.7184 139.253 17.584 138.92 17.3926C138.592 17.2057 138.316 16.9528 138.093 16.6338L138.756 15.8818C139.066 16.2555 139.389 16.5153 139.727 16.6611C140.068 16.807 140.406 16.8799 140.738 16.8799C141.139 16.8799 141.486 16.8047 141.777 16.6543C142.069 16.5039 142.295 16.2806 142.454 15.9844C142.618 15.6927 142.7 15.3327 142.7 14.9043V9.23047L142.816 7.60352ZM137.724 11.3838V11.2402C137.724 10.6751 137.79 10.1624 137.922 9.70215C138.059 9.2373 138.252 8.83854 138.503 8.50586C138.758 8.17318 139.066 7.91797 139.426 7.74023C139.786 7.55794 140.191 7.4668 140.643 7.4668C141.107 7.4668 141.513 7.54883 141.859 7.71289C142.21 7.8724 142.507 8.1071 142.748 8.41699C142.994 8.72233 143.188 9.09147 143.329 9.52441C143.47 9.95736 143.568 10.4473 143.623 10.9941V11.623C143.573 12.1654 143.475 12.653 143.329 13.0859C143.188 13.5189 142.994 13.888 142.748 14.1934C142.507 14.4987 142.21 14.7334 141.859 14.8975C141.508 15.057 141.098 15.1367 140.629 15.1367C140.187 15.1367 139.786 15.0433 139.426 14.8564C139.07 14.6696 138.765 14.4076 138.51 14.0703C138.255 13.7331 138.059 13.3366 137.922 12.8809C137.79 12.4206 137.724 11.9215 137.724 11.3838ZM138.988 11.2402V11.3838C138.988 11.7529 139.025 12.0993 139.098 12.4229C139.175 12.7464 139.291 13.0312 139.446 13.2773C139.606 13.5234 139.809 13.7171 140.055 13.8584C140.301 13.9951 140.595 14.0635 140.937 14.0635C141.356 14.0635 141.702 13.9746 141.976 13.7969C142.249 13.6191 142.465 13.3844 142.625 13.0928C142.789 12.8011 142.917 12.4844 143.008 12.1426V10.4951C142.958 10.2445 142.88 10.0029 142.775 9.77051C142.675 9.53353 142.543 9.32389 142.379 9.1416C142.219 8.95475 142.021 8.80664 141.784 8.69727C141.547 8.58789 141.269 8.5332 140.95 8.5332C140.604 8.5332 140.305 8.60612 140.055 8.75195C139.809 8.89323 139.606 9.08919 139.446 9.33984C139.291 9.58594 139.175 9.87305 139.098 10.2012C139.025 10.5247 138.988 10.8711 138.988 11.2402ZM145.906 14.3301C145.906 14.1159 145.972 13.9359 146.104 13.79C146.241 13.6396 146.437 13.5645 146.692 13.5645C146.948 13.5645 147.141 13.6396 147.273 13.79C147.41 13.9359 147.479 14.1159 147.479 14.3301C147.479 14.5397 147.41 14.7174 147.273 14.8633C147.141 15.0091 146.948 15.082 146.692 15.082C146.437 15.082 146.241 15.0091 146.104 14.8633C145.972 14.7174 145.906 14.5397 145.906 14.3301ZM156.926 5.92871L153.631 15H152.284L156.078 5.04688H156.946L156.926 5.92871ZM159.688 15L156.386 5.92871L156.365 5.04688H157.233L161.041 15H159.688ZM159.517 11.3154V12.3955H153.925V11.3154H159.517ZM163.557 4.5V15H162.285V4.5H163.557ZM166.961 4.5V15H165.689V4.5H166.961ZM172.655 5.04688H175.95C176.698 5.04688 177.329 5.16081 177.844 5.38867C178.363 5.61654 178.757 5.95378 179.026 6.40039C179.3 6.84245 179.437 7.38704 179.437 8.03418C179.437 8.48991 179.343 8.9069 179.156 9.28516C178.974 9.65885 178.71 9.97786 178.363 10.2422C178.021 10.502 177.611 10.6956 177.133 10.8232L176.764 10.9668H173.667L173.653 9.89355H175.991C176.465 9.89355 176.859 9.81152 177.174 9.64746C177.488 9.47884 177.725 9.25326 177.885 8.9707C178.044 8.68815 178.124 8.37598 178.124 8.03418C178.124 7.65137 178.049 7.31641 177.898 7.0293C177.748 6.74219 177.511 6.52116 177.188 6.36621C176.868 6.20671 176.456 6.12695 175.95 6.12695H173.975V15H172.655V5.04688ZM178.473 15L176.053 10.4883L177.427 10.4814L179.881 14.918V15H178.473ZM182.465 7.60352V15H181.193V7.60352H182.465ZM181.098 5.6416C181.098 5.43652 181.159 5.26335 181.282 5.12207C181.41 4.98079 181.597 4.91016 181.843 4.91016C182.084 4.91016 182.269 4.98079 182.396 5.12207C182.529 5.26335 182.595 5.43652 182.595 5.6416C182.595 5.83757 182.529 6.00618 182.396 6.14746C182.269 6.28418 182.084 6.35254 181.843 6.35254C181.597 6.35254 181.41 6.28418 181.282 6.14746C181.159 6.00618 181.098 5.83757 181.098 5.6416ZM189.287 7.60352H190.436V14.8428C190.436 15.4945 190.303 16.0505 190.039 16.5107C189.775 16.971 189.406 17.3197 188.932 17.5566C188.462 17.7982 187.92 17.9189 187.305 17.9189C187.049 17.9189 186.749 17.8779 186.402 17.7959C186.061 17.7184 185.723 17.584 185.391 17.3926C185.062 17.2057 184.787 16.9528 184.563 16.6338L185.227 15.8818C185.536 16.2555 185.86 16.5153 186.197 16.6611C186.539 16.807 186.876 16.8799 187.209 16.8799C187.61 16.8799 187.956 16.8047 188.248 16.6543C188.54 16.5039 188.765 16.2806 188.925 15.9844C189.089 15.6927 189.171 15.3327 189.171 14.9043V9.23047L189.287 7.60352ZM184.194 11.3838V11.2402C184.194 10.6751 184.26 10.1624 184.393 9.70215C184.529 9.2373 184.723 8.83854 184.974 8.50586C185.229 8.17318 185.536 7.91797 185.896 7.74023C186.257 7.55794 186.662 7.4668 187.113 7.4668C187.578 7.4668 187.984 7.54883 188.33 7.71289C188.681 7.8724 188.977 8.1071 189.219 8.41699C189.465 8.72233 189.659 9.09147 189.8 9.52441C189.941 9.95736 190.039 10.4473 190.094 10.9941V11.623C190.044 12.1654 189.946 12.653 189.8 13.0859C189.659 13.5189 189.465 13.888 189.219 14.1934C188.977 14.4987 188.681 14.7334 188.33 14.8975C187.979 15.057 187.569 15.1367 187.1 15.1367C186.658 15.1367 186.257 15.0433 185.896 14.8564C185.541 14.6696 185.236 14.4076 184.98 14.0703C184.725 13.7331 184.529 13.3366 184.393 12.8809C184.26 12.4206 184.194 11.9215 184.194 11.3838ZM185.459 11.2402V11.3838C185.459 11.7529 185.495 12.0993 185.568 12.4229C185.646 12.7464 185.762 13.0312 185.917 13.2773C186.076 13.5234 186.279 13.7171 186.525 13.8584C186.771 13.9951 187.065 14.0635 187.407 14.0635C187.826 14.0635 188.173 13.9746 188.446 13.7969C188.72 13.6191 188.936 13.3844 189.096 13.0928C189.26 12.8011 189.387 12.4844 189.479 12.1426V10.4951C189.428 10.2445 189.351 10.0029 189.246 9.77051C189.146 9.53353 189.014 9.32389 188.85 9.1416C188.69 8.95475 188.492 8.80664 188.255 8.69727C188.018 8.58789 187.74 8.5332 187.421 8.5332C187.075 8.5332 186.776 8.60612 186.525 8.75195C186.279 8.89323 186.076 9.08919 185.917 9.33984C185.762 9.58594 185.646 9.87305 185.568 10.2012C185.495 10.5247 185.459 10.8711 185.459 11.2402ZM193.621 4.5V15H192.356V4.5H193.621ZM193.32 11.0215L192.794 11.001C192.799 10.4951 192.874 10.028 193.02 9.59961C193.165 9.16667 193.37 8.79069 193.635 8.47168C193.899 8.15267 194.214 7.90658 194.578 7.7334C194.947 7.55566 195.355 7.4668 195.802 7.4668C196.166 7.4668 196.494 7.51693 196.786 7.61719C197.078 7.71289 197.326 7.86784 197.531 8.08203C197.741 8.29622 197.9 8.57422 198.01 8.91602C198.119 9.25326 198.174 9.66569 198.174 10.1533V15H196.902V10.1396C196.902 9.75228 196.845 9.44238 196.731 9.20996C196.618 8.97298 196.451 8.80208 196.232 8.69727C196.014 8.58789 195.745 8.5332 195.426 8.5332C195.111 8.5332 194.824 8.59928 194.564 8.73145C194.309 8.86361 194.088 9.0459 193.901 9.27832C193.719 9.51074 193.576 9.77734 193.471 10.0781C193.37 10.3743 193.32 10.6888 193.32 11.0215ZM203.164 7.60352V8.57422H199.165V7.60352H203.164ZM200.519 5.80566H201.783V13.168C201.783 13.4186 201.822 13.6077 201.899 13.7354C201.977 13.863 202.077 13.9473 202.2 13.9883C202.323 14.0293 202.455 14.0498 202.597 14.0498C202.701 14.0498 202.811 14.0407 202.925 14.0225C203.043 13.9997 203.132 13.9814 203.191 13.9678L203.198 15C203.098 15.0319 202.966 15.0615 202.802 15.0889C202.642 15.1208 202.449 15.1367 202.221 15.1367C201.911 15.1367 201.626 15.0752 201.366 14.9521C201.106 14.8291 200.899 14.624 200.744 14.3369C200.594 14.0452 200.519 13.6533 200.519 13.1611V5.80566ZM208.954 13.0381C208.954 12.8558 208.913 12.6872 208.831 12.5322C208.754 12.3727 208.592 12.2292 208.346 12.1016C208.104 11.9694 207.74 11.8555 207.252 11.7598C206.842 11.6732 206.47 11.5706 206.138 11.4521C205.81 11.3337 205.529 11.1901 205.297 11.0215C205.069 10.8529 204.894 10.6546 204.771 10.4268C204.647 10.1989 204.586 9.93229 204.586 9.62695C204.586 9.33529 204.65 9.05957 204.777 8.7998C204.91 8.54004 205.094 8.3099 205.331 8.10938C205.573 7.90885 205.862 7.75163 206.199 7.6377C206.536 7.52376 206.912 7.4668 207.327 7.4668C207.92 7.4668 208.425 7.57161 208.845 7.78125C209.264 7.99089 209.585 8.27116 209.809 8.62207C210.032 8.96842 210.144 9.35352 210.144 9.77734H208.879C208.879 9.57227 208.817 9.37402 208.694 9.18262C208.576 8.98665 208.4 8.82487 208.168 8.69727C207.94 8.56966 207.66 8.50586 207.327 8.50586C206.976 8.50586 206.691 8.56055 206.473 8.66992C206.258 8.77474 206.101 8.90918 206.001 9.07324C205.905 9.2373 205.857 9.41048 205.857 9.59277C205.857 9.72949 205.88 9.85254 205.926 9.96191C205.976 10.0667 206.062 10.1647 206.186 10.2559C206.309 10.3424 206.482 10.4245 206.705 10.502C206.928 10.5794 207.213 10.6569 207.56 10.7344C208.166 10.8711 208.665 11.0352 209.057 11.2266C209.449 11.418 209.74 11.6527 209.932 11.9307C210.123 12.2087 210.219 12.5459 210.219 12.9424C210.219 13.266 210.15 13.5622 210.014 13.8311C209.882 14.0999 209.688 14.3324 209.433 14.5283C209.182 14.7197 208.881 14.8701 208.53 14.9795C208.184 15.0843 207.794 15.1367 207.361 15.1367C206.71 15.1367 206.158 15.0205 205.707 14.7881C205.256 14.5557 204.914 14.2549 204.682 13.8857C204.449 13.5166 204.333 13.127 204.333 12.7168H205.604C205.623 13.0632 205.723 13.3389 205.905 13.5439C206.088 13.7445 206.311 13.888 206.575 13.9746C206.84 14.0566 207.102 14.0977 207.361 14.0977C207.708 14.0977 207.997 14.0521 208.229 13.9609C208.466 13.8698 208.646 13.7445 208.77 13.585C208.893 13.4255 208.954 13.2432 208.954 13.0381ZM215.544 5.04688H218.839C219.586 5.04688 220.217 5.16081 220.732 5.38867C221.252 5.61654 221.646 5.95378 221.915 6.40039C222.188 6.84245 222.325 7.38704 222.325 8.03418C222.325 8.48991 222.232 8.9069 222.045 9.28516C221.863 9.65885 221.598 9.97786 221.252 10.2422C220.91 10.502 220.5 10.6956 220.021 10.8232L219.652 10.9668H216.556L216.542 9.89355H218.88C219.354 9.89355 219.748 9.81152 220.062 9.64746C220.377 9.47884 220.614 9.25326 220.773 8.9707C220.933 8.68815 221.013 8.37598 221.013 8.03418C221.013 7.65137 220.938 7.31641 220.787 7.0293C220.637 6.74219 220.4 6.52116 220.076 6.36621C219.757 6.20671 219.345 6.12695 218.839 6.12695H216.863V15H215.544V5.04688ZM221.361 15L218.941 10.4883L220.315 10.4814L222.77 14.918V15H221.361ZM227.049 15.1367C226.534 15.1367 226.067 15.0501 225.647 14.877C225.233 14.6992 224.875 14.4508 224.574 14.1318C224.278 13.8128 224.05 13.4346 223.891 12.9971C223.731 12.5596 223.651 12.0811 223.651 11.5615V11.2744C223.651 10.6729 223.74 10.1374 223.918 9.66797C224.096 9.19401 224.337 8.79297 224.643 8.46484C224.948 8.13672 225.294 7.88835 225.682 7.71973C226.069 7.55111 226.47 7.4668 226.885 7.4668C227.413 7.4668 227.869 7.55794 228.252 7.74023C228.639 7.92253 228.956 8.17773 229.202 8.50586C229.448 8.82943 229.631 9.21224 229.749 9.6543C229.868 10.0918 229.927 10.5703 229.927 11.0898V11.6572H224.403V10.625H228.662V10.5293C228.644 10.2012 228.576 9.88216 228.457 9.57227C228.343 9.26237 228.161 9.00716 227.91 8.80664C227.66 8.60612 227.318 8.50586 226.885 8.50586C226.598 8.50586 226.333 8.56738 226.092 8.69043C225.85 8.80892 225.643 8.98665 225.47 9.22363C225.297 9.46061 225.162 9.75 225.066 10.0918C224.971 10.4336 224.923 10.8278 224.923 11.2744V11.5615C224.923 11.9124 224.971 12.2428 225.066 12.5527C225.167 12.8581 225.31 13.127 225.497 13.3594C225.688 13.5918 225.919 13.7741 226.188 13.9062C226.461 14.0384 226.771 14.1045 227.117 14.1045C227.564 14.1045 227.942 14.0133 228.252 13.8311C228.562 13.6488 228.833 13.4049 229.065 13.0996L229.831 13.708C229.672 13.9495 229.469 14.1797 229.223 14.3984C228.977 14.6172 228.674 14.7949 228.313 14.9316C227.958 15.0684 227.536 15.1367 227.049 15.1367ZM235.71 13.0381C235.71 12.8558 235.669 12.6872 235.587 12.5322C235.509 12.3727 235.348 12.2292 235.102 12.1016C234.86 11.9694 234.495 11.8555 234.008 11.7598C233.598 11.6732 233.226 11.5706 232.894 11.4521C232.565 11.3337 232.285 11.1901 232.053 11.0215C231.825 10.8529 231.649 10.6546 231.526 10.4268C231.403 10.1989 231.342 9.93229 231.342 9.62695C231.342 9.33529 231.406 9.05957 231.533 8.7998C231.665 8.54004 231.85 8.3099 232.087 8.10938C232.328 7.90885 232.618 7.75163 232.955 7.6377C233.292 7.52376 233.668 7.4668 234.083 7.4668C234.675 7.4668 235.181 7.57161 235.601 7.78125C236.02 7.99089 236.341 8.27116 236.564 8.62207C236.788 8.96842 236.899 9.35352 236.899 9.77734H235.635C235.635 9.57227 235.573 9.37402 235.45 9.18262C235.332 8.98665 235.156 8.82487 234.924 8.69727C234.696 8.56966 234.416 8.50586 234.083 8.50586C233.732 8.50586 233.447 8.56055 233.229 8.66992C233.014 8.77474 232.857 8.90918 232.757 9.07324C232.661 9.2373 232.613 9.41048 232.613 9.59277C232.613 9.72949 232.636 9.85254 232.682 9.96191C232.732 10.0667 232.818 10.1647 232.941 10.2559C233.064 10.3424 233.238 10.4245 233.461 10.502C233.684 10.5794 233.969 10.6569 234.315 10.7344C234.922 10.8711 235.421 11.0352 235.812 11.2266C236.204 11.418 236.496 11.6527 236.688 11.9307C236.879 12.2087 236.975 12.5459 236.975 12.9424C236.975 13.266 236.906 13.5622 236.77 13.8311C236.637 14.0999 236.444 14.3324 236.188 14.5283C235.938 14.7197 235.637 14.8701 235.286 14.9795C234.94 15.0843 234.55 15.1367 234.117 15.1367C233.465 15.1367 232.914 15.0205 232.463 14.7881C232.012 14.5557 231.67 14.2549 231.438 13.8857C231.205 13.5166 231.089 13.127 231.089 12.7168H232.36C232.379 13.0632 232.479 13.3389 232.661 13.5439C232.843 13.7445 233.067 13.888 233.331 13.9746C233.595 14.0566 233.857 14.0977 234.117 14.0977C234.464 14.0977 234.753 14.0521 234.985 13.9609C235.222 13.8698 235.402 13.7445 235.525 13.585C235.648 13.4255 235.71 13.2432 235.71 13.0381ZM241.705 15.1367C241.19 15.1367 240.723 15.0501 240.304 14.877C239.889 14.6992 239.531 14.4508 239.23 14.1318C238.934 13.8128 238.706 13.4346 238.547 12.9971C238.387 12.5596 238.308 12.0811 238.308 11.5615V11.2744C238.308 10.6729 238.396 10.1374 238.574 9.66797C238.752 9.19401 238.993 8.79297 239.299 8.46484C239.604 8.13672 239.951 7.88835 240.338 7.71973C240.725 7.55111 241.126 7.4668 241.541 7.4668C242.07 7.4668 242.525 7.55794 242.908 7.74023C243.296 7.92253 243.612 8.17773 243.858 8.50586C244.104 8.82943 244.287 9.21224 244.405 9.6543C244.524 10.0918 244.583 10.5703 244.583 11.0898V11.6572H239.06V10.625H243.318V10.5293C243.3 10.2012 243.232 9.88216 243.113 9.57227C242.999 9.26237 242.817 9.00716 242.566 8.80664C242.316 8.60612 241.974 8.50586 241.541 8.50586C241.254 8.50586 240.99 8.56738 240.748 8.69043C240.507 8.80892 240.299 8.98665 240.126 9.22363C239.953 9.46061 239.818 9.75 239.723 10.0918C239.627 10.4336 239.579 10.8278 239.579 11.2744V11.5615C239.579 11.9124 239.627 12.2428 239.723 12.5527C239.823 12.8581 239.966 13.127 240.153 13.3594C240.345 13.5918 240.575 13.7741 240.844 13.9062C241.117 14.0384 241.427 14.1045 241.773 14.1045C242.22 14.1045 242.598 14.0133 242.908 13.8311C243.218 13.6488 243.489 13.4049 243.722 13.0996L244.487 13.708C244.328 13.9495 244.125 14.1797 243.879 14.3984C243.633 14.6172 243.33 14.7949 242.97 14.9316C242.614 15.0684 242.193 15.1367 241.705 15.1367ZM247.324 8.76562V15H246.06V7.60352H247.29L247.324 8.76562ZM249.635 7.5625L249.628 8.73828C249.523 8.71549 249.423 8.70182 249.327 8.69727C249.236 8.68815 249.131 8.68359 249.013 8.68359C248.721 8.68359 248.464 8.72917 248.24 8.82031C248.017 8.91146 247.828 9.03906 247.673 9.20312C247.518 9.36719 247.395 9.56315 247.304 9.79102C247.217 10.0143 247.16 10.2604 247.133 10.5293L246.777 10.7344C246.777 10.2878 246.821 9.86849 246.907 9.47656C246.998 9.08464 247.137 8.73828 247.324 8.4375C247.511 8.13216 247.748 7.89518 248.035 7.72656C248.327 7.55339 248.673 7.4668 249.074 7.4668C249.165 7.4668 249.27 7.47819 249.389 7.50098C249.507 7.51921 249.589 7.53971 249.635 7.5625ZM253.176 13.8584L255.199 7.60352H256.491L253.832 15H252.984L253.176 13.8584ZM251.487 7.60352L253.572 13.8926L253.716 15H252.868L250.188 7.60352H251.487ZM260.682 15.1367C260.167 15.1367 259.7 15.0501 259.28 14.877C258.866 14.6992 258.508 14.4508 258.207 14.1318C257.911 13.8128 257.683 13.4346 257.523 12.9971C257.364 12.5596 257.284 12.0811 257.284 11.5615V11.2744C257.284 10.6729 257.373 10.1374 257.551 9.66797C257.729 9.19401 257.97 8.79297 258.275 8.46484C258.581 8.13672 258.927 7.88835 259.314 7.71973C259.702 7.55111 260.103 7.4668 260.518 7.4668C261.046 7.4668 261.502 7.55794 261.885 7.74023C262.272 7.92253 262.589 8.17773 262.835 8.50586C263.081 8.82943 263.263 9.21224 263.382 9.6543C263.5 10.0918 263.56 10.5703 263.56 11.0898V11.6572H258.036V10.625H262.295V10.5293C262.277 10.2012 262.208 9.88216 262.09 9.57227C261.976 9.26237 261.794 9.00716 261.543 8.80664C261.292 8.60612 260.951 8.50586 260.518 8.50586C260.23 8.50586 259.966 8.56738 259.725 8.69043C259.483 8.80892 259.276 8.98665 259.103 9.22363C258.929 9.46061 258.795 9.75 258.699 10.0918C258.604 10.4336 258.556 10.8278 258.556 11.2744V11.5615C258.556 11.9124 258.604 12.2428 258.699 12.5527C258.799 12.8581 258.943 13.127 259.13 13.3594C259.321 13.5918 259.551 13.7741 259.82 13.9062C260.094 14.0384 260.404 14.1045 260.75 14.1045C261.197 14.1045 261.575 14.0133 261.885 13.8311C262.195 13.6488 262.466 13.4049 262.698 13.0996L263.464 13.708C263.304 13.9495 263.102 14.1797 262.855 14.3984C262.609 14.6172 262.306 14.7949 261.946 14.9316C261.591 15.0684 261.169 15.1367 260.682 15.1367ZM269.698 13.5645V4.5H270.97V15H269.808L269.698 13.5645ZM264.722 11.3838V11.2402C264.722 10.6751 264.79 10.1624 264.927 9.70215C265.068 9.2373 265.266 8.83854 265.521 8.50586C265.781 8.17318 266.089 7.91797 266.444 7.74023C266.804 7.55794 267.205 7.4668 267.647 7.4668C268.112 7.4668 268.518 7.54883 268.864 7.71289C269.215 7.8724 269.511 8.1071 269.753 8.41699C269.999 8.72233 270.193 9.09147 270.334 9.52441C270.475 9.95736 270.573 10.4473 270.628 10.9941V11.623C270.578 12.1654 270.48 12.653 270.334 13.0859C270.193 13.5189 269.999 13.888 269.753 14.1934C269.511 14.4987 269.215 14.7334 268.864 14.8975C268.513 15.057 268.103 15.1367 267.634 15.1367C267.201 15.1367 266.804 15.0433 266.444 14.8564C266.089 14.6696 265.781 14.4076 265.521 14.0703C265.266 13.7331 265.068 13.3366 264.927 12.8809C264.79 12.4206 264.722 11.9215 264.722 11.3838ZM265.993 11.2402V11.3838C265.993 11.7529 266.03 12.0993 266.103 12.4229C266.18 12.7464 266.299 13.0312 266.458 13.2773C266.618 13.5234 266.82 13.7171 267.066 13.8584C267.312 13.9951 267.606 14.0635 267.948 14.0635C268.368 14.0635 268.712 13.9746 268.98 13.7969C269.254 13.6191 269.473 13.3844 269.637 13.0928C269.801 12.8011 269.928 12.4844 270.02 12.1426V10.4951C269.965 10.2445 269.885 10.0029 269.78 9.77051C269.68 9.53353 269.548 9.32389 269.384 9.1416C269.224 8.95475 269.026 8.80664 268.789 8.69727C268.557 8.58789 268.281 8.5332 267.962 8.5332C267.616 8.5332 267.317 8.60612 267.066 8.75195C266.82 8.89323 266.618 9.08919 266.458 9.33984C266.299 9.58594 266.18 9.87305 266.103 10.2012C266.03 10.5247 265.993 10.8711 265.993 11.2402ZM272.959 14.3301C272.959 14.1159 273.025 13.9359 273.157 13.79C273.294 13.6396 273.49 13.5645 273.745 13.5645C274 13.5645 274.194 13.6396 274.326 13.79C274.463 13.9359 274.531 14.1159 274.531 14.3301C274.531 14.5397 274.463 14.7174 274.326 14.8633C274.194 15.0091 274 15.082 273.745 15.082C273.49 15.082 273.294 15.0091 273.157 14.8633C273.025 14.7174 272.959 14.5397 272.959 14.3301Z" fill="#94A0A4"/>
</svg>
