<svg width="650" height="24" viewBox="0 0 650 24" fill="none" xmlns="http://www.w3.org/2000/svg">
<path d="M2.47461 7.04688V17H1.15527V7.04688H2.47461ZM6.64453 11.5244V12.6045H2.1875V11.5244H6.64453ZM7.32129 7.04688V8.12695H2.1875V7.04688H7.32129ZM16.6168 15.9268V17H11.3463V15.9268H16.6168ZM11.6129 7.04688V17H10.2936V7.04688H11.6129ZM15.9195 11.3262V12.3994H11.3463V11.3262H15.9195ZM16.5484 7.04688V8.12695H11.3463V7.04688H16.5484ZM23.3352 7.92871L20.0402 17H18.6936L22.4875 7.04688H23.3557L23.3352 7.92871ZM26.0969 17L22.7951 7.92871L22.7746 7.04688H23.6428L27.4504 17H26.0969ZM25.926 13.3154V14.3955H20.3342V13.3154H25.926ZM32.9725 7.04688V17H31.6736V7.04688H32.9725ZM36.1717 7.04688V8.12695H28.4813V7.04688H36.1717ZM44.7426 7.04688H46.0551V13.7803C46.0551 14.5277 45.8887 15.1497 45.5561 15.6465C45.2234 16.1432 44.7813 16.5169 44.2299 16.7676C43.683 17.0137 43.0883 17.1367 42.4457 17.1367C41.7712 17.1367 41.1605 17.0137 40.6137 16.7676C40.0714 16.5169 39.6407 16.1432 39.3217 15.6465C39.0072 15.1497 38.85 14.5277 38.85 13.7803V7.04688H40.1557V13.7803C40.1557 14.2998 40.2514 14.7282 40.4428 15.0654C40.6342 15.4027 40.9008 15.6533 41.2426 15.8174C41.5889 15.9814 41.99 16.0635 42.4457 16.0635C42.906 16.0635 43.307 15.9814 43.6488 15.8174C43.9952 15.6533 44.2641 15.4027 44.4555 15.0654C44.6469 14.7282 44.7426 14.2998 44.7426 13.7803V7.04688ZM49.5264 7.04688H52.8213C53.5687 7.04688 54.1999 7.16081 54.7148 7.38867C55.2344 7.61654 55.6286 7.95378 55.8975 8.40039C56.1709 8.84245 56.3076 9.38704 56.3076 10.0342C56.3076 10.4899 56.2142 10.9069 56.0273 11.2852C55.8451 11.6589 55.5807 11.9779 55.2344 12.2422C54.8926 12.502 54.4824 12.6956 54.0039 12.8232L53.6348 12.9668H50.5381L50.5244 11.8936H52.8623C53.3363 11.8936 53.7305 11.8115 54.0449 11.6475C54.3594 11.4788 54.5964 11.2533 54.7559 10.9707C54.9154 10.6882 54.9951 10.376 54.9951 10.0342C54.9951 9.65137 54.9199 9.31641 54.7695 9.0293C54.6191 8.74219 54.3822 8.52116 54.0586 8.36621C53.7396 8.20671 53.3271 8.12695 52.8213 8.12695H50.8457V17H49.5264V7.04688ZM55.3438 17L52.9238 12.4883L54.2979 12.4814L56.752 16.918V17H55.3438ZM65.8766 15.9268V17H60.6061V15.9268H65.8766ZM60.8727 7.04688V17H59.5533V7.04688H60.8727ZM65.1793 11.3262V12.3994H60.6061V11.3262H65.1793ZM65.8082 7.04688V8.12695H60.6061V7.04688H65.8082ZM74.215 14.4844C74.215 14.252 74.1786 14.0469 74.1057 13.8691C74.0373 13.6868 73.9143 13.5228 73.7365 13.377C73.5633 13.2311 73.3218 13.0921 73.0119 12.96C72.7066 12.8278 72.3192 12.6934 71.8498 12.5566C71.3576 12.4108 70.9133 12.249 70.5168 12.0713C70.1203 11.889 69.7808 11.6816 69.4982 11.4492C69.2157 11.2168 68.9992 10.9502 68.8488 10.6494C68.6984 10.3486 68.6232 10.0046 68.6232 9.61719C68.6232 9.22982 68.703 8.87207 68.8625 8.54395C69.022 8.21582 69.2499 7.93099 69.5461 7.68945C69.8469 7.44336 70.2046 7.25195 70.6193 7.11523C71.0341 6.97852 71.4966 6.91016 72.007 6.91016C72.7544 6.91016 73.3879 7.05371 73.9074 7.34082C74.4315 7.62337 74.8303 7.99479 75.1037 8.45508C75.3772 8.91081 75.5139 9.39844 75.5139 9.91797H74.2014C74.2014 9.54427 74.1216 9.21387 73.9621 8.92676C73.8026 8.63509 73.5611 8.40723 73.2375 8.24316C72.9139 8.07454 72.5038 7.99023 72.007 7.99023C71.5376 7.99023 71.1503 8.06087 70.8449 8.20215C70.5396 8.34342 70.3117 8.53483 70.1613 8.77637C70.0155 9.0179 69.9426 9.29362 69.9426 9.60352C69.9426 9.81315 69.9859 10.0046 70.0725 10.1777C70.1636 10.3464 70.3026 10.5036 70.4895 10.6494C70.6809 10.7952 70.9224 10.9297 71.2141 11.0527C71.5103 11.1758 71.8635 11.2943 72.2736 11.4082C72.8387 11.5677 73.3264 11.7454 73.7365 11.9414C74.1467 12.1374 74.4839 12.3584 74.7482 12.6045C75.0171 12.846 75.2154 13.1217 75.343 13.4316C75.4751 13.737 75.5412 14.0833 75.5412 14.4707C75.5412 14.8763 75.4592 15.2432 75.2951 15.5713C75.1311 15.8994 74.8964 16.1797 74.591 16.4121C74.2857 16.6445 73.9188 16.8245 73.4904 16.9521C73.0666 17.0752 72.5926 17.1367 72.0686 17.1367C71.6083 17.1367 71.1548 17.0729 70.7082 16.9453C70.2661 16.8177 69.8628 16.6263 69.4982 16.3711C69.1382 16.1159 68.8488 15.8014 68.6301 15.4277C68.4159 15.0495 68.3088 14.612 68.3088 14.1152H69.6213C69.6213 14.457 69.6874 14.751 69.8195 14.9971C69.9517 15.2386 70.1317 15.4391 70.3596 15.5986C70.592 15.7581 70.854 15.8766 71.1457 15.9541C71.4419 16.027 71.7495 16.0635 72.0686 16.0635C72.5288 16.0635 72.9185 15.9997 73.2375 15.8721C73.5565 15.7445 73.798 15.5622 73.9621 15.3252C74.1307 15.0882 74.215 14.8079 74.215 14.4844Z" fill="#375361"/>
</svg>
