<svg width="104" height="52" viewBox="0 0 104 52" fill="none" xmlns="http://www.w3.org/2000/svg">
<path d="M2.44336 47H1.35938V39.9922C1.35938 39.5352 1.44141 39.1504 1.60547 38.8379C1.77344 38.5215 2.01367 38.2832 2.32617 38.123C2.63867 37.959 3.00977 37.877 3.43945 37.877C3.56445 37.877 3.68945 37.8848 3.81445 37.9004C3.94336 37.916 4.06836 37.9395 4.18945 37.9707L4.13086 38.8555C4.04883 38.8359 3.95508 38.8223 3.84961 38.8145C3.74805 38.8066 3.64648 38.8027 3.54492 38.8027C3.31445 38.8027 3.11523 38.8496 2.94727 38.9434C2.7832 39.0332 2.6582 39.166 2.57227 39.3418C2.48633 39.5176 2.44336 39.7344 2.44336 39.9922V47ZM3.79102 40.6602V41.4922H0.357422V40.6602H3.79102ZM4.71094 43.9004V43.7656C4.71094 43.3086 4.77734 42.8848 4.91016 42.4941C5.04297 42.0996 5.23438 41.7578 5.48438 41.4688C5.73438 41.1758 6.03711 40.9492 6.39258 40.7891C6.74805 40.625 7.14648 40.543 7.58789 40.543C8.0332 40.543 8.43359 40.625 8.78906 40.7891C9.14844 40.9492 9.45312 41.1758 9.70312 41.4688C9.95703 41.7578 10.1504 42.0996 10.2832 42.4941C10.416 42.8848 10.4824 43.3086 10.4824 43.7656V43.9004C10.4824 44.3574 10.416 44.7812 10.2832 45.1719C10.1504 45.5625 9.95703 45.9043 9.70312 46.1973C9.45312 46.4863 9.15039 46.7129 8.79492 46.877C8.44336 47.0371 8.04492 47.1172 7.59961 47.1172C7.1543 47.1172 6.75391 47.0371 6.39844 46.877C6.04297 46.7129 5.73828 46.4863 5.48438 46.1973C5.23438 45.9043 5.04297 45.5625 4.91016 45.1719C4.77734 44.7812 4.71094 44.3574 4.71094 43.9004ZM5.79492 43.7656V43.9004C5.79492 44.2168 5.83203 44.5156 5.90625 44.7969C5.98047 45.0742 6.0918 45.3203 6.24023 45.5352C6.39258 45.75 6.58203 45.9199 6.80859 46.0449C7.03516 46.166 7.29883 46.2266 7.59961 46.2266C7.89648 46.2266 8.15625 46.166 8.37891 46.0449C8.60547 45.9199 8.79297 45.75 8.94141 45.5352C9.08984 45.3203 9.20117 45.0742 9.27539 44.7969C9.35352 44.5156 9.39258 44.2168 9.39258 43.9004V43.7656C9.39258 43.4531 9.35352 43.1582 9.27539 42.8809C9.20117 42.5996 9.08789 42.3516 8.93555 42.1367C8.78711 41.918 8.59961 41.7461 8.37305 41.6211C8.15039 41.4961 7.88867 41.4336 7.58789 41.4336C7.29102 41.4336 7.0293 41.4961 6.80273 41.6211C6.58008 41.7461 6.39258 41.918 6.24023 42.1367C6.0918 42.3516 5.98047 42.5996 5.90625 42.8809C5.83203 43.1582 5.79492 43.4531 5.79492 43.7656ZM12.9258 41.6562V47H11.8418V40.6602H12.8965L12.9258 41.6562ZM14.9062 40.625L14.9004 41.6328C14.8105 41.6133 14.7246 41.6016 14.6426 41.5977C14.5645 41.5898 14.4746 41.5859 14.373 41.5859C14.123 41.5859 13.9023 41.625 13.7109 41.7031C13.5195 41.7812 13.3574 41.8906 13.2246 42.0312C13.0918 42.1719 12.9863 42.3398 12.9082 42.5352C12.834 42.7266 12.7852 42.9375 12.7617 43.168L12.457 43.3438C12.457 42.9609 12.4941 42.6016 12.5684 42.2656C12.6465 41.9297 12.7656 41.6328 12.9258 41.375C13.0859 41.1133 13.2891 40.9102 13.5352 40.7656C13.7852 40.6172 14.082 40.543 14.4258 40.543C14.5039 40.543 14.5938 40.5527 14.6953 40.5723C14.7969 40.5879 14.8672 40.6055 14.9062 40.625ZM16.9863 41.9199V47H15.8965V40.6602H16.9277L16.9863 41.9199ZM16.7637 43.5898L16.2598 43.5723C16.2637 43.1387 16.3203 42.7383 16.4297 42.3711C16.5391 42 16.7012 41.6777 16.916 41.4043C17.1309 41.1309 17.3984 40.9199 17.7188 40.7715C18.0391 40.6191 18.4102 40.543 18.832 40.543C19.1289 40.543 19.4023 40.5859 19.6523 40.6719C19.9023 40.7539 20.1191 40.8848 20.3027 41.0645C20.4863 41.2441 20.6289 41.4746 20.7305 41.7559C20.832 42.0371 20.8828 42.377 20.8828 42.7754V47H19.7988V42.8281C19.7988 42.4961 19.7422 42.2305 19.6289 42.0312C19.5195 41.832 19.3633 41.6875 19.1602 41.5977C18.957 41.5039 18.7188 41.457 18.4453 41.457C18.125 41.457 17.8574 41.5137 17.6426 41.627C17.4277 41.7402 17.2559 41.8965 17.127 42.0957C16.998 42.2949 16.9043 42.5234 16.8457 42.7812C16.791 43.0352 16.7637 43.3047 16.7637 43.5898ZM20.8711 42.9922L20.1445 43.2148C20.1484 42.8672 20.2051 42.5332 20.3145 42.2129C20.4277 41.8926 20.5898 41.6074 20.8008 41.3574C21.0156 41.1074 21.2793 40.9102 21.5918 40.7656C21.9043 40.6172 22.2617 40.543 22.6641 40.543C23.0039 40.543 23.3047 40.5879 23.5664 40.6777C23.832 40.7676 24.0547 40.9062 24.2344 41.0938C24.418 41.2773 24.5566 41.5137 24.6504 41.8027C24.7441 42.0918 24.791 42.4355 24.791 42.834V47H23.7012V42.8223C23.7012 42.4668 23.6445 42.1914 23.5312 41.9961C23.4219 41.7969 23.2656 41.6582 23.0625 41.5801C22.8633 41.498 22.625 41.457 22.3477 41.457C22.1094 41.457 21.8984 41.498 21.7148 41.5801C21.5312 41.6621 21.377 41.7754 21.252 41.9199C21.127 42.0605 21.0312 42.2227 20.9648 42.4062C20.9023 42.5898 20.8711 42.7852 20.8711 42.9922ZM29.0625 47.1172C28.6211 47.1172 28.2207 47.043 27.8613 46.8945C27.5059 46.7422 27.1992 46.5293 26.9414 46.2559C26.6875 45.9824 26.4922 45.6582 26.3555 45.2832C26.2188 44.9082 26.1504 44.498 26.1504 44.0527V43.8066C26.1504 43.291 26.2266 42.832 26.3789 42.4297C26.5312 42.0234 26.7383 41.6797 27 41.3984C27.2617 41.1172 27.5586 40.9043 27.8906 40.7598C28.2227 40.6152 28.5664 40.543 28.9219 40.543C29.375 40.543 29.7656 40.6211 30.0938 40.7773C30.4258 40.9336 30.6973 41.1523 30.9082 41.4336C31.1191 41.7109 31.2754 42.0391 31.377 42.418C31.4785 42.793 31.5293 43.2031 31.5293 43.6484V44.1348H26.7949V43.25H30.4453V43.168C30.4297 42.8867 30.3711 42.6133 30.2695 42.3477C30.1719 42.082 30.0156 41.8633 29.8008 41.6914C29.5859 41.5195 29.293 41.4336 28.9219 41.4336C28.6758 41.4336 28.4492 41.4863 28.2422 41.5918C28.0352 41.6934 27.8574 41.8457 27.709 42.0488C27.5605 42.252 27.4453 42.5 27.3633 42.793C27.2812 43.0859 27.2402 43.4238 27.2402 43.8066V44.0527C27.2402 44.3535 27.2812 44.6367 27.3633 44.9023C27.4492 45.1641 27.5723 45.3945 27.7324 45.5938C27.8965 45.793 28.0938 45.9492 28.3242 46.0625C28.5586 46.1758 28.8242 46.2324 29.1211 46.2324C29.5039 46.2324 29.8281 46.1543 30.0938 45.998C30.3594 45.8418 30.5918 45.6328 30.791 45.3711L31.4473 45.8926C31.3105 46.0996 31.1367 46.2969 30.9258 46.4844C30.7148 46.6719 30.4551 46.8242 30.1465 46.9414C29.8418 47.0586 29.4805 47.1172 29.0625 47.1172ZM33.8789 41.6562V47H32.7949V40.6602H33.8496L33.8789 41.6562ZM35.8594 40.625L35.8535 41.6328C35.7637 41.6133 35.6777 41.6016 35.5957 41.5977C35.5176 41.5898 35.4277 41.5859 35.3262 41.5859C35.0762 41.5859 34.8555 41.625 34.6641 41.7031C34.4727 41.7812 34.3105 41.8906 34.1777 42.0312C34.0449 42.1719 33.9395 42.3398 33.8613 42.5352C33.7871 42.7266 33.7383 42.9375 33.7148 43.168L33.4102 43.3438C33.4102 42.9609 33.4473 42.6016 33.5215 42.2656C33.5996 41.9297 33.7188 41.6328 33.8789 41.375C34.0391 41.1133 34.2422 40.9102 34.4883 40.7656C34.7383 40.6172 35.0352 40.543 35.3789 40.543C35.457 40.543 35.5469 40.5527 35.6484 40.5723C35.75 40.5879 35.8203 40.6055 35.8594 40.625ZM38.0391 38V47H36.9492V38H38.0391ZM41.5605 46.3438L43.3242 40.6602H44.4844L41.9414 47.9785C41.8828 48.1348 41.8047 48.3027 41.707 48.4824C41.6133 48.666 41.4922 48.8398 41.3438 49.0039C41.1953 49.168 41.0156 49.3008 40.8047 49.4023C40.5977 49.5078 40.3496 49.5605 40.0605 49.5605C39.9746 49.5605 39.8652 49.5488 39.7324 49.5254C39.5996 49.502 39.5059 49.4824 39.4512 49.4668L39.4453 48.5879C39.4766 48.5918 39.5254 48.5957 39.5918 48.5996C39.6621 48.6074 39.7109 48.6113 39.7383 48.6113C39.9844 48.6113 40.1934 48.5781 40.3652 48.5117C40.5371 48.4492 40.6816 48.3418 40.7988 48.1895C40.9199 48.041 41.0234 47.8359 41.1094 47.5742L41.5605 46.3438ZM40.2656 40.6602L41.9121 45.582L42.1934 46.7246L41.4141 47.123L39.082 40.6602H40.2656ZM53.4844 38.4688H54.6094V44.2402C54.6094 44.8809 54.4668 45.4141 54.1816 45.8398C53.8965 46.2656 53.5176 46.5859 53.0449 46.8008C52.5762 47.0117 52.0664 47.1172 51.5156 47.1172C50.9375 47.1172 50.4141 47.0117 49.9453 46.8008C49.4805 46.5859 49.1113 46.2656 48.8379 45.8398C48.5684 45.4141 48.4336 44.8809 48.4336 44.2402V38.4688H49.5527V44.2402C49.5527 44.6855 49.6348 45.0527 49.7988 45.3418C49.9629 45.6309 50.1914 45.8457 50.4844 45.9863C50.7812 46.127 51.125 46.1973 51.5156 46.1973C51.9102 46.1973 52.2539 46.127 52.5469 45.9863C52.8438 45.8457 53.0742 45.6309 53.2383 45.3418C53.4023 45.0527 53.4844 44.6855 53.4844 44.2402V38.4688ZM59.9121 45.3184C59.9121 45.1621 59.877 45.0176 59.8066 44.8848C59.7402 44.748 59.6016 44.625 59.3906 44.5156C59.1836 44.4023 58.8711 44.3047 58.4531 44.2227C58.1016 44.1484 57.7832 44.0605 57.498 43.959C57.2168 43.8574 56.9766 43.7344 56.7773 43.5898C56.582 43.4453 56.4316 43.2754 56.3262 43.0801C56.2207 42.8848 56.168 42.6562 56.168 42.3945C56.168 42.1445 56.2227 41.9082 56.332 41.6855C56.4453 41.4629 56.6035 41.2656 56.8066 41.0938C57.0137 40.9219 57.2617 40.7871 57.5508 40.6895C57.8398 40.5918 58.1621 40.543 58.5176 40.543C59.0254 40.543 59.459 40.6328 59.8184 40.8125C60.1777 40.9922 60.4531 41.2324 60.6445 41.5332C60.8359 41.8301 60.9316 42.1602 60.9316 42.5234H59.8477C59.8477 42.3477 59.7949 42.1777 59.6895 42.0137C59.5879 41.8457 59.4375 41.707 59.2383 41.5977C59.043 41.4883 58.8027 41.4336 58.5176 41.4336C58.2168 41.4336 57.9727 41.4805 57.7852 41.5742C57.6016 41.6641 57.4668 41.7793 57.3809 41.9199C57.2988 42.0605 57.2578 42.209 57.2578 42.3652C57.2578 42.4824 57.2773 42.5879 57.3164 42.6816C57.3594 42.7715 57.4336 42.8555 57.5391 42.9336C57.6445 43.0078 57.793 43.0781 57.9844 43.1445C58.1758 43.2109 58.4199 43.2773 58.7168 43.3438C59.2363 43.4609 59.6641 43.6016 60 43.7656C60.3359 43.9297 60.5859 44.1309 60.75 44.3691C60.9141 44.6074 60.9961 44.8965 60.9961 45.2363C60.9961 45.5137 60.9375 45.7676 60.8203 45.998C60.707 46.2285 60.541 46.4277 60.3223 46.5957C60.1074 46.7598 59.8496 46.8887 59.5488 46.9824C59.252 47.0723 58.918 47.1172 58.5469 47.1172C57.9883 47.1172 57.5156 47.0176 57.1289 46.8184C56.7422 46.6191 56.4492 46.3613 56.25 46.0449C56.0508 45.7285 55.9512 45.3945 55.9512 45.043H57.041C57.0566 45.3398 57.1426 45.5762 57.2988 45.752C57.4551 45.9238 57.6465 46.0469 57.873 46.1211C58.0996 46.1914 58.3242 46.2266 58.5469 46.2266C58.8438 46.2266 59.0918 46.1875 59.291 46.1094C59.4941 46.0312 59.6484 45.9238 59.7539 45.7871C59.8594 45.6504 59.9121 45.4941 59.9121 45.3184ZM65.0508 47.1172C64.6094 47.1172 64.209 47.043 63.8496 46.8945C63.4941 46.7422 63.1875 46.5293 62.9297 46.2559C62.6758 45.9824 62.4805 45.6582 62.3438 45.2832C62.207 44.9082 62.1387 44.498 62.1387 44.0527V43.8066C62.1387 43.291 62.2148 42.832 62.3672 42.4297C62.5195 42.0234 62.7266 41.6797 62.9883 41.3984C63.25 41.1172 63.5469 40.9043 63.8789 40.7598C64.2109 40.6152 64.5547 40.543 64.9102 40.543C65.3633 40.543 65.7539 40.6211 66.082 40.7773C66.4141 40.9336 66.6855 41.1523 66.8965 41.4336C67.1074 41.7109 67.2637 42.0391 67.3652 42.418C67.4668 42.793 67.5176 43.2031 67.5176 43.6484V44.1348H62.7832V43.25H66.4336V43.168C66.418 42.8867 66.3594 42.6133 66.2578 42.3477C66.1602 42.082 66.0039 41.8633 65.7891 41.6914C65.5742 41.5195 65.2812 41.4336 64.9102 41.4336C64.6641 41.4336 64.4375 41.4863 64.2305 41.5918C64.0234 41.6934 63.8457 41.8457 63.6973 42.0488C63.5488 42.252 63.4336 42.5 63.3516 42.793C63.2695 43.0859 63.2285 43.4238 63.2285 43.8066V44.0527C63.2285 44.3535 63.2695 44.6367 63.3516 44.9023C63.4375 45.1641 63.5605 45.3945 63.7207 45.5938C63.8848 45.793 64.082 45.9492 64.3125 46.0625C64.5469 46.1758 64.8125 46.2324 65.1094 46.2324C65.4922 46.2324 65.8164 46.1543 66.082 45.998C66.3477 45.8418 66.5801 45.6328 66.7793 45.3711L67.4355 45.8926C67.2988 46.0996 67.125 46.2969 66.9141 46.4844C66.7031 46.6719 66.4434 46.8242 66.1348 46.9414C65.8301 47.0586 65.4688 47.1172 65.0508 47.1172ZM69.8672 41.6562V47H68.7832V40.6602H69.8379L69.8672 41.6562ZM71.8477 40.625L71.8418 41.6328C71.752 41.6133 71.666 41.6016 71.584 41.5977C71.5059 41.5898 71.416 41.5859 71.3145 41.5859C71.0645 41.5859 70.8438 41.625 70.6523 41.7031C70.4609 41.7812 70.2988 41.8906 70.166 42.0312C70.0332 42.1719 69.9277 42.3398 69.8496 42.5352C69.7754 42.7266 69.7266 42.9375 69.7031 43.168L69.3984 43.3438C69.3984 42.9609 69.4355 42.6016 69.5098 42.2656C69.5879 41.9297 69.707 41.6328 69.8672 41.375C70.0273 41.1133 70.2305 40.9102 70.4766 40.7656C70.7266 40.6172 71.0234 40.543 71.3672 40.543C71.4453 40.543 71.5352 40.5527 71.6367 40.5723C71.7383 40.5879 71.8086 40.6055 71.8477 40.625ZM78.1875 46.0801V47H73.9219V46.0801H78.1875ZM74.1445 38.4688V47H73.0137V38.4688H74.1445ZM81.9492 47.1172C81.5078 47.1172 81.1074 47.043 80.748 46.8945C80.3926 46.7422 80.0859 46.5293 79.8281 46.2559C79.5742 45.9824 79.3789 45.6582 79.2422 45.2832C79.1055 44.9082 79.0371 44.498 79.0371 44.0527V43.8066C79.0371 43.291 79.1133 42.832 79.2656 42.4297C79.418 42.0234 79.625 41.6797 79.8867 41.3984C80.1484 41.1172 80.4453 40.9043 80.7773 40.7598C81.1094 40.6152 81.4531 40.543 81.8086 40.543C82.2617 40.543 82.6523 40.6211 82.9805 40.7773C83.3125 40.9336 83.584 41.1523 83.7949 41.4336C84.0059 41.7109 84.1621 42.0391 84.2637 42.418C84.3652 42.793 84.416 43.2031 84.416 43.6484V44.1348H79.6816V43.25H83.332V43.168C83.3164 42.8867 83.2578 42.6133 83.1562 42.3477C83.0586 42.082 82.9023 41.8633 82.6875 41.6914C82.4727 41.5195 82.1797 41.4336 81.8086 41.4336C81.5625 41.4336 81.3359 41.4863 81.1289 41.5918C80.9219 41.6934 80.7441 41.8457 80.5957 42.0488C80.4473 42.252 80.332 42.5 80.25 42.793C80.168 43.0859 80.127 43.4238 80.127 43.8066V44.0527C80.127 44.3535 80.168 44.6367 80.25 44.9023C80.3359 45.1641 80.459 45.3945 80.6191 45.5938C80.7832 45.793 80.9805 45.9492 81.2109 46.0625C81.4453 46.1758 81.7109 46.2324 82.0078 46.2324C82.3906 46.2324 82.7148 46.1543 82.9805 45.998C83.2461 45.8418 83.4785 45.6328 83.6777 45.3711L84.334 45.8926C84.1973 46.0996 84.0234 46.2969 83.8125 46.4844C83.6016 46.6719 83.3418 46.8242 83.0332 46.9414C82.7285 47.0586 82.3672 47.1172 81.9492 47.1172ZM89.4199 45.916V42.6523C89.4199 42.4023 89.3691 42.1855 89.2676 42.002C89.1699 41.8145 89.0215 41.6699 88.8223 41.5684C88.623 41.4668 88.377 41.416 88.084 41.416C87.8105 41.416 87.5703 41.4629 87.3633 41.5566C87.1602 41.6504 87 41.7734 86.8828 41.9258C86.7695 42.0781 86.7129 42.2422 86.7129 42.418H85.6289C85.6289 42.1914 85.6875 41.9668 85.8047 41.7441C85.9219 41.5215 86.0898 41.3203 86.3086 41.1406C86.5312 40.957 86.7969 40.8125 87.1055 40.707C87.418 40.5977 87.7656 40.543 88.1484 40.543C88.6094 40.543 89.0156 40.6211 89.3672 40.7773C89.7227 40.9336 90 41.1699 90.1992 41.4863C90.4023 41.7988 90.5039 42.1914 90.5039 42.6641V45.6172C90.5039 45.8281 90.5215 46.0527 90.5566 46.291C90.5957 46.5293 90.6523 46.7344 90.7266 46.9062V47H89.5957C89.541 46.875 89.498 46.709 89.4668 46.502C89.4355 46.291 89.4199 46.0957 89.4199 45.916ZM89.6074 43.1562L89.6191 43.918H88.5234C88.2148 43.918 87.9395 43.9434 87.6973 43.9941C87.4551 44.041 87.252 44.1133 87.0879 44.2109C86.9238 44.3086 86.7988 44.4316 86.7129 44.5801C86.627 44.7246 86.584 44.8945 86.584 45.0898C86.584 45.2891 86.6289 45.4707 86.7188 45.6348C86.8086 45.7988 86.9434 45.9297 87.123 46.0273C87.3066 46.1211 87.5312 46.168 87.7969 46.168C88.1289 46.168 88.4219 46.0977 88.6758 45.957C88.9297 45.8164 89.1309 45.6445 89.2793 45.4414C89.4316 45.2383 89.5137 45.041 89.5254 44.8496L89.9883 45.3711C89.9609 45.5352 89.8867 45.7168 89.7656 45.916C89.6445 46.1152 89.4824 46.3066 89.2793 46.4902C89.0801 46.6699 88.8418 46.8203 88.5645 46.9414C88.291 47.0586 87.9824 47.1172 87.6387 47.1172C87.209 47.1172 86.832 47.0332 86.5078 46.8652C86.1875 46.6973 85.9375 46.4727 85.7578 46.1914C85.582 45.9062 85.4941 45.5879 85.4941 45.2363C85.4941 44.8965 85.5605 44.5977 85.6934 44.3398C85.8262 44.0781 86.0176 43.8613 86.2676 43.6895C86.5176 43.5137 86.8184 43.3809 87.1699 43.291C87.5215 43.2012 87.9141 43.1562 88.3477 43.1562H89.6074ZM93.293 41.8789V49.4375H92.2031V40.6602H93.1992L93.293 41.8789ZM97.5645 43.7773V43.9004C97.5645 44.3613 97.5098 44.7891 97.4004 45.1836C97.291 45.5742 97.1309 45.9141 96.9199 46.2031C96.7129 46.4922 96.457 46.7168 96.1523 46.877C95.8477 47.0371 95.498 47.1172 95.1035 47.1172C94.7012 47.1172 94.3457 47.0508 94.0371 46.918C93.7285 46.7852 93.4668 46.5918 93.252 46.3379C93.0371 46.084 92.8652 45.7793 92.7363 45.4238C92.6113 45.0684 92.5254 44.668 92.4785 44.2227V43.5664C92.5254 43.0977 92.6133 42.6777 92.7422 42.3066C92.8711 41.9355 93.041 41.6191 93.252 41.3574C93.4668 41.0918 93.7266 40.8906 94.0312 40.7539C94.3359 40.6133 94.6875 40.543 95.0859 40.543C95.4844 40.543 95.8379 40.6211 96.1465 40.7773C96.4551 40.9297 96.7148 41.1484 96.9258 41.4336C97.1367 41.7188 97.2949 42.0605 97.4004 42.459C97.5098 42.8535 97.5645 43.293 97.5645 43.7773ZM96.4746 43.9004V43.7773C96.4746 43.4609 96.4414 43.1641 96.375 42.8867C96.3086 42.6055 96.2051 42.3594 96.0645 42.1484C95.9277 41.9336 95.752 41.7656 95.5371 41.6445C95.3223 41.5195 95.0664 41.457 94.7695 41.457C94.4961 41.457 94.2578 41.5039 94.0547 41.5977C93.8555 41.6914 93.6855 41.8184 93.5449 41.9785C93.4043 42.1348 93.2891 42.3145 93.1992 42.5176C93.1133 42.7168 93.0488 42.9238 93.0059 43.1387V44.6562C93.084 44.9297 93.1934 45.1875 93.334 45.4297C93.4746 45.668 93.6621 45.8613 93.8965 46.0098C94.1309 46.1543 94.4258 46.2266 94.7812 46.2266C95.0742 46.2266 95.3262 46.166 95.5371 46.0449C95.752 45.9199 95.9277 45.75 96.0645 45.5352C96.2051 45.3203 96.3086 45.0742 96.375 44.7969C96.4414 44.5156 96.4746 44.2168 96.4746 43.9004Z" fill="black"/>
<g clip-path="url(#clip0_1_1944)">
<path d="M14.4986 12.8025C10.558 11.907 8.52559 10.365 8.52559 8.175C8.52559 5.92275 10.65 4.1955 13.5135 4.1955C16.4383 4.1955 18.6547 6.07725 18.6547 8.5455V8.73H22.6881V8.54475C22.6881 4.01025 18.7781 0.58575 13.5748 0.58575C11.0809 0.58575 8.77244 1.3575 7.10957 2.77575C5.41602 4.227 4.49295 6.23175 4.49295 8.4225C4.49295 10.4895 5.29335 12.2475 6.86346 13.635C8.27949 14.8695 10.2498 15.795 12.7744 16.35C17.0232 17.307 19.1776 18.9105 19.1776 21.132C19.1776 23.538 16.8385 25.3582 13.7289 25.3582C10.5273 25.3582 8.09472 23.322 8.09472 20.6385V20.4532H4V20.6385C4 25.389 8.15606 28.9672 13.6361 28.9672C16.2535 28.9672 18.6854 28.1647 20.4402 26.6842C22.2258 25.173 23.2109 23.1067 23.2109 20.7922C23.2109 16.8127 20.2861 14.1292 14.4986 12.8025ZM37.1273 7.28025C33.9871 7.28025 31.185 8.69925 29.3687 11.1982V7.77375H25.5508V35.9692H29.3994V25.2337C31.2164 27.7327 33.9871 29.1517 37.158 29.1517C43.131 29.1517 47.6259 24.4627 47.6259 18.2317C47.5953 12 43.0996 7.2795 37.1273 7.2795V7.28025ZM43.5926 19.0327C43.2844 22.365 40.6371 25.0485 37.3121 25.3883C35.157 25.6042 33.156 24.987 31.6779 23.6295C30.1998 22.272 29.3687 20.3595 29.3687 18.231C29.3687 14.1285 32.417 11.0437 36.481 11.0437C38.574 11.0437 40.4523 11.8462 41.807 13.3267C43.1609 14.8072 43.808 16.8435 43.5926 19.0335V19.0327ZM94.7609 7.77375V11.1982C92.9447 8.69925 90.1433 7.311 86.9716 7.311C81.03 7.311 76.5351 11.9077 76.5351 18.0465C76.5351 24.1545 81.03 28.7812 86.9716 28.7812C90.1433 28.7812 92.9447 27.3937 94.7609 24.9255V25.4505C94.7609 29.7067 92.1136 32.4525 87.9875 32.4525C85.2168 32.4525 82.8769 31.2187 81.7998 29.1825L81.7377 29.0902H77.7664L77.8591 29.3678C78.5668 31.404 79.8601 33.1005 81.5843 34.2727C83.3392 35.445 85.5556 36.0615 87.9875 36.0615C91.1285 36.0615 93.7757 35.0745 95.6847 33.162C97.5937 31.2795 98.6095 28.6275 98.6095 25.512V7.773H94.7609V7.77375ZM92.6058 23.2905C90.9744 24.864 88.6345 25.5112 86.2019 25.08C83.2771 24.5865 80.9994 22.2105 80.5992 19.188C80.2603 16.7505 80.9994 14.4367 82.6002 12.8325C83.9242 11.5372 85.7097 10.8277 87.68 10.8277C88.1416 10.8277 88.5724 10.8585 89.0347 10.9515C91.9595 11.4142 94.2994 13.851 94.6689 16.8742C95.007 19.3725 94.2687 21.717 92.6058 23.2905ZM72.3177 0.0614998C71.8497 -0.0448279 71.3627 -0.0328452 70.9005 0.0963701C70.4382 0.225585 70.0153 0.46798 69.6697 0.80175C68.992 1.4805 68.7152 2.4675 68.9306 3.45525C69.1461 4.473 70.0078 5.337 71.0244 5.553C71.2398 5.6145 71.4552 5.6145 71.6707 5.6145C72.4097 5.6145 73.148 5.337 73.6716 4.782C74.3494 4.1025 74.6261 3.1155 74.4107 2.1285C74.1953 1.1415 73.3635 0.30825 72.317 0.0614998H72.3177ZM69.7617 24.9255H66.4367C64.0654 24.9255 62.6502 23.3212 62.6502 20.6377C62.6502 18.0157 63.9121 14.8687 66.498 11.0752L66.5294 11.013V9.933L55.5072 8.3595C55.5072 7.43475 55.015 6.54 54.2139 6.108C53.2287 5.553 52.1515 5.553 51.2591 6.07725C50.3967 6.57075 49.873 7.527 49.873 8.51475C49.871 9.06948 50.034 9.61223 50.3411 10.0737C50.6482 10.5351 51.0855 10.8942 51.5972 11.1052L48.1795 28.6275H51.9974L55.1691 11.9692L61.1107 12.987C59.5099 15.8557 58.7095 18.54 58.7095 20.946C58.7095 25.3882 61.3875 28.3185 65.7283 28.596V28.6275H73.5796V7.83525H69.731V24.9255H69.7617Z" fill="black"/>
</g>
<defs>
<clipPath id="clip0_1_1944">
<rect width="95" height="36" fill="white" transform="translate(4)"/>
</clipPath>
</defs>
</svg>
