<svg width="28" height="28" viewBox="0 0 28 28" fill="none" xmlns="http://www.w3.org/2000/svg">
<path fill-rule="evenodd" clip-rule="evenodd" d="M14 0C6.268 0 0 6.268 0 14C0 21.732 6.268 28 14 28C21.732 28 28 21.732 28 14C28 6.268 21.732 0 14 0ZM6.72 11.595H9.894V21.128H6.72V11.595ZM10.103 8.647C10.082 7.712 9.413 7 8.328 7C7.243 7 6.533 7.712 6.533 8.647C6.533 9.562 7.222 10.294 8.287 10.294H8.307C9.414 10.294 10.103 9.562 10.103 8.647ZM17.683 11.372C19.77 11.372 21.336 12.734 21.336 15.662V21.128H18.163V16.028C18.163 14.748 17.703 13.873 16.555 13.873C15.679 13.873 15.157 14.463 14.927 15.031C14.844 15.235 14.823 15.52 14.823 15.805V21.128H11.65C11.65 21.128 11.692 12.49 11.65 11.596H14.823V12.946C15.244 12.296 15.998 11.372 17.683 11.372Z" fill="#94A0A4"/>
</svg>
