<svg width="650" height="24" viewBox="0 0 650 24" fill="none" xmlns="http://www.w3.org/2000/svg">
<path d="M2.57031 7.04688V17H1.25098V7.04688H2.57031ZM14.026 7.04688V17H12.6998L7.68906 9.32324V17H6.36973V7.04688H7.68906L12.7203 14.7441V7.04688H14.026ZM21.2365 7.04688V17H19.9377V7.04688H21.2365ZM24.4357 7.04688V8.12695H16.7453V7.04688H24.4357ZM33.6355 15.9268V17H28.365V15.9268H33.6355ZM28.6316 7.04688V17H27.3123V7.04688H28.6316ZM32.9383 11.3262V12.3994H28.365V11.3262H32.9383ZM33.5672 7.04688V8.12695H28.365V7.04688H33.5672ZM44.0248 12.0439V15.6875C43.9018 15.8698 43.7058 16.0749 43.4369 16.3027C43.168 16.526 42.7966 16.722 42.3227 16.8906C41.8533 17.0547 41.2471 17.1367 40.5043 17.1367C39.8982 17.1367 39.3399 17.0319 38.8295 16.8223C38.3236 16.6081 37.8839 16.2982 37.5102 15.8926C37.141 15.4824 36.8539 14.9857 36.6488 14.4023C36.4483 13.8145 36.348 13.1491 36.348 12.4062V11.6338C36.348 10.891 36.4346 10.2279 36.6078 9.64453C36.7855 9.0612 37.0453 8.56673 37.3871 8.16113C37.7289 7.75098 38.1482 7.44108 38.6449 7.23145C39.1417 7.01725 39.7113 6.91016 40.3539 6.91016C41.115 6.91016 41.7507 7.04232 42.2611 7.30664C42.7761 7.56641 43.1771 7.92643 43.4643 8.38672C43.7559 8.84701 43.9428 9.37109 44.0248 9.95898H42.7055C42.6462 9.59896 42.5277 9.27083 42.35 8.97461C42.1768 8.67839 41.9284 8.44141 41.6049 8.26367C41.2813 8.08138 40.8643 7.99023 40.3539 7.99023C39.8936 7.99023 39.4949 8.07454 39.1576 8.24316C38.8204 8.41178 38.5424 8.65332 38.3236 8.96777C38.1049 9.28223 37.9408 9.66276 37.8314 10.1094C37.7266 10.556 37.6742 11.0596 37.6742 11.6201V12.4062C37.6742 12.9805 37.7403 13.4932 37.8725 13.9443C38.0092 14.3955 38.2029 14.7806 38.4535 15.0996C38.7042 15.4141 39.0027 15.6533 39.349 15.8174C39.6999 15.9814 40.0873 16.0635 40.5111 16.0635C40.9805 16.0635 41.3611 16.0247 41.6527 15.9473C41.9444 15.8652 42.1723 15.7695 42.3363 15.6602C42.5004 15.5462 42.6257 15.4391 42.7123 15.3389V13.1104H40.4086V12.0439H44.0248ZM47.6123 7.04688H50.9072C51.6546 7.04688 52.2858 7.16081 52.8008 7.38867C53.3203 7.61654 53.7145 7.95378 53.9834 8.40039C54.2568 8.84245 54.3936 9.38704 54.3936 10.0342C54.3936 10.4899 54.3001 10.9069 54.1133 11.2852C53.931 11.6589 53.6667 11.9779 53.3203 12.2422C52.9785 12.502 52.5684 12.6956 52.0898 12.8232L51.7207 12.9668H48.624L48.6104 11.8936H50.9482C51.4222 11.8936 51.8164 11.8115 52.1309 11.6475C52.4453 11.4788 52.6823 11.2533 52.8418 10.9707C53.0013 10.6882 53.0811 10.376 53.0811 10.0342C53.0811 9.65137 53.0059 9.31641 52.8555 9.0293C52.7051 8.74219 52.4681 8.52116 52.1445 8.36621C51.8255 8.20671 51.4131 8.12695 50.9072 8.12695H48.9316V17H47.6123V7.04688ZM53.4297 17L51.0098 12.4883L52.3838 12.4814L54.8379 16.918V17H53.4297ZM61.3238 7.92871L58.0289 17H56.6822L60.4762 7.04688H61.3443L61.3238 7.92871ZM64.0855 17L60.7838 7.92871L60.7633 7.04688H61.6314L65.4391 17H64.0855ZM63.9146 13.3154V14.3955H58.3229V13.3154H63.9146ZM70.9611 7.04688V17H69.6623V7.04688H70.9611ZM74.1604 7.04688V8.12695H66.4699V7.04688H74.1604ZM78.452 7.04688V17H77.1326V7.04688H78.452ZM89.9145 11.709V12.3379C89.9145 13.0853 89.821 13.7552 89.6342 14.3477C89.4473 14.9401 89.1784 15.4437 88.8275 15.8584C88.4766 16.2731 88.0551 16.5898 87.5629 16.8086C87.0753 17.0273 86.5284 17.1367 85.9223 17.1367C85.3344 17.1367 84.7943 17.0273 84.3021 16.8086C83.8145 16.5898 83.3907 16.2731 83.0307 15.8584C82.6752 15.4437 82.3995 14.9401 82.2035 14.3477C82.0076 13.7552 81.9096 13.0853 81.9096 12.3379V11.709C81.9096 10.9616 82.0053 10.2939 82.1967 9.70605C82.3926 9.11361 82.6684 8.61003 83.0238 8.19531C83.3793 7.77604 83.8008 7.45703 84.2885 7.23828C84.7807 7.01953 85.3207 6.91016 85.9086 6.91016C86.5147 6.91016 87.0616 7.01953 87.5492 7.23828C88.0414 7.45703 88.463 7.77604 88.8139 8.19531C89.1693 8.61003 89.4405 9.11361 89.6273 9.70605C89.8187 10.2939 89.9145 10.9616 89.9145 11.709ZM88.6088 12.3379V11.6953C88.6088 11.1029 88.5473 10.5788 88.4242 10.123C88.3057 9.66732 88.1303 9.28451 87.8979 8.97461C87.6654 8.66471 87.3806 8.43001 87.0434 8.27051C86.7107 8.111 86.3324 8.03125 85.9086 8.03125C85.4984 8.03125 85.127 8.111 84.7943 8.27051C84.4662 8.43001 84.1837 8.66471 83.9467 8.97461C83.7143 9.28451 83.5342 9.66732 83.4066 10.123C83.279 10.5788 83.2152 11.1029 83.2152 11.6953V12.3379C83.2152 12.9349 83.279 13.4635 83.4066 13.9238C83.5342 14.3796 83.7165 14.7646 83.9535 15.0791C84.1951 15.389 84.4799 15.6237 84.808 15.7832C85.1407 15.9427 85.5121 16.0225 85.9223 16.0225C86.3506 16.0225 86.7312 15.9427 87.0639 15.7832C87.3965 15.6237 87.6768 15.389 87.9047 15.0791C88.1371 14.7646 88.3126 14.3796 88.4311 13.9238C88.5495 13.4635 88.6088 12.9349 88.6088 12.3379ZM100.946 7.04688V17H99.6201L94.6094 9.32324V17H93.29V7.04688H94.6094L99.6406 14.7441V7.04688H100.946ZM109.989 14.4844C109.989 14.252 109.952 14.0469 109.879 13.8691C109.811 13.6868 109.688 13.5228 109.51 13.377C109.337 13.2311 109.096 13.0921 108.786 12.96C108.48 12.8278 108.093 12.6934 107.624 12.5566C107.131 12.4108 106.687 12.249 106.291 12.0713C105.894 11.889 105.555 11.6816 105.272 11.4492C104.99 11.2168 104.773 10.9502 104.623 10.6494C104.472 10.3486 104.397 10.0046 104.397 9.61719C104.397 9.22982 104.477 8.87207 104.636 8.54395C104.796 8.21582 105.024 7.93099 105.32 7.68945C105.621 7.44336 105.978 7.25195 106.393 7.11523C106.808 6.97852 107.27 6.91016 107.781 6.91016C108.528 6.91016 109.162 7.05371 109.681 7.34082C110.205 7.62337 110.604 7.99479 110.878 8.45508C111.151 8.91081 111.288 9.39844 111.288 9.91797H109.975C109.975 9.54427 109.895 9.21387 109.736 8.92676C109.576 8.63509 109.335 8.40723 109.011 8.24316C108.688 8.07454 108.278 7.99023 107.781 7.99023C107.311 7.99023 106.924 8.06087 106.619 8.20215C106.313 8.34342 106.086 8.53483 105.935 8.77637C105.789 9.0179 105.716 9.29362 105.716 9.60352C105.716 9.81315 105.76 10.0046 105.846 10.1777C105.937 10.3464 106.076 10.5036 106.263 10.6494C106.455 10.7952 106.696 10.9297 106.988 11.0527C107.284 11.1758 107.637 11.2943 108.047 11.4082C108.613 11.5677 109.1 11.7454 109.51 11.9414C109.921 12.1374 110.258 12.3584 110.522 12.6045C110.791 12.846 110.989 13.1217 111.117 13.4316C111.249 13.737 111.315 14.0833 111.315 14.4707C111.315 14.8763 111.233 15.2432 111.069 15.5713C110.905 15.8994 110.67 16.1797 110.365 16.4121C110.06 16.6445 109.693 16.8245 109.264 16.9521C108.84 17.0752 108.366 17.1367 107.842 17.1367C107.382 17.1367 106.929 17.0729 106.482 16.9453C106.04 16.8177 105.637 16.6263 105.272 16.3711C104.912 16.1159 104.623 15.8014 104.404 15.4277C104.19 15.0495 104.083 14.612 104.083 14.1152H105.395C105.395 14.457 105.461 14.751 105.593 14.9971C105.726 15.2386 105.906 15.4391 106.133 15.5986C106.366 15.7581 106.628 15.8766 106.92 15.9541C107.216 16.027 107.523 16.0635 107.842 16.0635C108.303 16.0635 108.692 15.9997 109.011 15.8721C109.33 15.7445 109.572 15.5622 109.736 15.3252C109.905 15.0882 109.989 14.8079 109.989 14.4844Z" fill="#375361"/>
</svg>
