<svg width="650" height="24" viewBox="0 0 650 24" fill="none" xmlns="http://www.w3.org/2000/svg">
<path d="M6.45996 14.4844C6.45996 14.252 6.4235 14.0469 6.35059 13.8691C6.28223 13.6868 6.15918 13.5228 5.98145 13.377C5.80827 13.2311 5.56673 13.0921 5.25684 12.96C4.9515 12.8278 4.56413 12.6934 4.09473 12.5566C3.60254 12.4108 3.1582 12.249 2.76172 12.0713C2.36523 11.889 2.02572 11.6816 1.74316 11.4492C1.46061 11.2168 1.24414 10.9502 1.09375 10.6494C0.943359 10.3486 0.868164 10.0046 0.868164 9.61719C0.868164 9.22982 0.947917 8.87207 1.10742 8.54395C1.26693 8.21582 1.49479 7.93099 1.79102 7.68945C2.0918 7.44336 2.44954 7.25195 2.86426 7.11523C3.27897 6.97852 3.74154 6.91016 4.25195 6.91016C4.99935 6.91016 5.63281 7.05371 6.15234 7.34082C6.67643 7.62337 7.0752 7.99479 7.34863 8.45508C7.62207 8.91081 7.75879 9.39844 7.75879 9.91797H6.44629C6.44629 9.54427 6.36654 9.21387 6.20703 8.92676C6.04753 8.63509 5.80599 8.40723 5.48242 8.24316C5.15885 8.07454 4.7487 7.99023 4.25195 7.99023C3.78255 7.99023 3.39518 8.06087 3.08984 8.20215C2.78451 8.34342 2.55664 8.53483 2.40625 8.77637C2.26042 9.0179 2.1875 9.29362 2.1875 9.60352C2.1875 9.81315 2.23079 10.0046 2.31738 10.1777C2.40853 10.3464 2.54753 10.5036 2.73438 10.6494C2.92578 10.7952 3.16732 10.9297 3.45898 11.0527C3.75521 11.1758 4.1084 11.2943 4.51855 11.4082C5.08366 11.5677 5.57129 11.7454 5.98145 11.9414C6.3916 12.1374 6.72884 12.3584 6.99316 12.6045C7.26204 12.846 7.46029 13.1217 7.58789 13.4316C7.72005 13.737 7.78613 14.0833 7.78613 14.4707C7.78613 14.8763 7.7041 15.2432 7.54004 15.5713C7.37598 15.8994 7.14128 16.1797 6.83594 16.4121C6.5306 16.6445 6.16374 16.8245 5.73535 16.9521C5.31152 17.0752 4.83757 17.1367 4.31348 17.1367C3.85319 17.1367 3.39974 17.0729 2.95312 16.9453C2.51107 16.8177 2.10775 16.6263 1.74316 16.3711C1.38314 16.1159 1.09375 15.8014 0.875 15.4277C0.660807 15.0495 0.553711 14.612 0.553711 14.1152H1.86621C1.86621 14.457 1.93229 14.751 2.06445 14.9971C2.19661 15.2386 2.37663 15.4391 2.60449 15.5986C2.83691 15.7581 3.09896 15.8766 3.39062 15.9541C3.68685 16.027 3.99447 16.0635 4.31348 16.0635C4.77376 16.0635 5.16341 15.9997 5.48242 15.8721C5.80143 15.7445 6.04297 15.5622 6.20703 15.3252C6.37565 15.0882 6.45996 14.8079 6.45996 14.4844ZM18.5309 11.709V12.3379C18.5309 13.0853 18.4374 13.7552 18.2506 14.3477C18.0637 14.9401 17.7949 15.4437 17.4439 15.8584C17.093 16.2731 16.6715 16.5898 16.1793 16.8086C15.6917 17.0273 15.1448 17.1367 14.5387 17.1367C13.9508 17.1367 13.4107 17.0273 12.9186 16.8086C12.4309 16.5898 12.0071 16.2731 11.6471 15.8584C11.2916 15.4437 11.0159 14.9401 10.8199 14.3477C10.624 13.7552 10.526 13.0853 10.526 12.3379V11.709C10.526 10.9616 10.6217 10.2939 10.8131 9.70605C11.009 9.11361 11.2848 8.61003 11.6402 8.19531C11.9957 7.77604 12.4173 7.45703 12.9049 7.23828C13.3971 7.01953 13.9371 6.91016 14.525 6.91016C15.1311 6.91016 15.678 7.01953 16.1656 7.23828C16.6578 7.45703 17.0794 7.77604 17.4303 8.19531C17.7857 8.61003 18.0569 9.11361 18.2437 9.70605C18.4352 10.2939 18.5309 10.9616 18.5309 11.709ZM17.2252 12.3379V11.6953C17.2252 11.1029 17.1637 10.5788 17.0406 10.123C16.9221 9.66732 16.7467 9.28451 16.5143 8.97461C16.2818 8.66471 15.997 8.43001 15.6598 8.27051C15.3271 8.111 14.9488 8.03125 14.525 8.03125C14.1148 8.03125 13.7434 8.111 13.4107 8.27051C13.0826 8.43001 12.8001 8.66471 12.5631 8.97461C12.3307 9.28451 12.1507 9.66732 12.023 10.123C11.8954 10.5788 11.8316 11.1029 11.8316 11.6953V12.3379C11.8316 12.9349 11.8954 13.4635 12.023 13.9238C12.1507 14.3796 12.3329 14.7646 12.5699 15.0791C12.8115 15.389 13.0963 15.6237 13.4244 15.7832C13.7571 15.9427 14.1285 16.0225 14.5387 16.0225C14.9671 16.0225 15.3476 15.9427 15.6803 15.7832C16.013 15.6237 16.2932 15.389 16.5211 15.0791C16.7535 14.7646 16.929 14.3796 17.0475 13.9238C17.166 13.4635 17.2252 12.9349 17.2252 12.3379ZM27.9426 15.9268V17H22.966V15.9268H27.9426ZM23.2258 7.04688V17H21.9064V7.04688H23.2258ZM36.1785 7.04688H37.491V13.7803C37.491 14.5277 37.3247 15.1497 36.992 15.6465C36.6593 16.1432 36.2173 16.5169 35.6658 16.7676C35.1189 17.0137 34.5242 17.1367 33.8816 17.1367C33.2072 17.1367 32.5965 17.0137 32.0496 16.7676C31.5073 16.5169 31.0766 16.1432 30.7576 15.6465C30.4432 15.1497 30.2859 14.5277 30.2859 13.7803V7.04688H31.5916V13.7803C31.5916 14.2998 31.6873 14.7282 31.8787 15.0654C32.0701 15.4027 32.3367 15.6533 32.6785 15.8174C33.0249 15.9814 33.4259 16.0635 33.8816 16.0635C34.3419 16.0635 34.743 15.9814 35.0848 15.8174C35.4311 15.6533 35.7 15.4027 35.8914 15.0654C36.0828 14.7282 36.1785 14.2998 36.1785 13.7803V7.04688ZM44.64 7.04688V17H43.3412V7.04688H44.64ZM47.8393 7.04688V8.12695H40.1488V7.04688H47.8393ZM52.1309 7.04688V17H50.8115V7.04688H52.1309ZM63.5934 11.709V12.3379C63.5934 13.0853 63.4999 13.7552 63.3131 14.3477C63.1262 14.9401 62.8574 15.4437 62.5064 15.8584C62.1555 16.2731 61.734 16.5898 61.2418 16.8086C60.7542 17.0273 60.2073 17.1367 59.6012 17.1367C59.0133 17.1367 58.4732 17.0273 57.9811 16.8086C57.4934 16.5898 57.0696 16.2731 56.7096 15.8584C56.3541 15.4437 56.0784 14.9401 55.8824 14.3477C55.6865 13.7552 55.5885 13.0853 55.5885 12.3379V11.709C55.5885 10.9616 55.6842 10.2939 55.8756 9.70605C56.0716 9.11361 56.3473 8.61003 56.7027 8.19531C57.0582 7.77604 57.4798 7.45703 57.9674 7.23828C58.4596 7.01953 58.9996 6.91016 59.5875 6.91016C60.1936 6.91016 60.7405 7.01953 61.2281 7.23828C61.7203 7.45703 62.1419 7.77604 62.4928 8.19531C62.8482 8.61003 63.1194 9.11361 63.3063 9.70605C63.4977 10.2939 63.5934 10.9616 63.5934 11.709ZM62.2877 12.3379V11.6953C62.2877 11.1029 62.2262 10.5788 62.1031 10.123C61.9846 9.66732 61.8092 9.28451 61.5768 8.97461C61.3443 8.66471 61.0595 8.43001 60.7223 8.27051C60.3896 8.111 60.0113 8.03125 59.5875 8.03125C59.1773 8.03125 58.8059 8.111 58.4732 8.27051C58.1451 8.43001 57.8626 8.66471 57.6256 8.97461C57.3932 9.28451 57.2132 9.66732 57.0855 10.123C56.9579 10.5788 56.8941 11.1029 56.8941 11.6953V12.3379C56.8941 12.9349 56.9579 13.4635 57.0855 13.9238C57.2132 14.3796 57.3954 14.7646 57.6324 15.0791C57.874 15.389 58.1588 15.6237 58.4869 15.7832C58.8196 15.9427 59.191 16.0225 59.6012 16.0225C60.0296 16.0225 60.4101 15.9427 60.7428 15.7832C61.0755 15.6237 61.3557 15.389 61.5836 15.0791C61.816 14.7646 61.9915 14.3796 62.11 13.9238C62.2285 13.4635 62.2877 12.9349 62.2877 12.3379ZM74.6252 7.04688V17H73.299L68.2883 9.32324V17H66.9689V7.04688H68.2883L73.3195 14.7441V7.04688H74.6252ZM83.6678 14.4844C83.6678 14.252 83.6313 14.0469 83.5584 13.8691C83.49 13.6868 83.367 13.5228 83.1893 13.377C83.0161 13.2311 82.7745 13.0921 82.4646 12.96C82.1593 12.8278 81.7719 12.6934 81.3025 12.5566C80.8103 12.4108 80.366 12.249 79.9695 12.0713C79.573 11.889 79.2335 11.6816 78.951 11.4492C78.6684 11.2168 78.452 10.9502 78.3016 10.6494C78.1512 10.3486 78.076 10.0046 78.076 9.61719C78.076 9.22982 78.1557 8.87207 78.3152 8.54395C78.4747 8.21582 78.7026 7.93099 78.9988 7.68945C79.2996 7.44336 79.6574 7.25195 80.0721 7.11523C80.4868 6.97852 80.9493 6.91016 81.4598 6.91016C82.2072 6.91016 82.8406 7.05371 83.3602 7.34082C83.8842 7.62337 84.283 7.99479 84.5564 8.45508C84.8299 8.91081 84.9666 9.39844 84.9666 9.91797H83.6541C83.6541 9.54427 83.5743 9.21387 83.4148 8.92676C83.2553 8.63509 83.0138 8.40723 82.6902 8.24316C82.3667 8.07454 81.9565 7.99023 81.4598 7.99023C80.9904 7.99023 80.603 8.06087 80.2977 8.20215C79.9923 8.34342 79.7645 8.53483 79.6141 8.77637C79.4682 9.0179 79.3953 9.29362 79.3953 9.60352C79.3953 9.81315 79.4386 10.0046 79.5252 10.1777C79.6163 10.3464 79.7553 10.5036 79.9422 10.6494C80.1336 10.7952 80.3751 10.9297 80.6668 11.0527C80.963 11.1758 81.3162 11.2943 81.7264 11.4082C82.2915 11.5677 82.7791 11.7454 83.1893 11.9414C83.5994 12.1374 83.9367 12.3584 84.201 12.6045C84.4699 12.846 84.6681 13.1217 84.7957 13.4316C84.9279 13.737 84.9939 14.0833 84.9939 14.4707C84.9939 14.8763 84.9119 15.2432 84.7478 15.5713C84.5838 15.8994 84.3491 16.1797 84.0437 16.4121C83.7384 16.6445 83.3715 16.8245 82.9432 16.9521C82.5193 17.0752 82.0454 17.1367 81.5213 17.1367C81.061 17.1367 80.6075 17.0729 80.1609 16.9453C79.7189 16.8177 79.3156 16.6263 78.951 16.3711C78.5909 16.1159 78.3016 15.8014 78.0828 15.4277C77.8686 15.0495 77.7615 14.612 77.7615 14.1152H79.074C79.074 14.457 79.1401 14.751 79.2723 14.9971C79.4044 15.2386 79.5844 15.4391 79.8123 15.5986C80.0447 15.7581 80.3068 15.8766 80.5984 15.9541C80.8947 16.027 81.2023 16.0635 81.5213 16.0635C81.9816 16.0635 82.3712 15.9997 82.6902 15.8721C83.0092 15.7445 83.2508 15.5622 83.4148 15.3252C83.5835 15.0882 83.6678 14.8079 83.6678 14.4844Z" fill="#6A7981"/>
</svg>
