<svg width="127" height="48" viewBox="0 0 127 48" fill="none" xmlns="http://www.w3.org/2000/svg">
<g clip-path="url(#clip0_1_2707)">
<path d="M14.035 17.07C8.767 15.876 6.05 13.82 6.05 10.9C6.05 7.89702 8.89 5.59402 12.718 5.59402C16.628 5.59402 19.591 8.10302 19.591 11.394V11.64H24.983V11.393C24.983 5.34702 19.756 0.781018 12.8 0.781018C9.466 0.781018 6.38 1.81002 4.157 3.70102C1.893 5.63602 0.659 8.30902 0.659 11.23C0.659 13.986 1.729 16.33 3.828 18.18C5.721 19.826 8.355 21.06 11.73 21.8C17.41 23.076 20.29 25.214 20.29 28.176C20.29 31.384 17.163 33.811 13.006 33.811C8.726 33.811 5.474 31.096 5.474 27.518V27.271H0V27.518C0 33.852 5.556 38.623 12.882 38.623C16.381 38.623 19.632 37.553 21.978 35.579C24.365 33.564 25.682 30.809 25.682 27.723C25.682 22.417 21.772 18.839 14.035 17.07ZM44.286 9.70702C40.088 9.70702 36.342 11.599 33.914 14.931V10.365H28.81V47.959H33.955V33.645C36.384 36.977 40.088 38.869 44.327 38.869C52.312 38.869 58.321 32.617 58.321 24.309C58.28 16 52.27 9.70602 44.286 9.70602V9.70702ZM52.929 25.377C52.517 29.82 48.978 33.398 44.533 33.851C41.652 34.139 38.977 33.316 37.001 31.506C35.025 29.696 33.914 27.146 33.914 24.308C33.914 18.838 37.989 14.725 43.422 14.725C46.22 14.725 48.731 15.795 50.542 17.769C52.352 19.743 53.217 22.458 52.929 25.378V25.377ZM121.333 10.365V14.931C118.905 11.599 115.16 9.74802 110.92 9.74802C102.977 9.74802 96.968 15.877 96.968 24.062C96.968 32.206 102.977 38.375 110.92 38.375C115.16 38.375 118.905 36.525 121.333 33.234V33.934C121.333 39.609 117.794 43.27 112.278 43.27C108.574 43.27 105.446 41.625 104.006 38.91L103.923 38.787H98.614L98.738 39.157C99.684 41.872 101.413 44.134 103.718 45.697C106.064 47.26 109.027 48.082 112.278 48.082C116.477 48.082 120.016 46.766 122.568 44.216C125.12 41.706 126.478 38.17 126.478 34.016V10.364H121.333V10.365ZM118.452 31.054C116.271 33.152 113.143 34.015 109.891 33.44C105.981 32.782 102.936 29.614 102.401 25.584C101.948 22.334 102.936 19.249 105.076 17.11C106.846 15.383 109.233 14.437 111.867 14.437C112.484 14.437 113.06 14.478 113.678 14.602C117.588 15.219 120.716 18.468 121.21 22.499C121.662 25.83 120.675 28.956 118.452 31.054ZM91.33 0.0820175C90.7044 -0.0597528 90.0533 -0.0437757 89.4354 0.128511C88.8174 0.300798 88.252 0.623991 87.79 1.06902C86.884 1.97402 86.514 3.29002 86.802 4.60702C87.09 5.96402 88.242 7.11602 89.601 7.40402C89.889 7.48602 90.177 7.48602 90.465 7.48602C91.453 7.48602 92.44 7.11602 93.14 6.37602C94.046 5.47002 94.416 4.15402 94.128 2.83802C93.84 1.52202 92.728 0.411018 91.329 0.0820175H91.33ZM87.913 33.234H83.468C80.298 33.234 78.406 31.095 78.406 27.517C78.406 24.021 80.093 19.825 83.55 14.767L83.592 14.684V13.244L68.857 11.146C68.857 9.91302 68.199 8.72002 67.128 8.14402C65.811 7.40402 64.371 7.40402 63.178 8.10302C62.025 8.76102 61.325 10.036 61.325 11.353C61.3223 12.0927 61.5401 12.8163 61.9507 13.4316C62.3613 14.0468 62.9459 14.5257 63.63 14.807L59.061 38.17H64.165L68.405 15.959L76.348 17.316C74.208 21.141 73.138 24.72 73.138 27.928C73.138 33.851 76.718 37.758 82.521 38.128V38.17H93.017V10.447H87.872V33.234H87.913Z" fill="white"/>
</g>
<defs>
<clipPath id="clip0_1_2707">
<rect width="127" height="48" fill="white"/>
</clipPath>
</defs>
</svg>
