<svg width="467" height="484" viewBox="0 0 467 484" fill="none" xmlns="http://www.w3.org/2000/svg">
<g clip-path="url(#clip0_1_2304)">
<path d="M163.724 295.343C219.849 282.287 251.897 210.88 235.306 135.852C218.714 60.8234 159.766 10.5846 103.641 23.6403C47.5159 36.6961 15.4676 108.103 32.059 183.131C48.6504 258.159 107.599 308.398 163.724 295.343Z" fill="#F78D9A"/>
<path d="M239.237 133.527C246.149 165.312 245.549 199.331 233.967 230.113C228.325 245.614 219.573 259.729 208.278 271.544C196.942 283.616 182.43 292.05 166.507 295.819C150.584 299.589 133.936 298.532 118.588 292.777C103.391 287.25 89.4988 278.505 77.8138 267.11C54.3341 244.452 39.1227 214.35 31.7695 182.662C24.4163 150.973 25.4578 116.889 37.0399 86.1076C42.682 70.6057 51.4336 56.4912 62.7287 44.6765C74.0649 32.6043 88.5769 24.1705 104.5 20.4009C120.423 16.6313 137.071 17.6882 152.419 23.4431C167.616 28.9701 181.508 37.7156 193.193 49.1108C216.673 71.7685 231.884 101.871 239.237 133.527L232.925 135.015C225.825 104.46 211.118 75.329 188.743 53.869C177.713 43.094 164.595 34.8224 150.241 29.593C136.012 24.2338 120.569 23.2441 105.8 26.745C91.031 30.2459 77.5771 38.0856 67.0838 49.3051C56.4597 60.458 48.2444 73.7806 42.9729 88.4056C32.0535 117.731 31.2646 150.52 37.955 181.172C44.6455 211.825 59.7622 240.859 82.1374 262.286C93.1606 273.078 106.28 281.361 120.639 286.595C134.868 291.954 150.312 292.944 165.081 289.443C179.85 285.943 193.303 278.103 203.797 266.883C214.463 255.727 222.721 242.394 228.034 227.75C238.953 198.425 239.742 165.636 233.052 134.984L239.237 133.527Z" fill="#0B2330"/>
<path d="M165.348 257.932C206.874 247.573 229.866 194.172 216.701 138.657C203.537 83.1431 159.201 46.5374 117.675 56.8963C76.1481 67.2553 53.1564 120.656 66.3211 176.171C79.4857 231.685 123.822 268.291 165.348 257.932Z" fill="white"/>
<path d="M69.4205 175.409C74.6488 198.318 86.2995 219.156 102.936 235.355C111.201 243.253 120.997 249.276 131.686 253.028C142.252 256.88 153.685 257.486 164.583 254.772C175.48 252.058 185.369 246.142 193.036 237.75C200.828 229.409 206.828 219.485 210.646 208.618C218.008 186.337 219.048 162.37 213.645 139.506C208.243 116.642 196.619 95.8225 180.129 79.4701C171.855 71.5826 162.061 65.562 151.379 61.7972C140.808 57.9616 129.377 57.367 118.482 60.0858C107.587 62.8047 97.6995 68.7194 90.0284 77.1073C82.2334 85.4451 76.2338 95.3699 72.4186 106.239C64.8905 128.476 63.8702 152.487 69.4836 175.312L63.1719 176.833C57.2601 152.752 58.3573 127.421 66.3277 103.973C70.4176 92.22 76.8686 81.4794 85.263 72.4462C93.7475 63.1806 104.677 56.6466 116.719 53.6407C128.761 50.6349 141.396 51.2871 153.083 55.5178C164.625 59.5489 175.207 66.0346 184.137 74.5502C201.616 91.7373 213.955 113.68 219.706 137.804C225.458 161.928 224.384 187.235 216.611 210.755C212.529 222.521 206.077 233.274 197.676 242.314C189.161 251.606 178.193 258.155 166.111 261.16C154.028 264.166 141.354 263.5 129.635 259.242C118.091 255.199 107.509 248.702 98.5808 240.177C81.0682 223.077 68.824 201.089 63.3612 176.93L69.4205 175.409Z" fill="#0B2330"/>
<path d="M157.614 208.305C178.621 203.33 190.524 176.522 184.2 148.427C177.876 120.331 155.719 101.588 134.712 106.562C113.704 111.536 101.801 138.345 108.125 166.44C114.449 194.536 136.606 213.279 157.614 208.305Z" fill="#C9316F"/>
<path d="M187.294 147.668C190.245 160.214 189.532 173.373 185.243 185.507C182.978 191.561 179.519 197.071 175.081 201.69C170.533 206.532 164.715 209.919 158.331 211.441C151.946 212.963 145.268 212.556 139.104 210.268C133.085 208.094 127.587 204.63 122.978 200.105C114.072 191.089 107.858 179.656 105.063 167.147C102.268 154.638 103.009 141.57 107.198 129.477C109.416 123.349 112.868 117.768 117.329 113.099C121.94 108.347 127.738 104.988 134.086 103.389C140.48 101.959 147.135 102.385 153.306 104.618C159.31 106.808 164.802 110.258 169.432 114.75C178.436 123.692 184.68 135.15 187.389 147.7L181.077 149.157C178.64 137.878 173.046 127.574 164.982 119.508C156.998 111.739 145.826 107.24 135.38 109.798C124.934 112.355 116.824 121.288 112.973 131.873C109.307 142.747 108.709 154.46 111.25 165.668C113.79 176.875 119.365 187.117 127.333 195.216C135.285 202.985 146.457 207.484 156.903 204.927C167.349 202.37 175.46 193.404 179.31 182.852C183.122 171.967 183.748 160.175 181.109 148.93L187.294 147.668Z" fill="#0B2330"/>
<path d="M79.1405 20.853C78.888 19.9791 69.1363 22.1478 57.3649 28.8479C50.871 32.4755 44.8751 36.9708 39.5341 42.2159L35.3999 46.3267L31.6129 50.7934C29.2074 53.6564 26.953 56.6493 24.8593 59.7594C23.7232 61.3454 22.2399 64.032 20.1255 67.463C19.0209 69.1461 18.1373 71.2176 16.9696 73.3864C15.6994 75.7615 14.5512 78.2033 13.5297 80.7015C7.77846 94.0483 3.83899 108.141 1.82135 122.586C-3.65801 162.605 3.29885 203.378 21.7034 239.111C31.4792 257.825 44.8186 274.334 60.931 287.663C75.6197 299.508 92.5778 308.044 110.699 312.716C124.662 316.277 139.135 317.242 153.43 315.564C161.098 314.119 168.62 311.952 175.9 309.09C182.977 306.29 189.696 302.616 195.908 298.15C201.904 293.784 207.427 288.77 212.382 283.196C221.408 272.935 225.7 263.775 225.005 263.322C224.311 262.869 218.694 271.026 209.226 280.023C204.109 284.944 198.575 289.385 192.689 293.294C186.658 297.179 180.261 300.433 173.596 303.005C166.682 305.74 159.542 307.832 152.262 309.252C138.825 310.725 125.241 309.783 112.119 306.469C94.8926 302.001 78.7677 293.886 64.7812 282.646C49.3269 269.817 36.5449 253.934 27.1946 235.938C9.47073 201.455 2.75874 162.132 8.00688 123.524C9.92476 109.663 13.6836 96.1381 19.1787 83.3233C20.2201 80.7338 21.3878 78.4357 22.3346 76.3642C23.2813 74.2926 24.2912 72.2859 25.3327 70.6998C27.3209 67.463 28.741 64.8735 29.814 63.3846C31.8653 60.6333 33.6957 57.526 36.1258 54.7748L39.6288 50.5022L43.6052 46.3267C48.4696 41.2019 53.879 36.6528 59.7318 32.7645C70.4618 25.514 79.5192 21.8888 79.1405 20.853Z" fill="#0B2330"/>
<path d="M300.046 51.1794L145.092 148.607C144.455 148.754 143.788 148.694 143.185 148.436C142.582 148.177 142.072 147.733 141.726 147.164C141.379 146.596 141.214 145.931 141.251 145.262C141.289 144.593 141.528 143.952 141.936 143.429L296.89 46.0005C297.774 45.4503 305.095 42.44 305.948 43.8642C306.8 45.2884 300.803 50.6291 300.046 51.1794Z" fill="#0B2330"/>
<path d="M339.525 89.2139L149.541 159.614C148.817 159.704 148.084 159.534 147.469 159.133C146.853 158.731 146.392 158.124 146.164 157.413C145.863 156.725 145.822 155.945 146.05 155.228C146.277 154.511 146.756 153.904 147.395 153.529L337.379 83.1288C338.483 82.7079 347.067 81.0572 347.667 82.7403C348.267 84.4234 340.629 88.7932 339.525 89.2139Z" fill="#0B2330"/>
<path d="M302.233 139.222L153.907 169.939C153.055 169.939 151.824 168.871 151.477 167.123C151.13 165.376 151.793 163.886 152.645 163.595L300.971 132.878C301.823 132.716 308.451 132.878 308.798 134.561C309.145 136.244 303.212 139.06 302.233 139.222Z" fill="#0B2330"/>
<path d="M279.922 65.2297L296.554 67.4632L338.937 40.5006L311.45 36.0986L322.148 13.9588L278.66 34.5448L273.074 55.3898C272.759 56.6199 270.613 59.7919 269.161 59.3712C267.709 58.9504 267.425 55.131 267.741 53.9009L274.053 30.4989L334.172 2.04736L319.718 31.6965L354.433 37.2638L297.627 73.3541L279.039 70.8617C277.808 70.8617 274.463 68.9521 274.652 67.3984C274.842 65.8447 278.692 65.0679 279.922 65.2297Z" fill="#0B2330"/>
<path d="M317.631 95.1042L332.369 103.293L371.596 90.7346L355.059 78.8555L361.687 59.4347L322.522 72.3819L316.558 92.4501C316.242 93.4859 314.191 96.0753 312.739 95.6869C311.287 95.2985 310.972 91.8998 311.287 90.864L318.072 67.9798L370.586 50.4688L361.655 76.7839L383.999 92.8062L331.8 109.508L314.98 100.154C314.064 99.6681 312.013 96.9169 312.739 95.6869C313.465 94.457 316.715 94.5864 317.631 95.1042Z" fill="#0B2330"/>
<path d="M275.56 145.176L288.784 154.692L322.425 143.104L311.506 134.462L315.861 119.573L280.326 125.334L273.414 136.955C272.973 137.731 270.606 139.252 269.312 138.443C268.018 137.634 268.239 134.785 268.681 134.041L276.949 120.025L323.656 112.452L317.912 132.229L333.976 144.95L287.9 160.842L272.373 149.901C271.679 149.383 270.353 146.891 271.237 145.629C272.121 144.367 274.803 144.658 275.56 145.176Z" fill="#0B2330"/>
</g>
<defs>
<clipPath id="clip0_1_2304">
<rect width="384" height="320" fill="white"/>
</clipPath>
</defs>
</svg>
