<svg width="147" height="24" viewBox="0 0 147 24" fill="none" xmlns="http://www.w3.org/2000/svg">
<path d="M0 5C0 2.79086 1.79086 1 4 1H143C145.209 1 147 2.79086 147 5V20C147 22.2091 145.209 24 143 24H4C1.79086 24 0 22.2091 0 20V5Z" fill="#E7EAEB"/>
<path d="M11.7441 14.7051L14.2578 7.46875H15.4824L12.3242 16H11.4512L11.7441 14.7051ZM9.39453 7.46875L11.8848 14.7051L12.1953 16H11.3223L8.16992 7.46875H9.39453ZM19.0437 7.46875V16H17.9129V7.46875H19.0437ZM24.609 16H22.8277L22.8395 15.0801H24.609C25.2184 15.0801 25.7262 14.9531 26.1324 14.6992C26.5387 14.4414 26.8434 14.082 27.0465 13.6211C27.2535 13.1562 27.357 12.6133 27.357 11.9922V11.4707C27.357 10.9824 27.2984 10.5488 27.1812 10.1699C27.0641 9.78711 26.8922 9.46484 26.6656 9.20312C26.4391 8.9375 26.1617 8.73633 25.8336 8.59961C25.5094 8.46289 25.1363 8.39453 24.7145 8.39453H22.7926V7.46875H24.7145C25.273 7.46875 25.7828 7.5625 26.2437 7.75C26.7047 7.93359 27.1012 8.20117 27.4332 8.55273C27.7691 8.90039 28.027 9.32227 28.2066 9.81836C28.3863 10.3105 28.4762 10.8652 28.4762 11.4824V11.9922C28.4762 12.6094 28.3863 13.166 28.2066 13.6621C28.027 14.1543 27.7672 14.5742 27.4273 14.9219C27.0914 15.2695 26.6852 15.5371 26.2086 15.7246C25.7359 15.9082 25.2027 16 24.609 16ZM23.4312 7.46875V16H22.3004V7.46875H23.4312ZM36.7953 15.0801V16H32.2777V15.0801H36.7953ZM32.5063 7.46875V16H31.3754V7.46875H32.5063ZM36.1977 11.1367V12.0566H32.2777V11.1367H36.1977ZM36.7367 7.46875V8.39453H32.2777V7.46875H36.7367ZM45.9641 11.4648V12.0039C45.9641 12.6445 45.884 13.2188 45.7238 13.7266C45.5637 14.2344 45.3332 14.666 45.0324 15.0215C44.7316 15.377 44.3703 15.6484 43.9484 15.8359C43.5305 16.0234 43.0617 16.1172 42.5422 16.1172C42.0383 16.1172 41.5754 16.0234 41.1535 15.8359C40.7355 15.6484 40.3723 15.377 40.0637 15.0215C39.759 14.666 39.5227 14.2344 39.3547 13.7266C39.1867 13.2188 39.1027 12.6445 39.1027 12.0039V11.4648C39.1027 10.8242 39.1848 10.252 39.3488 9.74805C39.5168 9.24023 39.7531 8.80859 40.0578 8.45312C40.3625 8.09375 40.7238 7.82031 41.1418 7.63281C41.5637 7.44531 42.0266 7.35156 42.5305 7.35156C43.05 7.35156 43.5187 7.44531 43.9367 7.63281C44.3586 7.82031 44.7199 8.09375 45.0207 8.45312C45.3254 8.80859 45.5578 9.24023 45.718 9.74805C45.882 10.252 45.9641 10.8242 45.9641 11.4648ZM44.8449 12.0039V11.4531C44.8449 10.9453 44.7922 10.4961 44.6867 10.1055C44.5852 9.71484 44.4348 9.38672 44.2355 9.12109C44.0363 8.85547 43.7922 8.6543 43.5031 8.51758C43.218 8.38086 42.8937 8.3125 42.5305 8.3125C42.1789 8.3125 41.8605 8.38086 41.5754 8.51758C41.2941 8.6543 41.052 8.85547 40.8488 9.12109C40.6496 9.38672 40.4953 9.71484 40.3859 10.1055C40.2766 10.4961 40.2219 10.9453 40.2219 11.4531V12.0039C40.2219 12.5156 40.2766 12.9688 40.3859 13.3633C40.4953 13.7539 40.6516 14.084 40.8547 14.3535C41.0617 14.6191 41.3059 14.8203 41.5871 14.957C41.8723 15.0938 42.1906 15.1621 42.5422 15.1621C42.9094 15.1621 43.2355 15.0938 43.5207 14.957C43.8059 14.8203 44.0461 14.6191 44.2414 14.3535C44.4406 14.084 44.591 13.7539 44.6926 13.3633C44.7941 12.9688 44.8449 12.5156 44.8449 12.0039ZM57.4109 15.0215L59.5789 16.7383L58.8172 17.4414L56.6844 15.748L57.4109 15.0215ZM59.5496 11.4648V12.0039C59.5496 12.6445 59.4695 13.2188 59.3094 13.7266C59.1492 14.2344 58.9188 14.666 58.618 15.0215C58.3172 15.377 57.9559 15.6484 57.534 15.8359C57.116 16.0234 56.6473 16.1172 56.1277 16.1172C55.6238 16.1172 55.1609 16.0234 54.7391 15.8359C54.3211 15.6484 53.9578 15.377 53.6492 15.0215C53.3445 14.666 53.1082 14.2344 52.9402 13.7266C52.7723 13.2188 52.6883 12.6445 52.6883 12.0039V11.4648C52.6883 10.8242 52.7703 10.252 52.9344 9.74805C53.1023 9.24023 53.3387 8.80859 53.6434 8.45312C53.948 8.09375 54.3094 7.82031 54.7273 7.63281C55.1492 7.44531 55.6121 7.35156 56.116 7.35156C56.6355 7.35156 57.1063 7.44531 57.5281 7.63281C57.95 7.82031 58.3113 8.09375 58.6121 8.45312C58.9129 8.80859 59.1434 9.24023 59.3035 9.74805C59.4676 10.252 59.5496 10.8242 59.5496 11.4648ZM58.4305 12.0039V11.4531C58.4305 10.9453 58.3777 10.4961 58.2723 10.1055C58.1707 9.71484 58.0203 9.38672 57.8211 9.12109C57.6219 8.85547 57.3797 8.6543 57.0945 8.51758C56.8094 8.38086 56.4832 8.3125 56.116 8.3125C55.7684 8.3125 55.452 8.38086 55.1668 8.51758C54.8855 8.6543 54.6434 8.85547 54.4402 9.12109C54.2371 9.38672 54.0809 9.71484 53.9715 10.1055C53.8621 10.4961 53.8074 10.9453 53.8074 11.4531V12.0039C53.8074 12.5156 53.8621 12.9688 53.9715 13.3633C54.0809 13.7539 54.2371 14.084 54.4402 14.3535C54.6473 14.6191 54.8934 14.8203 55.1785 14.957C55.4637 15.0938 55.7801 15.1621 56.1277 15.1621C56.4949 15.1621 56.8211 15.0938 57.1063 14.957C57.3914 14.8203 57.6316 14.6191 57.827 14.3535C58.0262 14.084 58.1766 13.7539 58.2781 13.3633C58.3797 12.9688 58.4305 12.5156 58.4305 12.0039ZM67.3766 7.46875H68.5016V13.2402C68.5016 13.8809 68.359 14.4141 68.0738 14.8398C67.7887 15.2656 67.4098 15.5859 66.9371 15.8008C66.4684 16.0117 65.9586 16.1172 65.4078 16.1172C64.8297 16.1172 64.3063 16.0117 63.8375 15.8008C63.3727 15.5859 63.0035 15.2656 62.7301 14.8398C62.4605 14.4141 62.3258 13.8809 62.3258 13.2402V7.46875H63.4449V13.2402C63.4449 13.6855 63.527 14.0527 63.691 14.3418C63.8551 14.6309 64.0836 14.8457 64.3766 14.9863C64.6734 15.127 65.0172 15.1973 65.4078 15.1973C65.8023 15.1973 66.1461 15.127 66.4391 14.9863C66.7359 14.8457 66.9664 14.6309 67.1305 14.3418C67.2945 14.0527 67.3766 13.6855 67.3766 13.2402V7.46875ZM76.8969 15.0801V16H72.3793V15.0801H76.8969ZM72.6078 7.46875V16H71.477V7.46875H72.6078ZM76.2992 11.1367V12.0566H72.3793V11.1367H76.2992ZM76.8383 7.46875V8.39453H72.3793V7.46875H76.8383ZM84.0441 13.8438C84.0441 13.6445 84.0129 13.4688 83.9504 13.3164C83.8918 13.1602 83.7863 13.0195 83.634 12.8945C83.4855 12.7695 83.2785 12.6504 83.0129 12.5371C82.7512 12.4238 82.4191 12.3086 82.0168 12.1914C81.5949 12.0664 81.2141 11.9277 80.8742 11.7754C80.5344 11.6191 80.2434 11.4414 80.0012 11.2422C79.759 11.043 79.5734 10.8145 79.4445 10.5566C79.3156 10.2988 79.2512 10.0039 79.2512 9.67188C79.2512 9.33984 79.3195 9.0332 79.4563 8.75195C79.593 8.4707 79.7883 8.22656 80.0422 8.01953C80.3 7.80859 80.6066 7.64453 80.9621 7.52734C81.3176 7.41016 81.7141 7.35156 82.1516 7.35156C82.7922 7.35156 83.3352 7.47461 83.7805 7.7207C84.2297 7.96289 84.5715 8.28125 84.8059 8.67578C85.0402 9.06641 85.1574 9.48438 85.1574 9.92969H84.0324C84.0324 9.60938 83.9641 9.32617 83.8273 9.08008C83.6906 8.83008 83.4836 8.63477 83.2063 8.49414C82.9289 8.34961 82.5773 8.27734 82.1516 8.27734C81.7492 8.27734 81.4172 8.33789 81.1555 8.45898C80.8938 8.58008 80.6984 8.74414 80.5695 8.95117C80.4445 9.1582 80.382 9.39453 80.382 9.66016C80.382 9.83984 80.4191 10.0039 80.4934 10.1523C80.5715 10.2969 80.6906 10.4316 80.8508 10.5566C81.0148 10.6816 81.2219 10.7969 81.4719 10.9023C81.7258 11.0078 82.0285 11.1094 82.3801 11.207C82.8645 11.3438 83.2824 11.4961 83.634 11.6641C83.9855 11.832 84.2746 12.0215 84.5012 12.2324C84.7316 12.4395 84.9016 12.6758 85.0109 12.9414C85.1242 13.2031 85.1809 13.5 85.1809 13.832C85.1809 14.1797 85.1105 14.4941 84.9699 14.7754C84.8293 15.0566 84.6281 15.2969 84.3664 15.4961C84.1047 15.6953 83.7902 15.8496 83.423 15.959C83.0598 16.0645 82.6535 16.1172 82.2043 16.1172C81.8098 16.1172 81.4211 16.0625 81.0383 15.9531C80.6594 15.8438 80.3137 15.6797 80.0012 15.4609C79.6926 15.2422 79.4445 14.9727 79.257 14.6523C79.0734 14.3281 78.9816 13.9531 78.9816 13.5273H80.1066C80.1066 13.8203 80.1633 14.0723 80.2766 14.2832C80.3898 14.4902 80.5441 14.6621 80.7395 14.7988C80.9387 14.9355 81.1633 15.0371 81.4133 15.1035C81.6672 15.166 81.9309 15.1973 82.2043 15.1973C82.5988 15.1973 82.9328 15.1426 83.2063 15.0332C83.4797 14.9238 83.6867 14.7676 83.8273 14.5645C83.9719 14.3613 84.0441 14.1211 84.0441 13.8438ZM90.9746 7.46875V16H89.8613V7.46875H90.9746ZM93.7168 7.46875V8.39453H87.125V7.46875H93.7168ZM97.3953 7.46875V16H96.2645V7.46875H97.3953ZM107.22 11.4648V12.0039C107.22 12.6445 107.14 13.2188 106.98 13.7266C106.82 14.2344 106.589 14.666 106.289 15.0215C105.988 15.377 105.627 15.6484 105.205 15.8359C104.787 16.0234 104.318 16.1172 103.798 16.1172C103.295 16.1172 102.832 16.0234 102.41 15.8359C101.992 15.6484 101.629 15.377 101.32 15.0215C101.015 14.666 100.779 14.2344 100.611 13.7266C100.443 13.2188 100.359 12.6445 100.359 12.0039V11.4648C100.359 10.8242 100.441 10.252 100.605 9.74805C100.773 9.24023 101.009 8.80859 101.314 8.45312C101.619 8.09375 101.98 7.82031 102.398 7.63281C102.82 7.44531 103.283 7.35156 103.787 7.35156C104.306 7.35156 104.775 7.44531 105.193 7.63281C105.615 7.82031 105.976 8.09375 106.277 8.45312C106.582 8.80859 106.814 9.24023 106.974 9.74805C107.138 10.252 107.22 10.8242 107.22 11.4648ZM106.101 12.0039V11.4531C106.101 10.9453 106.048 10.4961 105.943 10.1055C105.841 9.71484 105.691 9.38672 105.492 9.12109C105.293 8.85547 105.048 8.6543 104.759 8.51758C104.474 8.38086 104.15 8.3125 103.787 8.3125C103.435 8.3125 103.117 8.38086 102.832 8.51758C102.55 8.6543 102.308 8.85547 102.105 9.12109C101.906 9.38672 101.752 9.71484 101.642 10.1055C101.533 10.4961 101.478 10.9453 101.478 11.4531V12.0039C101.478 12.5156 101.533 12.9688 101.642 13.3633C101.752 13.7539 101.908 14.084 102.111 14.3535C102.318 14.6191 102.562 14.8203 102.843 14.957C103.129 15.0938 103.447 15.1621 103.798 15.1621C104.166 15.1621 104.492 15.0938 104.777 14.957C105.062 14.8203 105.302 14.6191 105.498 14.3535C105.697 14.084 105.847 13.7539 105.949 13.3633C106.05 12.9688 106.101 12.5156 106.101 12.0039ZM116.676 7.46875V16H115.539L111.245 9.41992V16H110.114V7.46875H111.245L115.557 14.0664V7.46875H116.676ZM124.427 13.8438C124.427 13.6445 124.396 13.4688 124.333 13.3164C124.275 13.1602 124.169 13.0195 124.017 12.8945C123.868 12.7695 123.661 12.6504 123.396 12.5371C123.134 12.4238 122.802 12.3086 122.4 12.1914C121.978 12.0664 121.597 11.9277 121.257 11.7754C120.917 11.6191 120.626 11.4414 120.384 11.2422C120.142 11.043 119.956 10.8145 119.827 10.5566C119.698 10.2988 119.634 10.0039 119.634 9.67188C119.634 9.33984 119.702 9.0332 119.839 8.75195C119.976 8.4707 120.171 8.22656 120.425 8.01953C120.683 7.80859 120.989 7.64453 121.345 7.52734C121.7 7.41016 122.097 7.35156 122.534 7.35156C123.175 7.35156 123.718 7.47461 124.163 7.7207C124.613 7.96289 124.954 8.28125 125.189 8.67578C125.423 9.06641 125.54 9.48438 125.54 9.92969H124.415C124.415 9.60938 124.347 9.32617 124.21 9.08008C124.073 8.83008 123.866 8.63477 123.589 8.49414C123.312 8.34961 122.96 8.27734 122.534 8.27734C122.132 8.27734 121.8 8.33789 121.538 8.45898C121.277 8.58008 121.081 8.74414 120.952 8.95117C120.827 9.1582 120.765 9.39453 120.765 9.66016C120.765 9.83984 120.802 10.0039 120.876 10.1523C120.954 10.2969 121.073 10.4316 121.234 10.5566C121.398 10.6816 121.605 10.7969 121.855 10.9023C122.109 11.0078 122.411 11.1094 122.763 11.207C123.247 11.3438 123.665 11.4961 124.017 11.6641C124.368 11.832 124.657 12.0215 124.884 12.2324C125.114 12.4395 125.284 12.6758 125.394 12.9414C125.507 13.2031 125.564 13.5 125.564 13.832C125.564 14.1797 125.493 14.4941 125.353 14.7754C125.212 15.0566 125.011 15.2969 124.749 15.4961C124.488 15.6953 124.173 15.8496 123.806 15.959C123.443 16.0645 123.036 16.1172 122.587 16.1172C122.193 16.1172 121.804 16.0625 121.421 15.9531C121.042 15.8438 120.696 15.6797 120.384 15.4609C120.075 15.2422 119.827 14.9727 119.64 14.6523C119.456 14.3281 119.364 13.9531 119.364 13.5273H120.489C120.489 13.8203 120.546 14.0723 120.659 14.2832C120.773 14.4902 120.927 14.6621 121.122 14.7988C121.321 14.9355 121.546 15.0371 121.796 15.1035C122.05 15.166 122.314 15.1973 122.587 15.1973C122.982 15.1973 123.316 15.1426 123.589 15.0332C123.863 14.9238 124.07 14.7676 124.21 14.5645C124.355 14.3613 124.427 14.1211 124.427 13.8438Z" fill="#61757E"/>
</svg>
