<svg width="40" height="40" viewBox="0 0 40 40" fill="none" xmlns="http://www.w3.org/2000/svg">
<path d="M20 40C31.0457 40 40 31.0457 40 20C40 8.9543 31.0457 0 20 0C8.9543 0 0 8.9543 0 20C0 31.0457 8.9543 40 20 40Z" fill="#51CEBC"/>
<path d="M10.25 13.625H22.25C23.0456 13.625 23.8087 13.9411 24.3713 14.5037C24.9339 15.0663 25.25 15.8294 25.25 16.625V25.625C25.25 25.8239 25.171 26.0147 25.0303 26.1553C24.8897 26.296 24.6989 26.375 24.5 26.375H12.5C11.7044 26.375 10.9413 26.0589 10.3787 25.4963C9.81607 24.9337 9.5 24.1706 9.5 23.375V14.375C9.5 14.1761 9.57902 13.9853 9.71967 13.8447C9.86032 13.704 10.0511 13.625 10.25 13.625Z" stroke="#0B2330" stroke-linecap="round" stroke-linejoin="round"/>
<path d="M25.25 18.5L30.5 15.5V24.5L25.25 21.5" stroke="#0B2330" stroke-linecap="round" stroke-linejoin="round"/>
</svg>
