<svg width="600" height="886" viewBox="0 0 600 886" fill="none" xmlns="http://www.w3.org/2000/svg">
<path d="M0 0H600V886H0V0Z" fill="#F9C600"/>
<path d="M80.19 849.449L73.14 848.787L0 855.672V856.998L80.19 849.449ZM408.42 855.865H304.98V856.804H408.42V855.865ZM295.02 855.865H191.58V856.804H295.02V855.865ZM526.85 863.882L599.99 856.999V855.672L519.8 863.22L526.85 863.882Z" fill="white"/>
<path fill-rule="evenodd" clip-rule="evenodd" d="M306.36 886L219.81 877.854L226.85 877.192L320.45 886H306.35H306.36Z" fill="white"/>
<path d="M526.85 792.318L519.8 792.981L600 800.528V799.202L526.85 792.318ZM304.98 800.333H295.02V810.069H304.98V800.332V800.333ZM304.98 789.66H295.02V799.395H304.98V789.661V789.66ZM80.19 806.749L0 799.202V800.528L73.14 807.412L80.19 806.749ZM380.2 778.513L332.25 774H318.16L373.16 779.176L380.2 778.513ZM295.02 799.395H191.58V800.333H295.02V799.395ZM408.42 799.395H304.98V800.333H408.42V799.395Z" fill="white"/>
<path d="M304.98 799.395H295.02V800.333H304.98V799.395ZM373.16 835.647L380.2 834.984L332.25 830.471H318.16L373.16 835.647ZM219.8 821.214L316.35 830.301H330.44L226.84 820.551L219.8 821.214ZM316.35 830.301L318.15 830.471H332.24L330.44 830.301H316.34H316.35ZM304.98 846.299H295.02V855.865H304.98V846.299ZM304.98 856.803H295.02V866.539H304.98V856.805V856.803Z" fill="white"/>
<path d="M304.98 855.865H295.02V856.804H304.98V855.865Z" fill="white"/>
</svg>
